%TF.GenerationSoftware,KiCad,Pcbnew,7.0.7*%
%TF.CreationDate,2023-11-04T15:45:33+01:00*%
%TF.ProjectId,LK-EU01_Smart_Socket_Base,4c4b2d45-5530-4315-9f53-6d6172745f53,rev?*%
%TF.SameCoordinates,Original*%
%TF.FileFunction,Copper,L2,Bot*%
%TF.FilePolarity,Positive*%
%FSLAX46Y46*%
G04 Gerber Fmt 4.6, Leading zero omitted, Abs format (unit mm)*
G04 Created by KiCad (PCBNEW 7.0.7) date 2023-11-04 15:45:33*
%MOMM*%
%LPD*%
G01*
G04 APERTURE LIST*
G04 Aperture macros list*
%AMRoundRect*
0 Rectangle with rounded corners*
0 $1 Rounding radius*
0 $2 $3 $4 $5 $6 $7 $8 $9 X,Y pos of 4 corners*
0 Add a 4 corners polygon primitive as box body*
4,1,4,$2,$3,$4,$5,$6,$7,$8,$9,$2,$3,0*
0 Add four circle primitives for the rounded corners*
1,1,$1+$1,$2,$3*
1,1,$1+$1,$4,$5*
1,1,$1+$1,$6,$7*
1,1,$1+$1,$8,$9*
0 Add four rect primitives between the rounded corners*
20,1,$1+$1,$2,$3,$4,$5,0*
20,1,$1+$1,$4,$5,$6,$7,0*
20,1,$1+$1,$6,$7,$8,$9,0*
20,1,$1+$1,$8,$9,$2,$3,0*%
%AMRotRect*
0 Rectangle, with rotation*
0 The origin of the aperture is its center*
0 $1 length*
0 $2 width*
0 $3 Rotation angle, in degrees counterclockwise*
0 Add horizontal line*
21,1,$1,$2,0,0,$3*%
G04 Aperture macros list end*
%TA.AperFunction,ComponentPad*%
%ADD10R,1.500000X6.000000*%
%TD*%
%TA.AperFunction,SMDPad,CuDef*%
%ADD11RoundRect,0.250000X0.475000X-0.250000X0.475000X0.250000X-0.475000X0.250000X-0.475000X-0.250000X0*%
%TD*%
%TA.AperFunction,ComponentPad*%
%ADD12C,1.600000*%
%TD*%
%TA.AperFunction,SMDPad,CuDef*%
%ADD13R,2.500000X1.600000*%
%TD*%
%TA.AperFunction,SMDPad,CuDef*%
%ADD14R,0.420000X0.840000*%
%TD*%
%TA.AperFunction,SMDPad,CuDef*%
%ADD15R,1.875000X1.050000*%
%TD*%
%TA.AperFunction,ComponentPad*%
%ADD16C,2.000000*%
%TD*%
%TA.AperFunction,ComponentPad*%
%ADD17RotRect,2.000000X2.000000X315.000000*%
%TD*%
%TA.AperFunction,ComponentPad*%
%ADD18C,2.286000*%
%TD*%
%TA.AperFunction,SMDPad,CuDef*%
%ADD19RoundRect,0.250000X-0.250000X-0.475000X0.250000X-0.475000X0.250000X0.475000X-0.250000X0.475000X0*%
%TD*%
%TA.AperFunction,SMDPad,CuDef*%
%ADD20RoundRect,0.250000X0.450000X-0.262500X0.450000X0.262500X-0.450000X0.262500X-0.450000X-0.262500X0*%
%TD*%
%TA.AperFunction,ComponentPad*%
%ADD21C,2.010000*%
%TD*%
%TA.AperFunction,ComponentPad*%
%ADD22C,1.200000*%
%TD*%
%TA.AperFunction,ComponentPad*%
%ADD23R,1.200000X1.200000*%
%TD*%
%TA.AperFunction,SMDPad,CuDef*%
%ADD24RoundRect,0.250000X-0.450000X0.262500X-0.450000X-0.262500X0.450000X-0.262500X0.450000X0.262500X0*%
%TD*%
%TA.AperFunction,SMDPad,CuDef*%
%ADD25RoundRect,0.200000X-0.275000X0.200000X-0.275000X-0.200000X0.275000X-0.200000X0.275000X0.200000X0*%
%TD*%
%TA.AperFunction,ComponentPad*%
%ADD26R,1.600000X1.600000*%
%TD*%
%TA.AperFunction,SMDPad,CuDef*%
%ADD27RoundRect,0.250000X-0.375000X-1.075000X0.375000X-1.075000X0.375000X1.075000X-0.375000X1.075000X0*%
%TD*%
%TA.AperFunction,ViaPad*%
%ADD28C,0.800000*%
%TD*%
%TA.AperFunction,ViaPad*%
%ADD29C,0.600000*%
%TD*%
%TA.AperFunction,Conductor*%
%ADD30C,0.150000*%
%TD*%
%TA.AperFunction,Conductor*%
%ADD31C,1.000000*%
%TD*%
%TA.AperFunction,Conductor*%
%ADD32C,2.000000*%
%TD*%
%TA.AperFunction,Conductor*%
%ADD33C,0.400000*%
%TD*%
%TA.AperFunction,Conductor*%
%ADD34C,0.500000*%
%TD*%
G04 APERTURE END LIST*
D10*
%TO.P,U1,1a,AC_OUT_Line*%
%TO.N,AC_IN_LINE*%
X118050000Y-91790000D03*
%TO.P,U1,2a,AC_OUT_Neutral*%
%TO.N,AC_OUT_NEUTRAL*%
X118050000Y-110700000D03*
%TO.P,U1,3a,AC_IN_Neutral*%
%TO.N,AC_IN_NEUTRAL*%
X141630000Y-110690000D03*
%TD*%
D11*
%TO.P,HLC3,2*%
%TO.N,GND3*%
X155670000Y-114180000D03*
%TO.P,HLC3,1*%
%TO.N,5V0*%
X155670000Y-116080000D03*
%TD*%
D12*
%TO.P,HLV1,2*%
%TO.N,AC_IN_LINE*%
X111680000Y-88300000D03*
%TO.P,HLV1,1*%
%TO.N,Net-(HLC2-Pad1)*%
X106680000Y-89600000D03*
%TD*%
D13*
%TO.P,AUR1,7,GND*%
%TO.N,GND*%
X152630000Y-120570000D03*
D14*
%TO.P,AUR1,6,EN*%
%TO.N,5V0*%
X153580000Y-119135000D03*
%TO.P,AUR1,5,VIN_A*%
X152630000Y-119135000D03*
%TO.P,AUR1,4,VIN_SW*%
X151680000Y-119135000D03*
%TO.P,AUR1,3,SW*%
%TO.N,Net-(AUR1-SW)*%
X151680000Y-122005000D03*
%TO.P,AUR1,2,GND*%
%TO.N,GND*%
X152630000Y-122005000D03*
%TO.P,AUR1,1,FB*%
%TO.N,Net-(AUR1-FB)*%
X153580000Y-122005000D03*
%TD*%
D15*
%TO.P,D2,4*%
%TO.N,Net-(D2-Pad4)*%
X143378250Y-93830000D03*
%TO.P,D2,3*%
%TO.N,GND3*%
X148703250Y-93830000D03*
%TO.P,D2,2*%
%TO.N,Net-(D2-Pad2)*%
X143378250Y-91330000D03*
%TO.P,D2,1*%
%TO.N,Net-(U3-DRAIN)*%
X148703250Y-91330000D03*
%TD*%
D16*
%TO.P,HLL2,4,4*%
%TO.N,AC_IN_LINE*%
X156388393Y-82480164D03*
%TO.P,HLL2,3,3*%
%TO.N,Net-(D2-Pad2)*%
X151350257Y-87408698D03*
%TO.P,HLL2,2,2*%
%TO.N,Net-(HLC2-Pad1)*%
X150602138Y-76764620D03*
D17*
%TO.P,HLL2,1,1*%
%TO.N,Net-(D2-Pad4)*%
X145553396Y-81710832D03*
%TD*%
D16*
%TO.P,HLC2,2*%
%TO.N,AC_IN_LINE*%
X117860000Y-81030000D03*
%TO.P,HLC2,1*%
%TO.N,Net-(HLC2-Pad1)*%
X107860000Y-81030000D03*
%TD*%
D18*
%TO.P,U2,4*%
%TO.N,AC_IN_NEUTRAL_HAL*%
X106759581Y-115505892D03*
%TO.P,U2,3*%
%TO.N,AC_OUT_NEUTRAL*%
X114009719Y-112122328D03*
%TO.P,U2,2*%
%TO.N,Net-(HLD1-K)*%
X122240946Y-120963901D03*
%TO.P,U2,1*%
%TO.N,GND*%
X116675344Y-126153908D03*
%TD*%
D19*
%TO.P,AC2,2*%
%TO.N,GND*%
X157840000Y-118840000D03*
%TO.P,AC2,1*%
%TO.N,5V0*%
X155940000Y-118840000D03*
%TD*%
D11*
%TO.P,AC1,2*%
%TO.N,GND*%
X148660000Y-120570000D03*
%TO.P,AC1,1*%
%TO.N,3V3*%
X148660000Y-122470000D03*
%TD*%
D20*
%TO.P,AR1,2*%
%TO.N,GND*%
X156410000Y-121307500D03*
%TO.P,AR1,1*%
%TO.N,Net-(AUR1-FB)*%
X156410000Y-123132500D03*
%TD*%
D21*
%TO.P,PF1,2*%
%TO.N,AC_IN_NEUTRAL_HAL*%
X108570000Y-100070000D03*
%TO.P,PF1,1*%
%TO.N,Net-(HLC2-Pad1)*%
X107370000Y-94970000D03*
%TD*%
D22*
%TO.P,C1,2*%
%TO.N,GND3*%
X157030000Y-110900000D03*
D23*
%TO.P,C1,1*%
%TO.N,5V0*%
X155530000Y-110900000D03*
%TD*%
D24*
%TO.P,AR3,2*%
%TO.N,5V0*%
X153540000Y-116022500D03*
%TO.P,AR3,1*%
%TO.N,GND3*%
X153540000Y-114197500D03*
%TD*%
D25*
%TO.P,ER1,2*%
%TO.N,ACS_HALL_PAD1B*%
X145750000Y-115625000D03*
%TO.P,ER1,1*%
%TO.N,Net-(ACS1-VIOUT)*%
X145750000Y-113975000D03*
%TD*%
%TO.P,ER2,2*%
%TO.N,ACS_HALL_PAD1B*%
X147360000Y-115615000D03*
%TO.P,ER2,1*%
%TO.N,GND*%
X147360000Y-113965000D03*
%TD*%
D11*
%TO.P,HLC1,2*%
%TO.N,GND3*%
X151410000Y-114170000D03*
%TO.P,HLC1,1*%
%TO.N,5V0*%
X151410000Y-116070000D03*
%TD*%
D20*
%TO.P,AR2,2*%
%TO.N,Net-(AUR1-FB)*%
X154090000Y-124422500D03*
%TO.P,AR2,1*%
%TO.N,3V3*%
X154090000Y-126247500D03*
%TD*%
D24*
%TO.P,HLR1,2*%
%TO.N,GND*%
X157700000Y-116022500D03*
%TO.P,HLR1,1*%
%TO.N,GND3*%
X157700000Y-114197500D03*
%TD*%
D12*
%TO.P,C2,2*%
%TO.N,GND3*%
X154070000Y-93650000D03*
D26*
%TO.P,C2,1*%
%TO.N,Net-(U3-DRAIN)*%
X156070000Y-93650000D03*
%TD*%
D27*
%TO.P,AL1,2,2*%
%TO.N,Net-(AUR1-SW)*%
X151350000Y-125335000D03*
%TO.P,AL1,1,1*%
%TO.N,3V3*%
X148550000Y-125335000D03*
%TD*%
D28*
%TO.N,ACS_HALL_PAD1B*%
X125610000Y-126670000D03*
%TO.N,GND3*%
X151380000Y-106590000D03*
X150490000Y-107570000D03*
%TO.N,5V0*%
X154870000Y-118800000D03*
%TO.N,GND*%
X146860000Y-127810000D03*
X156530000Y-125290000D03*
X146840000Y-119250000D03*
X147490000Y-117330000D03*
X157770000Y-117250000D03*
X154990000Y-120920000D03*
X151950000Y-117290000D03*
X149690000Y-117290000D03*
X153880000Y-117280000D03*
X150260000Y-120590000D03*
X157960000Y-120800000D03*
%TO.N,3V3*%
X147220000Y-121730000D03*
%TO.N,AC_IN_NEUTRAL*%
X136190000Y-108500000D03*
X133540000Y-106330000D03*
X136710000Y-106820000D03*
X139390000Y-107300000D03*
X139270000Y-109180000D03*
X135330000Y-104090000D03*
X139430000Y-111100000D03*
X135360000Y-105790000D03*
X138020000Y-106110000D03*
X138050000Y-107910000D03*
X137650000Y-109560000D03*
X136620000Y-105100000D03*
%TO.N,AC_IN_LINE*%
X115840000Y-91070000D03*
X114130000Y-91640000D03*
X112340000Y-92100000D03*
X115330000Y-92980000D03*
X114410000Y-94310000D03*
X115440000Y-87840000D03*
X113180000Y-93750000D03*
X111440000Y-90460000D03*
X115390000Y-89310000D03*
X117650000Y-87840000D03*
X113430000Y-87900000D03*
X114030000Y-90180000D03*
X116220000Y-94260000D03*
%TO.N,AC_OUT_NEUTRAL*%
X113550000Y-107950000D03*
X113710000Y-110050000D03*
X116060000Y-113030000D03*
X116170000Y-111500000D03*
X116050000Y-110020000D03*
X116160000Y-108010000D03*
X114760000Y-108740000D03*
D29*
%TO.N,Net-(ACS1-VIOUT)*%
X131360000Y-97740000D03*
D28*
%TO.N,AC_IN_NEUTRAL_HAL*%
X125860000Y-109580000D03*
X109010000Y-116440000D03*
X127960000Y-109590000D03*
X127050000Y-108110000D03*
X122690000Y-112780000D03*
X119770000Y-115510000D03*
X113620000Y-116640000D03*
X109800000Y-118050000D03*
X124330000Y-111040000D03*
X107190000Y-117800000D03*
X130390000Y-106260000D03*
X126110000Y-111140000D03*
X124490000Y-112640000D03*
X115680000Y-116600000D03*
X114550000Y-117900000D03*
X128970000Y-107450000D03*
X123040000Y-114300000D03*
X116840000Y-118180000D03*
X121400000Y-115820000D03*
X111180000Y-116640000D03*
X121410000Y-114050000D03*
X128710000Y-105910000D03*
X118070000Y-116680000D03*
X112350000Y-118110000D03*
X119760000Y-117510000D03*
%TD*%
D30*
%TO.N,Net-(ACS1-VIOUT)*%
X145750000Y-113360000D02*
X145750000Y-113975000D01*
X147120000Y-111990000D02*
X145750000Y-113360000D01*
X138260000Y-97630000D02*
X147120000Y-106490000D01*
X147120000Y-106490000D02*
X147120000Y-111990000D01*
X131470000Y-97630000D02*
X138260000Y-97630000D01*
X131360000Y-97740000D02*
X131470000Y-97630000D01*
%TO.N,ACS_HALL_PAD1B*%
X125570000Y-126630000D02*
X125610000Y-126670000D01*
X122480000Y-123330000D02*
X122480000Y-125630000D01*
X126420000Y-119390000D02*
X122480000Y-123330000D01*
X145675000Y-115625000D02*
X141910000Y-119390000D01*
X145750000Y-115625000D02*
X145675000Y-115625000D01*
X141910000Y-119390000D02*
X126420000Y-119390000D01*
X122480000Y-125630000D02*
X123480000Y-126630000D01*
X123480000Y-126630000D02*
X125570000Y-126630000D01*
X125650000Y-126630000D02*
X125720000Y-126630000D01*
X125610000Y-126670000D02*
X125650000Y-126630000D01*
D31*
%TO.N,GND3*%
X153920000Y-93800000D02*
X154070000Y-93650000D01*
X151380000Y-106590000D02*
X150490000Y-107480000D01*
X151430000Y-114190000D02*
X157652500Y-114190000D01*
X157030000Y-110900000D02*
X157030000Y-109570000D01*
X157700000Y-111570000D02*
X157030000Y-110900000D01*
X150490000Y-107480000D02*
X150490000Y-107570000D01*
X148703250Y-93830000D02*
X148733250Y-93800000D01*
X148733250Y-93800000D02*
X153920000Y-93800000D01*
X154050000Y-106590000D02*
X151380000Y-106590000D01*
X157030000Y-109570000D02*
X154050000Y-106590000D01*
X157700000Y-114197500D02*
X157700000Y-111570000D01*
D32*
%TO.N,Net-(HLC2-Pad1)*%
X106680000Y-94280000D02*
X107370000Y-94970000D01*
X125856854Y-74646854D02*
X129360000Y-78150000D01*
X148484372Y-74646854D02*
X150602138Y-76764620D01*
X106680000Y-82210000D02*
X107860000Y-81030000D01*
X106680000Y-89600000D02*
X106680000Y-82210000D01*
X107860000Y-81030000D02*
X114243146Y-74646854D01*
X106680000Y-89600000D02*
X106680000Y-94280000D01*
X138333146Y-74646854D02*
X148484372Y-74646854D01*
X129360000Y-78150000D02*
X134830000Y-78150000D01*
X134830000Y-78150000D02*
X138333146Y-74646854D01*
X114243146Y-74646854D02*
X125856854Y-74646854D01*
D33*
%TO.N,5V0*%
X153570000Y-118995000D02*
X153570000Y-118350000D01*
X153570000Y-118350000D02*
X153520000Y-118300000D01*
X155900000Y-118800000D02*
X155940000Y-118840000D01*
X152690000Y-118300000D02*
X153520000Y-118300000D01*
D31*
X149730000Y-113910000D02*
X149730000Y-112800000D01*
D33*
X151670000Y-118995000D02*
X151670000Y-118430000D01*
X153520000Y-118300000D02*
X154290000Y-118300000D01*
X152620000Y-118995000D02*
X152620000Y-118370000D01*
D31*
X150450000Y-116070000D02*
X149730000Y-115350000D01*
D33*
X154870000Y-118800000D02*
X155900000Y-118800000D01*
X154830000Y-118840000D02*
X154870000Y-118800000D01*
X151800000Y-118300000D02*
X152690000Y-118300000D01*
X151670000Y-118430000D02*
X151800000Y-118300000D01*
D31*
X155940000Y-118840000D02*
X155940000Y-115910000D01*
D33*
X152620000Y-118370000D02*
X152690000Y-118300000D01*
D31*
X151410000Y-116070000D02*
X150450000Y-116070000D01*
D30*
X149730000Y-115560000D02*
X149730000Y-113910000D01*
D31*
X151630000Y-110900000D02*
X155530000Y-110900000D01*
X149730000Y-115350000D02*
X149730000Y-113910000D01*
X155940000Y-115910000D02*
X155690000Y-115660000D01*
D33*
X154290000Y-118300000D02*
X154830000Y-118840000D01*
D31*
X149730000Y-112800000D02*
X151630000Y-110900000D01*
X155640000Y-116070000D02*
X151410000Y-116070000D01*
D33*
%TO.N,GND*%
X156410000Y-121307500D02*
X155447500Y-121307500D01*
X150240000Y-120570000D02*
X148660000Y-120570000D01*
X150280000Y-120570000D02*
X150260000Y-120590000D01*
X154990000Y-120850000D02*
X154710000Y-120570000D01*
X150260000Y-120590000D02*
X150240000Y-120570000D01*
X157840000Y-120680000D02*
X157960000Y-120800000D01*
D30*
X149690000Y-117290000D02*
X148660000Y-116260000D01*
D33*
X157840000Y-120840000D02*
X157372500Y-121307500D01*
X157840000Y-118840000D02*
X157840000Y-120680000D01*
D30*
X148660000Y-116260000D02*
X148660000Y-114300000D01*
D33*
X152630000Y-122005000D02*
X152630000Y-120570000D01*
X154710000Y-120570000D02*
X152630000Y-120570000D01*
X155060000Y-120920000D02*
X154990000Y-120920000D01*
X157372500Y-121307500D02*
X156410000Y-121307500D01*
D31*
X157770000Y-116500000D02*
X157770000Y-117250000D01*
D33*
X155447500Y-121307500D02*
X155060000Y-120920000D01*
X154990000Y-120920000D02*
X154990000Y-120850000D01*
X152630000Y-120570000D02*
X150280000Y-120570000D01*
X157960000Y-120800000D02*
X157840000Y-120840000D01*
D30*
X148325000Y-113965000D02*
X147360000Y-113965000D01*
X148660000Y-114300000D02*
X148325000Y-113965000D01*
%TO.N,3V3*%
X152900000Y-127470000D02*
X148950000Y-127470000D01*
D34*
X148660000Y-122470000D02*
X148660000Y-125225000D01*
D30*
X148950000Y-127470000D02*
X148550000Y-127070000D01*
X148550000Y-127070000D02*
X148550000Y-125335000D01*
X154090000Y-126247500D02*
X154090000Y-126280000D01*
D34*
X147960000Y-122470000D02*
X148660000Y-122470000D01*
D30*
X154090000Y-126280000D02*
X152900000Y-127470000D01*
D34*
X147220000Y-121730000D02*
X147960000Y-122470000D01*
X148660000Y-125225000D02*
X148550000Y-125335000D01*
D33*
%TO.N,Net-(AUR1-SW)*%
X151670000Y-125015000D02*
X151350000Y-125335000D01*
X151670000Y-121865000D02*
X151670000Y-125015000D01*
D30*
%TO.N,Net-(AUR1-FB)*%
X153570000Y-122450000D02*
X154005000Y-122885000D01*
X154005000Y-122885000D02*
X154130000Y-123010000D01*
X154130000Y-123010000D02*
X154090000Y-123050000D01*
X156410000Y-123132500D02*
X154252500Y-123132500D01*
X154252500Y-123132500D02*
X154005000Y-122885000D01*
X153570000Y-121865000D02*
X153570000Y-122450000D01*
X154090000Y-123050000D02*
X154090000Y-124422500D01*
D34*
%TO.N,AC_IN_NEUTRAL*%
X140610000Y-110550000D02*
X141330000Y-110550000D01*
D32*
X140540000Y-110590000D02*
X140500000Y-110550000D01*
%TO.N,AC_IN_LINE*%
X112340000Y-90340000D02*
X112460000Y-90460000D01*
X111440000Y-90460000D02*
X111440000Y-89440000D01*
X111680000Y-88300000D02*
X111680000Y-87210000D01*
X146910000Y-77890000D02*
X149690000Y-80670000D01*
X113990000Y-91640000D02*
X114000000Y-91650000D01*
X111680000Y-87210000D02*
X117860000Y-81030000D01*
X116960000Y-91700000D02*
X116910000Y-91650000D01*
X114130000Y-91640000D02*
X113990000Y-91640000D01*
X112460000Y-90460000D02*
X111440000Y-90460000D01*
X114100000Y-92100000D02*
X112340000Y-92100000D01*
X113650000Y-91650000D02*
X114100000Y-92100000D01*
X124440000Y-79280000D02*
X127300000Y-82140000D01*
X136660000Y-82140000D02*
X140910000Y-77890000D01*
X115840000Y-91070000D02*
X115840000Y-92470000D01*
X154578229Y-80670000D02*
X156388393Y-82480164D01*
X115840000Y-92470000D02*
X115330000Y-92980000D01*
X140910000Y-77890000D02*
X146910000Y-77890000D01*
X117860000Y-81030000D02*
X119610000Y-79280000D01*
X127300000Y-82140000D02*
X136660000Y-82140000D01*
X149690000Y-80670000D02*
X154578229Y-80670000D01*
X117240000Y-91070000D02*
X115840000Y-91070000D01*
X115330000Y-92980000D02*
X114130000Y-91780000D01*
X114000000Y-91650000D02*
X113650000Y-91650000D01*
X111680000Y-89680000D02*
X111680000Y-88300000D01*
X119610000Y-79280000D02*
X124440000Y-79280000D01*
X111440000Y-89440000D02*
X111680000Y-89680000D01*
X116660000Y-91650000D02*
X117240000Y-91070000D01*
X116910000Y-91650000D02*
X116660000Y-91650000D01*
X114130000Y-91780000D02*
X114130000Y-91640000D01*
X112340000Y-92100000D02*
X112340000Y-90340000D01*
D31*
%TO.N,Net-(U3-DRAIN)*%
X156070000Y-92750000D02*
X156070000Y-93650000D01*
X154680000Y-91360000D02*
X156070000Y-92750000D01*
X148703250Y-91330000D02*
X148733250Y-91360000D01*
X148733250Y-91360000D02*
X154680000Y-91360000D01*
D32*
%TO.N,AC_OUT_NEUTRAL*%
X116170000Y-109962047D02*
X116170000Y-111500000D01*
X115552047Y-110580000D02*
X116170000Y-109962047D01*
X116940000Y-110580000D02*
X116050000Y-110020000D01*
X116170000Y-111500000D02*
X114632047Y-111500000D01*
X114632047Y-111500000D02*
X114009719Y-112122328D01*
X116050000Y-110020000D02*
X115552047Y-110580000D01*
D31*
%TO.N,Net-(D2-Pad2)*%
X143378250Y-91051750D02*
X143378250Y-91330000D01*
X147021302Y-87408698D02*
X143378250Y-91051750D01*
X151350257Y-87408698D02*
X147021302Y-87408698D01*
%TO.N,Net-(D2-Pad4)*%
X141070000Y-86910000D02*
X141070000Y-92620000D01*
X142280000Y-93830000D02*
X143378250Y-93830000D01*
X145553396Y-82426604D02*
X141070000Y-86910000D01*
X145553396Y-81710832D02*
X145553396Y-82426604D01*
X141070000Y-92620000D02*
X142280000Y-93830000D01*
D30*
%TO.N,ACS_HALL_PAD1B*%
X146530000Y-115625000D02*
X147350000Y-115625000D01*
X145750000Y-115625000D02*
X146530000Y-115625000D01*
D32*
%TO.N,AC_IN_NEUTRAL_HAL*%
X105476854Y-103363146D02*
X108480000Y-100360000D01*
X106759581Y-115505892D02*
X105476854Y-114223165D01*
X105476854Y-114223165D02*
X105476854Y-103363146D01*
%TD*%
%TA.AperFunction,Conductor*%
%TO.N,AC_IN_NEUTRAL_HAL*%
G36*
X130698062Y-103010272D02*
G01*
X130867977Y-103025401D01*
X130892116Y-103029995D01*
X131046827Y-103075716D01*
X131069580Y-103084979D01*
X131212231Y-103160317D01*
X131232716Y-103173891D01*
X131357696Y-103275880D01*
X131375103Y-103293228D01*
X131477512Y-103417865D01*
X131491157Y-103438309D01*
X131566969Y-103580695D01*
X131576314Y-103603430D01*
X131622550Y-103757970D01*
X131627227Y-103782099D01*
X131642927Y-103951960D01*
X131643189Y-103958111D01*
X131621399Y-107022987D01*
X131601238Y-107089884D01*
X131548110Y-107135263D01*
X131534423Y-107140450D01*
X131479645Y-107157585D01*
X131474461Y-107158964D01*
X131408763Y-107173426D01*
X131408757Y-107173427D01*
X131187772Y-107247886D01*
X131174946Y-107248391D01*
X131139873Y-107263771D01*
X131134770Y-107265745D01*
X131108509Y-107274593D01*
X131074597Y-107286020D01*
X131074594Y-107286021D01*
X131074586Y-107286024D01*
X130754575Y-107434076D01*
X130754562Y-107434083D01*
X130452441Y-107615862D01*
X130452425Y-107615873D01*
X130171711Y-107829265D01*
X130171701Y-107829273D01*
X129915700Y-108071770D01*
X129687425Y-108340515D01*
X129687418Y-108340525D01*
X129489541Y-108632370D01*
X129489533Y-108632384D01*
X129489533Y-108632385D01*
X129394762Y-108811144D01*
X129324360Y-108943936D01*
X129324358Y-108943939D01*
X129193842Y-109271510D01*
X129193840Y-109271516D01*
X129099511Y-109611260D01*
X129099509Y-109611268D01*
X129042461Y-109959249D01*
X129042460Y-109959253D01*
X129038559Y-110031196D01*
X129035635Y-110052061D01*
X129031672Y-110069432D01*
X129015666Y-110107992D01*
X128996447Y-110138470D01*
X128983813Y-110155185D01*
X126357500Y-113079379D01*
X126357501Y-113079380D01*
X126329394Y-113109409D01*
X126300087Y-113138245D01*
X125376253Y-114010601D01*
X124135884Y-115181852D01*
X124073627Y-115213567D01*
X124004107Y-115206588D01*
X123986073Y-115197491D01*
X123918771Y-115156346D01*
X123812797Y-115120501D01*
X123701531Y-115108934D01*
X123701530Y-115108934D01*
X123701529Y-115108934D01*
X123590450Y-115122211D01*
X123485040Y-115159680D01*
X123485038Y-115159681D01*
X123390503Y-115219490D01*
X123350853Y-115259313D01*
X123294466Y-115315840D01*
X123236897Y-115369919D01*
X123230042Y-115380426D01*
X119921569Y-118697178D01*
X119886609Y-118730004D01*
X119883563Y-118732683D01*
X119837065Y-118770943D01*
X119832175Y-118774579D01*
X119784128Y-118806766D01*
X119777085Y-118810842D01*
X119726139Y-118836022D01*
X119718625Y-118839141D01*
X119664846Y-118857433D01*
X119656993Y-118859542D01*
X119600267Y-118870849D01*
X119594232Y-118871746D01*
X119534309Y-118877659D01*
X119530253Y-118877926D01*
X119482284Y-118879500D01*
X110051961Y-118879500D01*
X110042791Y-118876807D01*
X109960537Y-118879500D01*
X109823600Y-118879500D01*
X109713649Y-118904596D01*
X109612033Y-118953532D01*
X109612030Y-118953533D01*
X109523852Y-119023855D01*
X109484656Y-119073003D01*
X109427467Y-119113142D01*
X109411903Y-119117304D01*
X109404206Y-119118835D01*
X109374601Y-119121100D01*
X105736151Y-118962093D01*
X105730257Y-118961552D01*
X105556191Y-118937179D01*
X105533204Y-118931686D01*
X105375349Y-118877615D01*
X105353821Y-118867860D01*
X105209095Y-118784822D01*
X105189809Y-118771160D01*
X105063464Y-118662169D01*
X105047122Y-118645096D01*
X104943751Y-118514114D01*
X104930946Y-118494255D01*
X104854301Y-118346031D01*
X104845497Y-118324100D01*
X104798372Y-118164042D01*
X104793887Y-118140838D01*
X104777634Y-117971065D01*
X104777354Y-117965192D01*
X104777354Y-114717603D01*
X104777644Y-114711610D01*
X104794366Y-114539364D01*
X104798973Y-114515862D01*
X104847413Y-114353745D01*
X104856456Y-114331564D01*
X104935177Y-114181789D01*
X104948309Y-114161775D01*
X105054382Y-114029925D01*
X105071118Y-114012814D01*
X105200561Y-113903840D01*
X105220273Y-113890267D01*
X105368271Y-113808222D01*
X105390238Y-113798690D01*
X105551242Y-113746651D01*
X105574635Y-113741522D01*
X105751616Y-113720351D01*
X105757582Y-113719930D01*
X107098353Y-113690061D01*
X107104860Y-113690259D01*
X107298231Y-113706371D01*
X107323846Y-113711258D01*
X107500136Y-113764621D01*
X107524165Y-113774762D01*
X107584741Y-113808228D01*
X107685380Y-113863828D01*
X107706762Y-113878777D01*
X107853199Y-114006059D01*
X107857892Y-114010593D01*
X108350360Y-114539372D01*
X109420086Y-115687973D01*
X109420089Y-115687976D01*
X109720000Y-116010000D01*
X110160034Y-116006409D01*
X110160035Y-116006410D01*
X110625603Y-116002611D01*
X118300000Y-115940000D01*
X118979148Y-115255954D01*
X122429428Y-111780793D01*
X122429439Y-111780780D01*
X122460000Y-111750000D01*
X125040160Y-108655935D01*
X129442103Y-103377230D01*
X129446651Y-103372340D01*
X129589915Y-103234098D01*
X129611058Y-103217708D01*
X129772050Y-103118725D01*
X129796211Y-103107259D01*
X129974693Y-103045138D01*
X130000767Y-103039122D01*
X130115893Y-103025401D01*
X130198447Y-103015562D01*
X130205125Y-103015129D01*
X130691925Y-103010032D01*
X130698062Y-103010272D01*
G37*
%TD.AperFunction*%
%TD*%
%TA.AperFunction,Conductor*%
%TO.N,AC_OUT_NEUTRAL*%
G36*
X117581220Y-107359321D02*
G01*
X117763737Y-107375917D01*
X117787930Y-107380576D01*
X117954643Y-107430278D01*
X117977441Y-107439629D01*
X118131035Y-107521315D01*
X118151534Y-107534991D01*
X118285935Y-107645431D01*
X118303326Y-107662890D01*
X118413241Y-107797735D01*
X118426834Y-107818285D01*
X118507915Y-107972204D01*
X118517174Y-107995034D01*
X118566216Y-108161944D01*
X118570779Y-108186159D01*
X118586652Y-108368724D01*
X118586880Y-108374891D01*
X118532696Y-112608046D01*
X118532324Y-112614080D01*
X118512568Y-112792497D01*
X118507589Y-112816116D01*
X118456376Y-112978646D01*
X118446915Y-113000852D01*
X118365186Y-113150379D01*
X118351603Y-113170332D01*
X118242454Y-113301192D01*
X118225262Y-113318136D01*
X118092829Y-113425370D01*
X118072681Y-113438662D01*
X117921975Y-113518211D01*
X117899633Y-113527347D01*
X117736380Y-113576190D01*
X117712691Y-113580825D01*
X117662646Y-113585630D01*
X117533998Y-113597984D01*
X117527977Y-113598267D01*
X116032601Y-113595658D01*
X113817487Y-113591792D01*
X113811313Y-113591474D01*
X113628718Y-113572890D01*
X113604536Y-113567960D01*
X113438130Y-113516342D01*
X113415406Y-113506722D01*
X113262515Y-113423167D01*
X113242145Y-113409236D01*
X113108830Y-113297057D01*
X113091622Y-113279368D01*
X112983165Y-113143011D01*
X112969803Y-113122267D01*
X112890499Y-112967131D01*
X112881508Y-112944147D01*
X112834499Y-112776380D01*
X112830238Y-112752071D01*
X112820030Y-112614080D01*
X112816697Y-112569027D01*
X112816550Y-112562861D01*
X112924965Y-108368553D01*
X112925405Y-108362616D01*
X112946894Y-108187125D01*
X112952033Y-108163914D01*
X113003850Y-108004275D01*
X113013316Y-107982488D01*
X113094652Y-107835659D01*
X113108106Y-107816073D01*
X113215969Y-107687462D01*
X113232897Y-107670819D01*
X113363332Y-107565148D01*
X113383134Y-107552036D01*
X113531325Y-107473205D01*
X113553271Y-107464110D01*
X113713777Y-107415011D01*
X113737065Y-107410269D01*
X113912913Y-107391763D01*
X113918827Y-107391426D01*
X117575066Y-107359070D01*
X117581220Y-107359321D01*
G37*
%TD.AperFunction*%
%TD*%
%TA.AperFunction,Conductor*%
%TO.N,GND*%
G36*
X154882539Y-117269685D02*
G01*
X154928294Y-117322489D01*
X154939500Y-117374000D01*
X154939500Y-117660883D01*
X154919815Y-117727922D01*
X154867011Y-117773677D01*
X154797853Y-117783621D01*
X154745062Y-117762934D01*
X154716582Y-117743276D01*
X154706875Y-117736576D01*
X154703887Y-117734377D01*
X154666646Y-117705201D01*
X154655060Y-117696124D01*
X154655055Y-117696120D01*
X154645813Y-117691961D01*
X154626266Y-117680936D01*
X154624657Y-117679826D01*
X154617930Y-117675182D01*
X154559938Y-117653188D01*
X154556490Y-117651759D01*
X154499930Y-117626304D01*
X154489946Y-117624474D01*
X154468343Y-117618451D01*
X154458874Y-117614860D01*
X154458870Y-117614859D01*
X154397313Y-117607384D01*
X154393612Y-117606821D01*
X154332608Y-117595642D01*
X154332603Y-117595642D01*
X154270697Y-117599387D01*
X154266952Y-117599500D01*
X153594927Y-117599500D01*
X153572576Y-117597469D01*
X153562607Y-117595642D01*
X153562603Y-117595642D01*
X153500697Y-117599387D01*
X153496952Y-117599500D01*
X152713048Y-117599500D01*
X152709303Y-117599387D01*
X152647396Y-117595642D01*
X152647392Y-117595642D01*
X152637424Y-117597469D01*
X152615073Y-117599500D01*
X151823048Y-117599500D01*
X151819303Y-117599387D01*
X151757396Y-117595642D01*
X151757389Y-117595642D01*
X151696386Y-117606821D01*
X151692685Y-117607384D01*
X151631128Y-117614859D01*
X151631121Y-117614861D01*
X151621647Y-117618454D01*
X151600049Y-117624475D01*
X151590069Y-117626304D01*
X151533519Y-117651755D01*
X151530060Y-117653188D01*
X151472071Y-117675181D01*
X151472066Y-117675184D01*
X151463722Y-117680943D01*
X151444187Y-117691961D01*
X151434947Y-117696120D01*
X151434945Y-117696121D01*
X151386136Y-117734359D01*
X151383122Y-117736576D01*
X151332070Y-117771817D01*
X151332068Y-117771818D01*
X151290942Y-117818240D01*
X151288375Y-117820966D01*
X151190966Y-117918375D01*
X151188240Y-117920942D01*
X151141818Y-117962068D01*
X151106586Y-118013109D01*
X151104368Y-118016124D01*
X151066124Y-118064939D01*
X151066119Y-118064948D01*
X151061960Y-118074188D01*
X151050942Y-118093723D01*
X151045187Y-118102061D01*
X151045183Y-118102067D01*
X151045182Y-118102070D01*
X151045180Y-118102074D01*
X151045179Y-118102077D01*
X151023189Y-118160055D01*
X151021757Y-118163513D01*
X150996305Y-118220068D01*
X150994477Y-118230042D01*
X150988453Y-118251653D01*
X150984860Y-118261127D01*
X150984859Y-118261128D01*
X150977384Y-118322685D01*
X150976821Y-118326386D01*
X150965642Y-118387390D01*
X150965642Y-118387395D01*
X150969387Y-118449302D01*
X150969500Y-118453047D01*
X150969500Y-119602870D01*
X150969501Y-119602876D01*
X150975908Y-119662483D01*
X151026202Y-119797328D01*
X151026206Y-119797335D01*
X151112452Y-119912544D01*
X151112455Y-119912547D01*
X151227664Y-119998793D01*
X151227671Y-119998797D01*
X151272618Y-120015560D01*
X151362517Y-120049091D01*
X151422127Y-120055500D01*
X151937872Y-120055499D01*
X151997483Y-120049091D01*
X152111667Y-120006502D01*
X152181358Y-120001519D01*
X152198330Y-120006502D01*
X152312517Y-120049091D01*
X152372127Y-120055500D01*
X152887872Y-120055499D01*
X152947483Y-120049091D01*
X153061668Y-120006502D01*
X153131357Y-120001519D01*
X153148332Y-120006503D01*
X153181415Y-120018842D01*
X153262517Y-120049091D01*
X153322127Y-120055500D01*
X153837872Y-120055499D01*
X153897483Y-120049091D01*
X154032331Y-119998796D01*
X154147546Y-119912546D01*
X154233796Y-119797331D01*
X154238897Y-119783656D01*
X154282011Y-119668060D01*
X154323882Y-119612126D01*
X154389346Y-119587708D01*
X154448628Y-119598112D01*
X154590197Y-119661144D01*
X154775354Y-119700500D01*
X154775355Y-119700500D01*
X154971145Y-119700500D01*
X154971144Y-119702026D01*
X155032197Y-119713182D01*
X155081984Y-119758844D01*
X155097288Y-119783656D01*
X155221344Y-119907712D01*
X155370666Y-119999814D01*
X155537203Y-120054999D01*
X155639991Y-120065500D01*
X156240008Y-120065499D01*
X156240016Y-120065498D01*
X156240019Y-120065498D01*
X156337892Y-120055500D01*
X156342797Y-120054999D01*
X156509334Y-119999814D01*
X156658656Y-119907712D01*
X156782712Y-119783656D01*
X156874814Y-119634334D01*
X156929999Y-119467797D01*
X156940500Y-119365009D01*
X156940500Y-118842606D01*
X156940500Y-117374000D01*
X156960185Y-117306961D01*
X157012989Y-117261206D01*
X157064500Y-117250000D01*
X158843805Y-117250000D01*
X158849886Y-117250299D01*
X158910921Y-117256310D01*
X159029795Y-117268018D01*
X159053623Y-117272757D01*
X159217855Y-117322576D01*
X159240307Y-117331877D01*
X159390724Y-117412276D01*
X159391652Y-117412772D01*
X159411864Y-117426277D01*
X159544520Y-117535145D01*
X159561708Y-117552333D01*
X159670576Y-117684989D01*
X159684081Y-117705201D01*
X159764975Y-117856543D01*
X159774278Y-117879001D01*
X159824094Y-118043224D01*
X159828836Y-118067064D01*
X159846055Y-118241890D01*
X159846354Y-118247971D01*
X159846354Y-120756854D01*
X159835366Y-121078511D01*
X159827746Y-121291880D01*
X159826651Y-121312291D01*
X159826415Y-121315308D01*
X159796429Y-121606997D01*
X159769238Y-121859914D01*
X159768782Y-121863518D01*
X159768372Y-121866263D01*
X159718725Y-122154217D01*
X159672275Y-122411672D01*
X159671497Y-122415343D01*
X159602649Y-122697862D01*
X159537351Y-122953698D01*
X159536372Y-122957122D01*
X159448774Y-123233121D01*
X159364938Y-123485009D01*
X159363787Y-123488175D01*
X159257809Y-123756917D01*
X159155915Y-124002909D01*
X159154625Y-124005811D01*
X159030732Y-124266324D01*
X158911268Y-124504980D01*
X158909869Y-124507614D01*
X158768621Y-124758826D01*
X158632211Y-124988729D01*
X158630734Y-124991096D01*
X158472777Y-125231923D01*
X158319366Y-125452877D01*
X158144580Y-125683367D01*
X157975747Y-125892875D01*
X157785696Y-126110834D01*
X157602284Y-126307834D01*
X157397834Y-126512284D01*
X157200834Y-126695696D01*
X156982875Y-126885747D01*
X156773367Y-127054580D01*
X156542877Y-127229366D01*
X156321923Y-127382777D01*
X156081096Y-127540734D01*
X156078729Y-127542211D01*
X155848826Y-127678621D01*
X155597614Y-127819869D01*
X155594980Y-127821268D01*
X155356324Y-127940732D01*
X155095811Y-128064625D01*
X155092909Y-128065915D01*
X154846917Y-128167809D01*
X154578175Y-128273787D01*
X154575009Y-128274938D01*
X154323121Y-128358774D01*
X154047122Y-128446372D01*
X154043698Y-128447351D01*
X153787862Y-128512649D01*
X153505343Y-128581497D01*
X153501672Y-128582275D01*
X153244217Y-128628725D01*
X152956263Y-128678372D01*
X152953518Y-128678782D01*
X152950357Y-128679181D01*
X152949891Y-128679240D01*
X152696997Y-128706429D01*
X152405308Y-128736415D01*
X152402291Y-128736651D01*
X152387443Y-128737447D01*
X152381876Y-128737746D01*
X152307504Y-128740402D01*
X152168511Y-128745366D01*
X151846854Y-128756354D01*
X147362043Y-128756354D01*
X147355952Y-128756054D01*
X147180839Y-128738779D01*
X147156963Y-128734022D01*
X146992509Y-128684052D01*
X146970025Y-128674723D01*
X146818497Y-128593580D01*
X146798274Y-128580040D01*
X146665526Y-128470855D01*
X146648333Y-128453619D01*
X146539480Y-128320605D01*
X146525985Y-128300341D01*
X146445218Y-128148617D01*
X146435949Y-128126123D01*
X146386382Y-127961535D01*
X146381685Y-127937649D01*
X146367899Y-127794275D01*
X146364354Y-127757419D01*
X146364071Y-127751333D01*
X146368121Y-126110834D01*
X146371453Y-124761058D01*
X146373887Y-124736926D01*
X146390417Y-124654753D01*
X146408982Y-124610166D01*
X146448735Y-124550870D01*
X146482934Y-124516758D01*
X146542318Y-124477159D01*
X146586957Y-124458700D01*
X146641998Y-124447769D01*
X146666648Y-124442875D01*
X146690801Y-124440500D01*
X146965240Y-124440500D01*
X146965383Y-124440528D01*
X146965384Y-124440524D01*
X146989997Y-124440539D01*
X146990000Y-124440541D01*
X146990383Y-124440383D01*
X146990500Y-124440099D01*
X146990541Y-124440000D01*
X146990540Y-124439997D01*
X146990583Y-124415889D01*
X146990500Y-124415467D01*
X146990500Y-122964759D01*
X146990528Y-122964616D01*
X146990524Y-122964616D01*
X146990539Y-122940002D01*
X146990541Y-122940000D01*
X146990462Y-122939808D01*
X146990384Y-122939618D01*
X146990382Y-122939616D01*
X146990099Y-122939500D01*
X146990000Y-122939459D01*
X146965446Y-122939459D01*
X146965240Y-122939500D01*
X146692699Y-122939500D01*
X146668471Y-122937110D01*
X146643961Y-122932226D01*
X146589823Y-122921440D01*
X146545067Y-122902869D01*
X146522070Y-122887472D01*
X146486672Y-122863772D01*
X146452452Y-122829467D01*
X146413498Y-122770974D01*
X146395037Y-122726170D01*
X146379070Y-122644980D01*
X146376739Y-122620747D01*
X146376812Y-122591142D01*
X146377130Y-122462395D01*
X146396979Y-122395408D01*
X146449895Y-122349783D01*
X146519078Y-122340010D01*
X146582562Y-122369191D01*
X146593278Y-122379731D01*
X146614128Y-122402887D01*
X146614129Y-122402888D01*
X146767265Y-122514148D01*
X146767270Y-122514151D01*
X146940191Y-122591142D01*
X146940193Y-122591142D01*
X146940197Y-122591144D01*
X147005329Y-122604987D01*
X147066809Y-122638178D01*
X147067228Y-122638596D01*
X147384270Y-122955638D01*
X147396051Y-122969270D01*
X147410388Y-122988528D01*
X147450409Y-123022111D01*
X147454397Y-123025766D01*
X147460216Y-123031585D01*
X147460220Y-123031588D01*
X147460223Y-123031591D01*
X147485959Y-123051940D01*
X147516235Y-123077345D01*
X147542067Y-123107236D01*
X147592287Y-123188655D01*
X147592288Y-123188656D01*
X147716344Y-123312712D01*
X147827669Y-123381377D01*
X147874393Y-123433323D01*
X147885616Y-123502286D01*
X147857773Y-123566368D01*
X147827669Y-123592453D01*
X147706347Y-123667285D01*
X147706343Y-123667288D01*
X147582289Y-123791342D01*
X147490187Y-123940663D01*
X147490185Y-123940668D01*
X147476519Y-123981911D01*
X147435001Y-124107203D01*
X147435001Y-124107204D01*
X147435000Y-124107204D01*
X147424500Y-124209983D01*
X147424500Y-126460001D01*
X147424501Y-126460018D01*
X147435000Y-126562796D01*
X147435001Y-126562799D01*
X147490185Y-126729331D01*
X147490187Y-126729336D01*
X147525069Y-126785888D01*
X147582288Y-126878656D01*
X147706344Y-127002712D01*
X147855666Y-127094814D01*
X147904355Y-127110948D01*
X147961799Y-127150719D01*
X147988290Y-127212464D01*
X147989313Y-127220236D01*
X148005991Y-127260499D01*
X148047302Y-127360234D01*
X148117680Y-127451952D01*
X148117689Y-127451963D01*
X148139546Y-127480448D01*
X148139547Y-127480449D01*
X148139549Y-127480451D01*
X148163053Y-127498486D01*
X148166506Y-127501136D01*
X148172609Y-127506489D01*
X148513520Y-127847400D01*
X148518861Y-127853490D01*
X148523468Y-127859494D01*
X148539548Y-127880451D01*
X148569729Y-127903610D01*
X148643521Y-127960231D01*
X148652301Y-127969605D01*
X148659767Y-127972697D01*
X148659767Y-127972698D01*
X148799764Y-128030687D01*
X148912280Y-128045500D01*
X148912281Y-128045500D01*
X148914294Y-128045765D01*
X148914313Y-128045766D01*
X148950000Y-128050465D01*
X148950001Y-128050465D01*
X148963265Y-128048718D01*
X148983682Y-128046030D01*
X148991781Y-128045500D01*
X152858219Y-128045500D01*
X152866317Y-128046030D01*
X152886734Y-128048718D01*
X152899999Y-128050465D01*
X152900000Y-128050465D01*
X152935785Y-128045754D01*
X152935809Y-128045751D01*
X152937715Y-128045500D01*
X152937720Y-128045500D01*
X153050236Y-128030687D01*
X153190233Y-127972698D01*
X153204781Y-127961535D01*
X153288358Y-127897405D01*
X153288370Y-127897394D01*
X153310449Y-127880453D01*
X153326531Y-127859494D01*
X153331138Y-127853489D01*
X153336480Y-127847398D01*
X153887061Y-127296817D01*
X153948384Y-127263333D01*
X153974742Y-127260499D01*
X154590002Y-127260499D01*
X154590008Y-127260499D01*
X154692797Y-127249999D01*
X154859334Y-127194814D01*
X155008656Y-127102712D01*
X155132712Y-126978656D01*
X155224814Y-126829334D01*
X155279999Y-126662797D01*
X155290500Y-126560009D01*
X155290499Y-125934992D01*
X155279999Y-125832203D01*
X155224814Y-125665666D01*
X155132712Y-125516344D01*
X155039049Y-125422681D01*
X155005564Y-125361358D01*
X155010548Y-125291666D01*
X155039049Y-125247319D01*
X155054445Y-125231923D01*
X155132712Y-125153656D01*
X155224814Y-125004334D01*
X155279999Y-124837797D01*
X155290500Y-124735009D01*
X155290499Y-124109992D01*
X155289068Y-124095993D01*
X155301838Y-124027300D01*
X155349719Y-123976416D01*
X155417509Y-123959495D01*
X155483685Y-123981911D01*
X155489344Y-123986129D01*
X155491338Y-123987706D01*
X155491344Y-123987712D01*
X155640666Y-124079814D01*
X155807203Y-124134999D01*
X155909991Y-124145500D01*
X156910008Y-124145499D01*
X156910016Y-124145498D01*
X156910019Y-124145498D01*
X156966302Y-124139748D01*
X157012797Y-124134999D01*
X157179334Y-124079814D01*
X157328656Y-123987712D01*
X157452712Y-123863656D01*
X157544814Y-123714334D01*
X157599999Y-123547797D01*
X157610500Y-123445009D01*
X157610499Y-122819992D01*
X157599999Y-122717203D01*
X157544814Y-122550666D01*
X157452712Y-122401344D01*
X157328656Y-122277288D01*
X157179334Y-122185186D01*
X157012797Y-122130001D01*
X157012795Y-122130000D01*
X156910010Y-122119500D01*
X155909998Y-122119500D01*
X155909980Y-122119501D01*
X155807203Y-122130000D01*
X155807200Y-122130001D01*
X155640668Y-122185185D01*
X155640663Y-122185187D01*
X155491342Y-122277289D01*
X155367289Y-122401342D01*
X155360918Y-122411672D01*
X155323170Y-122472872D01*
X155307611Y-122498097D01*
X155255663Y-122544821D01*
X155202072Y-122557000D01*
X154542242Y-122557000D01*
X154475203Y-122537315D01*
X154454561Y-122520681D01*
X154326818Y-122392938D01*
X154293333Y-122331615D01*
X154290499Y-122305257D01*
X154290499Y-121537129D01*
X154290498Y-121537123D01*
X154290497Y-121537116D01*
X154284091Y-121477517D01*
X154281101Y-121469501D01*
X154233797Y-121342671D01*
X154233793Y-121342664D01*
X154147547Y-121227455D01*
X154147544Y-121227452D01*
X154032335Y-121141206D01*
X154032328Y-121141202D01*
X153897486Y-121090910D01*
X153897485Y-121090909D01*
X153897483Y-121090909D01*
X153837873Y-121084500D01*
X153837863Y-121084500D01*
X153322129Y-121084500D01*
X153322123Y-121084501D01*
X153262516Y-121090908D01*
X153127671Y-121141202D01*
X153127664Y-121141206D01*
X153012455Y-121227452D01*
X153012452Y-121227455D01*
X152926206Y-121342664D01*
X152926202Y-121342671D01*
X152875908Y-121477517D01*
X152869501Y-121537116D01*
X152869501Y-121537123D01*
X152869500Y-121537135D01*
X152869500Y-122472870D01*
X152869501Y-122472876D01*
X152875908Y-122532483D01*
X152926202Y-122667328D01*
X152926206Y-122667335D01*
X153012452Y-122782544D01*
X153012455Y-122782547D01*
X153127664Y-122868793D01*
X153127669Y-122868796D01*
X153177746Y-122887473D01*
X153222094Y-122915974D01*
X153478181Y-123172061D01*
X153511666Y-123233384D01*
X153514500Y-123259742D01*
X153514500Y-123321414D01*
X153494815Y-123388453D01*
X153442011Y-123434208D01*
X153429505Y-123439120D01*
X153320666Y-123475186D01*
X153320663Y-123475187D01*
X153171342Y-123567289D01*
X153047289Y-123691342D01*
X152955187Y-123840663D01*
X152955185Y-123840668D01*
X152943170Y-123876927D01*
X152900001Y-124007203D01*
X152900001Y-124007204D01*
X152900000Y-124007204D01*
X152889500Y-124109983D01*
X152889500Y-124735001D01*
X152889501Y-124735019D01*
X152900000Y-124837796D01*
X152900001Y-124837799D01*
X152925009Y-124913267D01*
X152955186Y-125004334D01*
X153047288Y-125153656D01*
X153125555Y-125231923D01*
X153140951Y-125247319D01*
X153174435Y-125308643D01*
X153169451Y-125378334D01*
X153140951Y-125422681D01*
X153047287Y-125516345D01*
X152955187Y-125665663D01*
X152955185Y-125665666D01*
X152955186Y-125665666D01*
X152900001Y-125832203D01*
X152900001Y-125832204D01*
X152900000Y-125832204D01*
X152889500Y-125934983D01*
X152889500Y-126560001D01*
X152889501Y-126560019D01*
X152893394Y-126598120D01*
X152880624Y-126666812D01*
X152857720Y-126698398D01*
X152697937Y-126858182D01*
X152636616Y-126891666D01*
X152610258Y-126894500D01*
X152526803Y-126894500D01*
X152459764Y-126874815D01*
X152414009Y-126822011D01*
X152404065Y-126752853D01*
X152409097Y-126731496D01*
X152409812Y-126729336D01*
X152409814Y-126729334D01*
X152464999Y-126562797D01*
X152475500Y-126460009D01*
X152475499Y-124209992D01*
X152464999Y-124107203D01*
X152409814Y-123940666D01*
X152388961Y-123906857D01*
X152370500Y-123841761D01*
X152370500Y-122591294D01*
X152378319Y-122547958D01*
X152384090Y-122532485D01*
X152384091Y-122532483D01*
X152390500Y-122472873D01*
X152390499Y-121537128D01*
X152384091Y-121477517D01*
X152381101Y-121469501D01*
X152333797Y-121342671D01*
X152333793Y-121342664D01*
X152247547Y-121227455D01*
X152247544Y-121227452D01*
X152132335Y-121141206D01*
X152132328Y-121141202D01*
X151997486Y-121090910D01*
X151997485Y-121090909D01*
X151997483Y-121090909D01*
X151937873Y-121084500D01*
X151937863Y-121084500D01*
X151422129Y-121084500D01*
X151422123Y-121084501D01*
X151362516Y-121090908D01*
X151227671Y-121141202D01*
X151227664Y-121141206D01*
X151112455Y-121227452D01*
X151112452Y-121227455D01*
X151026206Y-121342664D01*
X151026202Y-121342671D01*
X150975908Y-121477517D01*
X150969501Y-121537116D01*
X150969501Y-121537123D01*
X150969500Y-121537135D01*
X150969500Y-123392975D01*
X150949815Y-123460014D01*
X150897011Y-123505769D01*
X150858104Y-123516333D01*
X150822201Y-123520001D01*
X150822200Y-123520001D01*
X150655668Y-123575185D01*
X150655663Y-123575187D01*
X150506342Y-123667289D01*
X150382289Y-123791342D01*
X150290187Y-123940663D01*
X150290185Y-123940668D01*
X150276519Y-123981911D01*
X150235001Y-124107203D01*
X150235001Y-124107204D01*
X150235000Y-124107204D01*
X150224500Y-124209983D01*
X150224500Y-126460001D01*
X150224501Y-126460018D01*
X150235000Y-126562796D01*
X150235001Y-126562799D01*
X150246706Y-126598120D01*
X150290186Y-126729334D01*
X150290187Y-126729335D01*
X150290903Y-126731496D01*
X150293305Y-126801324D01*
X150257573Y-126861366D01*
X150195053Y-126892559D01*
X150173197Y-126894500D01*
X149726803Y-126894500D01*
X149659764Y-126874815D01*
X149614009Y-126822011D01*
X149604065Y-126752853D01*
X149609097Y-126731496D01*
X149609812Y-126729336D01*
X149609814Y-126729334D01*
X149664999Y-126562797D01*
X149675500Y-126460009D01*
X149675499Y-124209992D01*
X149664999Y-124107203D01*
X149609814Y-123940666D01*
X149517712Y-123791344D01*
X149446818Y-123720449D01*
X149413334Y-123659125D01*
X149410500Y-123632768D01*
X149410500Y-123501057D01*
X149430185Y-123434018D01*
X149469401Y-123395520D01*
X149603656Y-123312712D01*
X149727712Y-123188656D01*
X149819814Y-123039334D01*
X149874999Y-122872797D01*
X149885500Y-122770009D01*
X149885499Y-122169992D01*
X149874999Y-122067203D01*
X149819814Y-121900666D01*
X149727712Y-121751344D01*
X149603656Y-121627288D01*
X149510888Y-121570069D01*
X149454336Y-121535187D01*
X149454331Y-121535185D01*
X149452862Y-121534698D01*
X149287797Y-121480001D01*
X149287795Y-121480000D01*
X149185016Y-121469500D01*
X148172291Y-121469500D01*
X148105252Y-121449815D01*
X148059497Y-121397011D01*
X148054360Y-121383817D01*
X148047179Y-121361716D01*
X147952533Y-121197784D01*
X147825871Y-121057112D01*
X147825870Y-121057111D01*
X147672734Y-120945851D01*
X147672729Y-120945848D01*
X147499807Y-120868857D01*
X147499802Y-120868855D01*
X147354001Y-120837865D01*
X147314646Y-120829500D01*
X147125354Y-120829500D01*
X147092897Y-120836398D01*
X146940197Y-120868855D01*
X146940192Y-120868857D01*
X146767270Y-120945848D01*
X146767265Y-120945851D01*
X146614129Y-121057111D01*
X146614125Y-121057115D01*
X146596903Y-121076241D01*
X146537415Y-121112887D01*
X146467558Y-121111554D01*
X146409512Y-121072665D01*
X146381705Y-121008567D01*
X146380758Y-120992980D01*
X146387192Y-118387390D01*
X146387530Y-118250565D01*
X146387843Y-118244495D01*
X146396008Y-118163513D01*
X146405949Y-118064911D01*
X146410734Y-118041132D01*
X146418375Y-118016124D01*
X146460803Y-117877261D01*
X146470125Y-117854872D01*
X146551162Y-117703880D01*
X146564664Y-117683740D01*
X146673558Y-117551428D01*
X146690725Y-117534303D01*
X146823310Y-117425732D01*
X146843484Y-117412280D01*
X146994668Y-117331620D01*
X147017086Y-117322351D01*
X147181082Y-117272687D01*
X147204868Y-117267962D01*
X147329211Y-117255735D01*
X147384508Y-117250298D01*
X147390579Y-117250000D01*
X154815500Y-117250000D01*
X154882539Y-117269685D01*
G37*
%TD.AperFunction*%
%TD*%
%TA.AperFunction,Conductor*%
%TO.N,AC_IN_NEUTRAL*%
G36*
X134319896Y-102772636D02*
G01*
X134464138Y-102780694D01*
X134484078Y-102781809D01*
X134505954Y-102785006D01*
X134657790Y-102821255D01*
X134678753Y-102828286D01*
X134821744Y-102890928D01*
X134841125Y-102901570D01*
X134977645Y-102993264D01*
X134982067Y-102996529D01*
X138988955Y-106241496D01*
X140325582Y-107323961D01*
X140330393Y-107328291D01*
X140466433Y-107464277D01*
X140482719Y-107484372D01*
X140582260Y-107637429D01*
X140594023Y-107660464D01*
X140663154Y-107839944D01*
X140665164Y-107846104D01*
X141995622Y-112784307D01*
X141997218Y-112792274D01*
X142016160Y-112934746D01*
X142016198Y-112967142D01*
X141999177Y-113097511D01*
X141990824Y-113128810D01*
X141940619Y-113250318D01*
X141924444Y-113278384D01*
X141844485Y-113382739D01*
X141821592Y-113405660D01*
X141717325Y-113485748D01*
X141689276Y-113501956D01*
X141567832Y-113552301D01*
X141536544Y-113560691D01*
X141394034Y-113579468D01*
X141385927Y-113580000D01*
X140932327Y-113580000D01*
X140925219Y-113579591D01*
X140898039Y-113576456D01*
X140715344Y-113555386D01*
X140687678Y-113548919D01*
X140498920Y-113481200D01*
X140473455Y-113468606D01*
X140340693Y-113382739D01*
X140296054Y-113353867D01*
X140290307Y-113349664D01*
X138020401Y-111480331D01*
X138020382Y-111480315D01*
X138020000Y-111480000D01*
X138019792Y-111479829D01*
X138019563Y-111479640D01*
X135458403Y-109374701D01*
X135452179Y-109368821D01*
X135392475Y-109304064D01*
X135373017Y-109276032D01*
X135350549Y-109231664D01*
X135348269Y-109226613D01*
X135299606Y-109104481D01*
X135293242Y-109087480D01*
X135293246Y-109087489D01*
X135293362Y-109087754D01*
X135292729Y-109082833D01*
X135282318Y-109060774D01*
X135280799Y-109057277D01*
X135262851Y-109012232D01*
X135235644Y-108943945D01*
X135235639Y-108943937D01*
X135235637Y-108943930D01*
X135187575Y-108853276D01*
X135159946Y-108801160D01*
X135159944Y-108801157D01*
X135153705Y-108789390D01*
X135148220Y-108779042D01*
X135140362Y-108763516D01*
X135141091Y-108764859D01*
X135140074Y-108760134D01*
X135127444Y-108739587D01*
X135125494Y-108736178D01*
X135070467Y-108632385D01*
X134961400Y-108471523D01*
X134954038Y-108460254D01*
X134952653Y-108455666D01*
X134938344Y-108437282D01*
X134935954Y-108433993D01*
X134872581Y-108340524D01*
X134741068Y-108185694D01*
X134739068Y-108183267D01*
X134736979Y-108180731D01*
X134734698Y-108175387D01*
X134717355Y-108157559D01*
X134714541Y-108154464D01*
X134676690Y-108109903D01*
X134644299Y-108071770D01*
X134572052Y-108003334D01*
X134492012Y-107927515D01*
X134488346Y-107921213D01*
X134467130Y-107903741D01*
X134463906Y-107900892D01*
X134388303Y-107829277D01*
X134388298Y-107829273D01*
X134219614Y-107701042D01*
X134214940Y-107694702D01*
X134190706Y-107678869D01*
X134187096Y-107676322D01*
X134107573Y-107615871D01*
X133924145Y-107505507D01*
X133918418Y-107499279D01*
X133891343Y-107485578D01*
X133887381Y-107483387D01*
X133846927Y-107459047D01*
X133805437Y-107434083D01*
X133805424Y-107434076D01*
X133609103Y-107343248D01*
X133602302Y-107337296D01*
X133572677Y-107326204D01*
X133568383Y-107324410D01*
X133485406Y-107286021D01*
X133278243Y-107216219D01*
X133270373Y-107210712D01*
X133238576Y-107202660D01*
X133233998Y-107201311D01*
X133151240Y-107173426D01*
X132935462Y-107125930D01*
X132926550Y-107121035D01*
X132892956Y-107116377D01*
X132888151Y-107115516D01*
X132836417Y-107104129D01*
X132806865Y-107097624D01*
X132806862Y-107097623D01*
X132762914Y-107092843D01*
X132742616Y-107088901D01*
X132714182Y-107080869D01*
X132696573Y-107075894D01*
X132665427Y-107062251D01*
X132587477Y-107014416D01*
X132580531Y-107009465D01*
X132515204Y-106955776D01*
X132508834Y-106949737D01*
X132435478Y-106869614D01*
X132415731Y-106840739D01*
X132373541Y-106755215D01*
X132362647Y-106721976D01*
X132343712Y-106615019D01*
X132342796Y-106606289D01*
X132290644Y-105059115D01*
X132290183Y-105040000D01*
X132290087Y-105020877D01*
X132295611Y-103805657D01*
X132295921Y-103799735D01*
X132313595Y-103624198D01*
X132318218Y-103600934D01*
X132366419Y-103440546D01*
X132375386Y-103418589D01*
X132453253Y-103270306D01*
X132466238Y-103250460D01*
X132570910Y-103119726D01*
X132587433Y-103102716D01*
X132715101Y-102994295D01*
X132734555Y-102980749D01*
X132880525Y-102898627D01*
X132902207Y-102889031D01*
X133061145Y-102836210D01*
X133084262Y-102830917D01*
X133139669Y-102823715D01*
X133259210Y-102808178D01*
X133265131Y-102807695D01*
X134314360Y-102772574D01*
X134319896Y-102772636D01*
G37*
%TD.AperFunction*%
%TD*%
%TA.AperFunction,Conductor*%
%TO.N,AC_IN_LINE*%
G36*
X118048464Y-87130394D02*
G01*
X118189729Y-87146382D01*
X118216906Y-87152613D01*
X118341095Y-87196277D01*
X118366193Y-87208425D01*
X118477484Y-87278742D01*
X118499227Y-87296189D01*
X118591989Y-87389601D01*
X118609288Y-87411473D01*
X118678818Y-87523241D01*
X118690794Y-87548431D01*
X118733587Y-87672918D01*
X118739630Y-87700144D01*
X118754631Y-87841520D01*
X118754975Y-87848500D01*
X118752926Y-88141550D01*
X118750000Y-88560000D01*
X118750079Y-88568259D01*
X118800406Y-93852698D01*
X118800164Y-93858798D01*
X118784067Y-94039350D01*
X118779527Y-94063297D01*
X118731015Y-94228390D01*
X118721878Y-94250987D01*
X118642009Y-94403399D01*
X118628629Y-94423772D01*
X118520485Y-94557622D01*
X118503377Y-94574984D01*
X118371144Y-94685089D01*
X118350971Y-94698769D01*
X118199754Y-94780881D01*
X118177294Y-94790351D01*
X118012933Y-94841296D01*
X117989056Y-94846189D01*
X117808763Y-94864951D01*
X117802667Y-94865283D01*
X117437900Y-94867196D01*
X113646751Y-94887079D01*
X113640511Y-94886796D01*
X113538353Y-94876971D01*
X113455170Y-94868971D01*
X113430618Y-94864071D01*
X113261671Y-94812156D01*
X113238603Y-94802423D01*
X113083532Y-94717630D01*
X113062891Y-94703463D01*
X112928011Y-94589248D01*
X112910635Y-94571222D01*
X112795614Y-94424813D01*
X112791994Y-94419693D01*
X110492574Y-90790790D01*
X110489778Y-90785892D01*
X110412818Y-90635542D01*
X110404365Y-90614465D01*
X110358561Y-90460805D01*
X110354098Y-90438560D01*
X110336173Y-90270596D01*
X110335832Y-90264945D01*
X110311027Y-88568259D01*
X110304878Y-88147672D01*
X110305092Y-88141565D01*
X110320486Y-87959747D01*
X110324961Y-87935641D01*
X110373272Y-87769296D01*
X110382402Y-87746550D01*
X110462519Y-87592970D01*
X110475952Y-87572463D01*
X110584734Y-87437666D01*
X110601939Y-87420208D01*
X110735135Y-87309463D01*
X110755444Y-87295732D01*
X110907824Y-87213385D01*
X110930454Y-87203914D01*
X111096063Y-87153182D01*
X111120107Y-87148353D01*
X111301669Y-87130303D01*
X111307806Y-87130000D01*
X118041486Y-87130000D01*
X118048464Y-87130394D01*
G37*
%TD.AperFunction*%
%TD*%
M02*
