%TF.GenerationSoftware,KiCad,Pcbnew,7.0.7*%
%TF.CreationDate,2023-11-04T15:45:36+01:00*%
%TF.ProjectId,LK-EU01_Smart_Socket_Base,4c4b2d45-5530-4315-9f53-6d6172745f53,rev?*%
%TF.SameCoordinates,Original*%
%TF.FileFunction,Drillmap*%
%TF.FilePolarity,Positive*%
%FSLAX45Y45*%
G04 Gerber Fmt 4.5, Leading zero omitted, Abs format (unit mm)*
G04 Created by KiCad (PCBNEW 7.0.7) date 2023-11-04 15:45:36*
%MOMM*%
%LPD*%
G01*
G04 APERTURE LIST*
%ADD10C,0.100000*%
%ADD11C,0.200000*%
G04 APERTURE END LIST*
D10*
X14027773Y-11408961D02*
X14415890Y-11408110D01*
X13890074Y-11311844D02*
G75*
G03*
X13820393Y-11318443I-31474J-38856D01*
G01*
X13826644Y-11390117D02*
X13938315Y-11480584D01*
X13938316Y-11480584D02*
G75*
G03*
X13953110Y-11488870I31494J38884D01*
G01*
X12405393Y-11525409D02*
X12405733Y-11525741D01*
X11953244Y-11887998D02*
G75*
G03*
X11988654Y-11873300I6J49989D01*
G01*
X12406323Y-11596856D02*
G75*
G03*
X12405733Y-11525741I-35443J35266D01*
G01*
X12405394Y-11525408D02*
G75*
G03*
X12335139Y-11525948I-34854J-35852D01*
G01*
X14416110Y-11508110D02*
G75*
G03*
X14466000Y-11458110I-110J50000D01*
G01*
X12034084Y-11964825D02*
X11982685Y-11984650D01*
X14001853Y-11506118D02*
G75*
G03*
X14018642Y-11508981I16677J47138D01*
G01*
X13820393Y-11318443D02*
X13819911Y-11319013D01*
X13953110Y-11488870D02*
X14001853Y-11506117D01*
X10938000Y-11938000D02*
X10938000Y-11938000D01*
X11964691Y-11988001D02*
G75*
G03*
X11982685Y-11984650I-1J49991D01*
G01*
X13890074Y-11311844D02*
X13996190Y-11397812D01*
X13819916Y-11319017D02*
G75*
G03*
X13826644Y-11390117I38204J-32253D01*
G01*
X12569500Y-10108000D02*
X13784500Y-10108000D01*
X13784500Y-10209000D01*
X12569500Y-10209000D01*
X12569500Y-10108000D01*
X10988000Y-11888000D02*
X11953244Y-11888000D01*
X13996191Y-11397810D02*
G75*
G03*
X14027773Y-11408961I31469J38831D01*
G01*
X10988000Y-11888000D02*
G75*
G03*
X10938000Y-11938000I0J-50000D01*
G01*
X11988654Y-11873300D02*
X12335139Y-11525948D01*
X12051503Y-11953473D02*
X12406324Y-11596857D01*
X10988000Y-11988000D02*
X11964691Y-11988000D01*
X12034083Y-11964823D02*
G75*
G03*
X12051503Y-11953473I-18003J46673D01*
G01*
X14018642Y-11508981D02*
X14416110Y-11508110D01*
X14466000Y-11458110D02*
G75*
G03*
X14415890Y-11408110I-50000J0D01*
G01*
X10938000Y-11938000D02*
G75*
G03*
X10988000Y-11988000I50000J0D01*
G01*
D11*
X10733462Y-13192169D02*
X10733462Y-12992169D01*
X10733462Y-12992169D02*
X10781081Y-12992169D01*
X10781081Y-12992169D02*
X10809653Y-13001693D01*
X10809653Y-13001693D02*
X10828700Y-13020741D01*
X10828700Y-13020741D02*
X10838224Y-13039788D01*
X10838224Y-13039788D02*
X10847748Y-13077883D01*
X10847748Y-13077883D02*
X10847748Y-13106455D01*
X10847748Y-13106455D02*
X10838224Y-13144550D01*
X10838224Y-13144550D02*
X10828700Y-13163598D01*
X10828700Y-13163598D02*
X10809653Y-13182645D01*
X10809653Y-13182645D02*
X10781081Y-13192169D01*
X10781081Y-13192169D02*
X10733462Y-13192169D01*
X10933462Y-13192169D02*
X10933462Y-13058836D01*
X10933462Y-13096931D02*
X10942986Y-13077883D01*
X10942986Y-13077883D02*
X10952510Y-13068360D01*
X10952510Y-13068360D02*
X10971557Y-13058836D01*
X10971557Y-13058836D02*
X10990605Y-13058836D01*
X11057272Y-13192169D02*
X11057272Y-13058836D01*
X11057272Y-12992169D02*
X11047748Y-13001693D01*
X11047748Y-13001693D02*
X11057272Y-13011217D01*
X11057272Y-13011217D02*
X11066796Y-13001693D01*
X11066796Y-13001693D02*
X11057272Y-12992169D01*
X11057272Y-12992169D02*
X11057272Y-13011217D01*
X11181081Y-13192169D02*
X11162034Y-13182645D01*
X11162034Y-13182645D02*
X11152510Y-13163598D01*
X11152510Y-13163598D02*
X11152510Y-12992169D01*
X11285843Y-13192169D02*
X11266795Y-13182645D01*
X11266795Y-13182645D02*
X11257272Y-13163598D01*
X11257272Y-13163598D02*
X11257272Y-12992169D01*
X11514415Y-13192169D02*
X11514415Y-12992169D01*
X11514415Y-12992169D02*
X11581081Y-13135026D01*
X11581081Y-13135026D02*
X11647748Y-12992169D01*
X11647748Y-12992169D02*
X11647748Y-13192169D01*
X11828700Y-13192169D02*
X11828700Y-13087407D01*
X11828700Y-13087407D02*
X11819176Y-13068360D01*
X11819176Y-13068360D02*
X11800129Y-13058836D01*
X11800129Y-13058836D02*
X11762034Y-13058836D01*
X11762034Y-13058836D02*
X11742986Y-13068360D01*
X11828700Y-13182645D02*
X11809653Y-13192169D01*
X11809653Y-13192169D02*
X11762034Y-13192169D01*
X11762034Y-13192169D02*
X11742986Y-13182645D01*
X11742986Y-13182645D02*
X11733462Y-13163598D01*
X11733462Y-13163598D02*
X11733462Y-13144550D01*
X11733462Y-13144550D02*
X11742986Y-13125502D01*
X11742986Y-13125502D02*
X11762034Y-13115979D01*
X11762034Y-13115979D02*
X11809653Y-13115979D01*
X11809653Y-13115979D02*
X11828700Y-13106455D01*
X11923938Y-13058836D02*
X11923938Y-13258836D01*
X11923938Y-13068360D02*
X11942986Y-13058836D01*
X11942986Y-13058836D02*
X11981081Y-13058836D01*
X11981081Y-13058836D02*
X12000129Y-13068360D01*
X12000129Y-13068360D02*
X12009653Y-13077883D01*
X12009653Y-13077883D02*
X12019176Y-13096931D01*
X12019176Y-13096931D02*
X12019176Y-13154074D01*
X12019176Y-13154074D02*
X12009653Y-13173121D01*
X12009653Y-13173121D02*
X12000129Y-13182645D01*
X12000129Y-13182645D02*
X11981081Y-13192169D01*
X11981081Y-13192169D02*
X11942986Y-13192169D01*
X11942986Y-13192169D02*
X11923938Y-13182645D01*
X12104891Y-13173121D02*
X12114415Y-13182645D01*
X12114415Y-13182645D02*
X12104891Y-13192169D01*
X12104891Y-13192169D02*
X12095367Y-13182645D01*
X12095367Y-13182645D02*
X12104891Y-13173121D01*
X12104891Y-13173121D02*
X12104891Y-13192169D01*
X12104891Y-13068360D02*
X12114415Y-13077883D01*
X12114415Y-13077883D02*
X12104891Y-13087407D01*
X12104891Y-13087407D02*
X12095367Y-13077883D01*
X12095367Y-13077883D02*
X12104891Y-13068360D01*
X12104891Y-13068360D02*
X12104891Y-13087407D01*
M02*
