%TF.GenerationSoftware,KiCad,Pcbnew,7.0.7*%
%TF.CreationDate,2023-11-04T15:45:33+01:00*%
%TF.ProjectId,LK-EU01_Smart_Socket_Base,4c4b2d45-5530-4315-9f53-6d6172745f53,rev?*%
%TF.SameCoordinates,Original*%
%TF.FileFunction,Soldermask,Bot*%
%TF.FilePolarity,Negative*%
%FSLAX46Y46*%
G04 Gerber Fmt 4.6, Leading zero omitted, Abs format (unit mm)*
G04 Created by KiCad (PCBNEW 7.0.7) date 2023-11-04 15:45:33*
%MOMM*%
%LPD*%
G01*
G04 APERTURE LIST*
G04 Aperture macros list*
%AMRoundRect*
0 Rectangle with rounded corners*
0 $1 Rounding radius*
0 $2 $3 $4 $5 $6 $7 $8 $9 X,Y pos of 4 corners*
0 Add a 4 corners polygon primitive as box body*
4,1,4,$2,$3,$4,$5,$6,$7,$8,$9,$2,$3,0*
0 Add four circle primitives for the rounded corners*
1,1,$1+$1,$2,$3*
1,1,$1+$1,$4,$5*
1,1,$1+$1,$6,$7*
1,1,$1+$1,$8,$9*
0 Add four rect primitives between the rounded corners*
20,1,$1+$1,$2,$3,$4,$5,0*
20,1,$1+$1,$4,$5,$6,$7,0*
20,1,$1+$1,$6,$7,$8,$9,0*
20,1,$1+$1,$8,$9,$2,$3,0*%
%AMRotRect*
0 Rectangle, with rotation*
0 The origin of the aperture is its center*
0 $1 length*
0 $2 width*
0 $3 Rotation angle, in degrees counterclockwise*
0 Add horizontal line*
21,1,$1,$2,0,0,$3*%
G04 Aperture macros list end*
%ADD10R,1.500000X6.000000*%
%ADD11RoundRect,0.250000X0.475000X-0.250000X0.475000X0.250000X-0.475000X0.250000X-0.475000X-0.250000X0*%
%ADD12C,1.600000*%
%ADD13R,2.500000X1.600000*%
%ADD14R,0.420000X0.840000*%
%ADD15R,1.875000X1.050000*%
%ADD16C,2.000000*%
%ADD17RotRect,2.000000X2.000000X315.000000*%
%ADD18C,2.286000*%
%ADD19RoundRect,0.250000X-0.250000X-0.475000X0.250000X-0.475000X0.250000X0.475000X-0.250000X0.475000X0*%
%ADD20RoundRect,0.250000X0.450000X-0.262500X0.450000X0.262500X-0.450000X0.262500X-0.450000X-0.262500X0*%
%ADD21C,2.010000*%
%ADD22C,1.200000*%
%ADD23R,1.200000X1.200000*%
%ADD24RoundRect,0.250000X-0.450000X0.262500X-0.450000X-0.262500X0.450000X-0.262500X0.450000X0.262500X0*%
%ADD25RoundRect,0.200000X-0.275000X0.200000X-0.275000X-0.200000X0.275000X-0.200000X0.275000X0.200000X0*%
%ADD26R,1.600000X1.600000*%
%ADD27RoundRect,0.250000X-0.375000X-1.075000X0.375000X-1.075000X0.375000X1.075000X-0.375000X1.075000X0*%
G04 APERTURE END LIST*
D10*
%TO.C,U1*%
X118050000Y-91790000D03*
X118050000Y-110700000D03*
X141630000Y-110690000D03*
%TD*%
D11*
%TO.C,HLC3*%
X155670000Y-114180000D03*
X155670000Y-116080000D03*
%TD*%
D12*
%TO.C,HLV1*%
X111680000Y-88300000D03*
X106680000Y-89600000D03*
%TD*%
D13*
%TO.C,AUR1*%
X152630000Y-120570000D03*
D14*
X153580000Y-119135000D03*
X152630000Y-119135000D03*
X151680000Y-119135000D03*
X151680000Y-122005000D03*
X152630000Y-122005000D03*
X153580000Y-122005000D03*
%TD*%
D15*
%TO.C,D2*%
X143378250Y-93830000D03*
X148703250Y-93830000D03*
X143378250Y-91330000D03*
X148703250Y-91330000D03*
%TD*%
D16*
%TO.C,HLL2*%
X156388393Y-82480164D03*
X151350257Y-87408698D03*
X150602138Y-76764620D03*
D17*
X145553396Y-81710832D03*
%TD*%
D16*
%TO.C,HLC2*%
X117860000Y-81030000D03*
X107860000Y-81030000D03*
%TD*%
D18*
%TO.C,U2*%
X106759581Y-115505892D03*
X114009719Y-112122328D03*
X122240946Y-120963901D03*
X116675344Y-126153908D03*
%TD*%
D19*
%TO.C,AC2*%
X157840000Y-118840000D03*
X155940000Y-118840000D03*
%TD*%
D11*
%TO.C,AC1*%
X148660000Y-120570000D03*
X148660000Y-122470000D03*
%TD*%
D20*
%TO.C,AR1*%
X156410000Y-121307500D03*
X156410000Y-123132500D03*
%TD*%
D21*
%TO.C,PF1*%
X108570000Y-100070000D03*
X107370000Y-94970000D03*
%TD*%
D22*
%TO.C,C1*%
X157030000Y-110900000D03*
D23*
X155530000Y-110900000D03*
%TD*%
D24*
%TO.C,AR3*%
X153540000Y-116022500D03*
X153540000Y-114197500D03*
%TD*%
D25*
%TO.C,ER1*%
X145750000Y-115625000D03*
X145750000Y-113975000D03*
%TD*%
%TO.C,ER2*%
X147360000Y-115615000D03*
X147360000Y-113965000D03*
%TD*%
D11*
%TO.C,HLC1*%
X151410000Y-114170000D03*
X151410000Y-116070000D03*
%TD*%
D20*
%TO.C,AR2*%
X154090000Y-124422500D03*
X154090000Y-126247500D03*
%TD*%
D24*
%TO.C,HLR1*%
X157700000Y-116022500D03*
X157700000Y-114197500D03*
%TD*%
D12*
%TO.C,C2*%
X154070000Y-93650000D03*
D26*
X156070000Y-93650000D03*
%TD*%
D27*
%TO.C,AL1*%
X151350000Y-125335000D03*
X148550000Y-125335000D03*
%TD*%
M02*
