%TF.GenerationSoftware,KiCad,Pcbnew,7.0.7*%
%TF.CreationDate,2023-11-04T15:45:33+01:00*%
%TF.ProjectId,LK-EU01_Smart_Socket_Base,4c4b2d45-5530-4315-9f53-6d6172745f53,rev?*%
%TF.SameCoordinates,Original*%
%TF.FileFunction,Profile,NP*%
%FSLAX46Y46*%
G04 Gerber Fmt 4.6, Leading zero omitted, Abs format (unit mm)*
G04 Created by KiCad (PCBNEW 7.0.7) date 2023-11-04 15:45:33*
%MOMM*%
%LPD*%
G01*
G04 APERTURE LIST*
%TA.AperFunction,Profile*%
%ADD10C,0.100000*%
%TD*%
%TA.AperFunction,Profile*%
%ADD11C,0.050000*%
%TD*%
G04 APERTURE END LIST*
D10*
X140277734Y-114089610D02*
X144158904Y-114081099D01*
X138900736Y-113118445D02*
G75*
G03*
X138203926Y-113184426I-314736J-388555D01*
G01*
X138266439Y-113901166D02*
X139383152Y-114805845D01*
X139383156Y-114805840D02*
G75*
G03*
X139531104Y-114888698I314944J388840D01*
G01*
X124053926Y-115254095D02*
X124057334Y-115257408D01*
X119532438Y-118879985D02*
G75*
G03*
X119886541Y-118733003I62J499885D01*
G01*
X124063233Y-115968560D02*
G75*
G03*
X124057334Y-115257408I-354433J352660D01*
G01*
X124053938Y-115254082D02*
G75*
G03*
X123351392Y-115259481I-348538J-358518D01*
G01*
X144161096Y-115081099D02*
G75*
G03*
X144660000Y-114581098I-1096J499999D01*
G01*
X120340839Y-119648248D02*
X119826850Y-119846501D01*
X140018530Y-115061180D02*
G75*
G03*
X140186417Y-115089810I166770J471380D01*
G01*
X138203926Y-113184426D02*
X138199110Y-113190132D01*
X139531104Y-114888698D02*
X140018532Y-115061173D01*
X109380000Y-119380000D02*
X109380000Y-119380000D01*
X119646914Y-119880011D02*
G75*
G03*
X119826850Y-119846500I-14J499911D01*
G01*
X138900736Y-113118445D02*
X139961897Y-113978119D01*
X138199158Y-113190173D02*
G75*
G03*
X138266439Y-113901166I382042J-322527D01*
G01*
X125695000Y-101080000D02*
X137845000Y-101080000D01*
X137845000Y-102090000D01*
X125695000Y-102090000D01*
X125695000Y-101080000D01*
X109880000Y-118880000D02*
X119532438Y-118880000D01*
X139961909Y-113978105D02*
G75*
G03*
X140277734Y-114089610I314691J388305D01*
G01*
X109880000Y-118880000D02*
G75*
G03*
X109380000Y-119380000I0J-500000D01*
G01*
X119886541Y-118733003D02*
X123351392Y-115259481D01*
X120515030Y-119534726D02*
X124063239Y-115968566D01*
X109880000Y-119880000D02*
X119646914Y-119880000D01*
X120340832Y-119648229D02*
G75*
G03*
X120515030Y-119534726I-180032J466729D01*
G01*
X140186417Y-115089813D02*
X144161096Y-115081097D01*
X144660002Y-114581098D02*
G75*
G03*
X144158904Y-114081099I-500002J-2D01*
G01*
X109380000Y-119380000D02*
G75*
G03*
X109880000Y-119880000I500000J0D01*
G01*
%TO.C,U1*%
X104776854Y-120756854D02*
X104776854Y-81686854D01*
X112776854Y-73686854D02*
X131711854Y-73686854D01*
D11*
X131711854Y-73686854D02*
X131710000Y-77190000D01*
X132910000Y-77190000D02*
X131710000Y-77190000D01*
X132911854Y-73686854D02*
X132910000Y-77190000D01*
X132911854Y-73686854D02*
X151846854Y-73686854D01*
D10*
X151846854Y-128756854D02*
X112776854Y-128756854D01*
X159846854Y-81686854D02*
X159846854Y-120756854D01*
X111930000Y-98390000D02*
X118160000Y-98390000D01*
X118160000Y-98390000D02*
X118160000Y-104050000D01*
X118160000Y-104050000D02*
X111930000Y-104050000D01*
X111930000Y-104050000D02*
X111930000Y-98390000D01*
D11*
X123210000Y-122940000D02*
X146990000Y-122940000D01*
X146990000Y-122940000D02*
X146990000Y-124440000D01*
X146990000Y-124440000D02*
X123210000Y-124440000D01*
X123210000Y-124440000D02*
X123210000Y-122940000D01*
D10*
X146186854Y-98386573D02*
X152890000Y-98386573D01*
X152890000Y-98386573D02*
X152890000Y-104053427D01*
X152890000Y-104053427D02*
X146186854Y-104053427D01*
X146186854Y-104053427D02*
X146186854Y-98386573D01*
X112776854Y-73686854D02*
G75*
G03*
X104776854Y-81686854I1J-8000001D01*
G01*
X104776854Y-120756854D02*
G75*
G03*
X112776854Y-128756854I8000001J1D01*
G01*
X159846846Y-81686854D02*
G75*
G03*
X151846854Y-73686854I-7999996J4D01*
G01*
X151846854Y-128756854D02*
G75*
G03*
X159846854Y-120756854I6J7999994D01*
G01*
D11*
X135531354Y-110311353D02*
G75*
G03*
X135531354Y-110311353I-3251354J0D01*
G01*
X135581354Y-92211353D02*
G75*
G03*
X135581354Y-92211353I-3251354J0D01*
G01*
%TD*%
M02*
