%TF.GenerationSoftware,KiCad,Pcbnew,7.0.7*%
%TF.CreationDate,2023-11-04T15:45:36+01:00*%
%TF.ProjectId,LK-EU01_Smart_Socket_Base,4c4b2d45-5530-4315-9f53-6d6172745f53,rev?*%
%TF.SameCoordinates,Original*%
%TF.FileFunction,Drillmap*%
%TF.FilePolarity,Positive*%
%FSLAX45Y45*%
G04 Gerber Fmt 4.5, Leading zero omitted, Abs format (unit mm)*
G04 Created by KiCad (PCBNEW 7.0.7) date 2023-11-04 15:45:36*
%MOMM*%
%LPD*%
G01*
G04 APERTURE LIST*
%ADD10C,0.100000*%
%ADD11C,0.200000*%
%ADD12C,0.040000*%
%ADD13C,0.050000*%
%ADD14C,0.060000*%
%ADD15C,0.080000*%
%ADD16C,0.101000*%
%ADD17C,0.130000*%
G04 APERTURE END LIST*
D10*
X14027773Y-11408961D02*
X14415890Y-11408110D01*
X13890074Y-11311844D02*
G75*
G03*
X13820393Y-11318443I-31474J-38856D01*
G01*
X13826644Y-11390117D02*
X13938315Y-11480584D01*
X13938316Y-11480584D02*
G75*
G03*
X13953110Y-11488870I31494J38884D01*
G01*
X12405393Y-11525409D02*
X12405733Y-11525741D01*
X11953244Y-11887998D02*
G75*
G03*
X11988654Y-11873300I6J49989D01*
G01*
X12406323Y-11596856D02*
G75*
G03*
X12405733Y-11525741I-35443J35266D01*
G01*
X12405394Y-11525408D02*
G75*
G03*
X12335139Y-11525948I-34854J-35852D01*
G01*
X14416110Y-11508110D02*
G75*
G03*
X14466000Y-11458110I-110J50000D01*
G01*
X12034084Y-11964825D02*
X11982685Y-11984650D01*
X14001853Y-11506118D02*
G75*
G03*
X14018642Y-11508981I16677J47138D01*
G01*
X13820393Y-11318443D02*
X13819911Y-11319013D01*
X13953110Y-11488870D02*
X14001853Y-11506117D01*
X10938000Y-11938000D02*
X10938000Y-11938000D01*
X11964691Y-11988001D02*
G75*
G03*
X11982685Y-11984650I-1J49991D01*
G01*
X13890074Y-11311844D02*
X13996190Y-11397812D01*
X13819916Y-11319017D02*
G75*
G03*
X13826644Y-11390117I38204J-32253D01*
G01*
X12569500Y-10108000D02*
X13784500Y-10108000D01*
X13784500Y-10209000D01*
X12569500Y-10209000D01*
X12569500Y-10108000D01*
X10988000Y-11888000D02*
X11953244Y-11888000D01*
X13996191Y-11397810D02*
G75*
G03*
X14027773Y-11408961I31469J38831D01*
G01*
X10988000Y-11888000D02*
G75*
G03*
X10938000Y-11938000I0J-50000D01*
G01*
X11988654Y-11873300D02*
X12335139Y-11525948D01*
X12051503Y-11953473D02*
X12406324Y-11596857D01*
X10988000Y-11988000D02*
X11964691Y-11988000D01*
X12034083Y-11964823D02*
G75*
G03*
X12051503Y-11953473I-18003J46673D01*
G01*
X14018642Y-11508981D02*
X14416110Y-11508110D01*
X14466000Y-11458110D02*
G75*
G03*
X14415890Y-11408110I-50000J0D01*
G01*
X10938000Y-11938000D02*
G75*
G03*
X10988000Y-11988000I50000J0D01*
G01*
D11*
D12*
X10699000Y-11760000D02*
X10739000Y-11800000D01*
X10739000Y-11760000D02*
X10699000Y-11800000D01*
X10881000Y-11624000D02*
X10921000Y-11664000D01*
X10921000Y-11624000D02*
X10881000Y-11664000D01*
X10960000Y-11785000D02*
X11000000Y-11825000D01*
X11000000Y-11785000D02*
X10960000Y-11825000D01*
X11098000Y-11644000D02*
X11138000Y-11684000D01*
X11138000Y-11644000D02*
X11098000Y-11684000D01*
X11124000Y-9026000D02*
X11164000Y-9066000D01*
X11164000Y-9026000D02*
X11124000Y-9066000D01*
X11214000Y-9190000D02*
X11254000Y-9230000D01*
X11254000Y-9190000D02*
X11214000Y-9230000D01*
X11215000Y-11791000D02*
X11255000Y-11831000D01*
X11255000Y-11791000D02*
X11215000Y-11831000D01*
X11298000Y-9355000D02*
X11338000Y-9395000D01*
X11338000Y-9355000D02*
X11298000Y-9395000D01*
X11323000Y-8770000D02*
X11363000Y-8810000D01*
X11363000Y-8770000D02*
X11323000Y-8810000D01*
X11335000Y-10775000D02*
X11375000Y-10815000D01*
X11375000Y-10775000D02*
X11335000Y-10815000D01*
X11342000Y-11644000D02*
X11382000Y-11684000D01*
X11382000Y-11644000D02*
X11342000Y-11684000D01*
X11351000Y-10985000D02*
X11391000Y-11025000D01*
X11391000Y-10985000D02*
X11351000Y-11025000D01*
X11383000Y-8998000D02*
X11423000Y-9038000D01*
X11423000Y-8998000D02*
X11383000Y-9038000D01*
X11393000Y-9144000D02*
X11433000Y-9184000D01*
X11433000Y-9144000D02*
X11393000Y-9184000D01*
X11421000Y-9411000D02*
X11461000Y-9451000D01*
X11461000Y-9411000D02*
X11421000Y-9451000D01*
X11435000Y-11770000D02*
X11475000Y-11810000D01*
X11475000Y-11770000D02*
X11435000Y-11810000D01*
X11456000Y-10854000D02*
X11496000Y-10894000D01*
X11496000Y-10854000D02*
X11456000Y-10894000D01*
X11513000Y-9278000D02*
X11553000Y-9318000D01*
X11553000Y-9278000D02*
X11513000Y-9318000D01*
X11519000Y-8911000D02*
X11559000Y-8951000D01*
X11559000Y-8911000D02*
X11519000Y-8951000D01*
X11524000Y-8764000D02*
X11564000Y-8804000D01*
X11564000Y-8764000D02*
X11524000Y-8804000D01*
X11548000Y-11640000D02*
X11588000Y-11680000D01*
X11588000Y-11640000D02*
X11548000Y-11680000D01*
X11564000Y-9087000D02*
X11604000Y-9127000D01*
X11604000Y-9087000D02*
X11564000Y-9127000D01*
X11585000Y-10982000D02*
X11625000Y-11022000D01*
X11625000Y-10982000D02*
X11585000Y-11022000D01*
X11586000Y-11283000D02*
X11626000Y-11323000D01*
X11626000Y-11283000D02*
X11586000Y-11323000D01*
X11596000Y-10781000D02*
X11636000Y-10821000D01*
X11636000Y-10781000D02*
X11596000Y-10821000D01*
X11597000Y-11130000D02*
X11637000Y-11170000D01*
X11637000Y-11130000D02*
X11597000Y-11170000D01*
X11602000Y-9406000D02*
X11642000Y-9446000D01*
X11642000Y-9406000D02*
X11602000Y-9446000D01*
X11664000Y-11798000D02*
X11704000Y-11838000D01*
X11704000Y-11798000D02*
X11664000Y-11838000D01*
X11745000Y-8764000D02*
X11785000Y-8804000D01*
X11785000Y-8764000D02*
X11745000Y-8804000D01*
X11787000Y-11648000D02*
X11827000Y-11688000D01*
X11827000Y-11648000D02*
X11787000Y-11688000D01*
X11956000Y-11731000D02*
X11996000Y-11771000D01*
X11996000Y-11731000D02*
X11956000Y-11771000D01*
X11957000Y-11531000D02*
X11997000Y-11571000D01*
X11997000Y-11531000D02*
X11957000Y-11571000D01*
X12120000Y-11562000D02*
X12160000Y-11602000D01*
X12160000Y-11562000D02*
X12120000Y-11602000D01*
X12121000Y-11385000D02*
X12161000Y-11425000D01*
X12161000Y-11385000D02*
X12121000Y-11425000D01*
X12249000Y-11258000D02*
X12289000Y-11298000D01*
X12289000Y-11258000D02*
X12249000Y-11298000D01*
X12284000Y-11410000D02*
X12324000Y-11450000D01*
X12324000Y-11410000D02*
X12284000Y-11450000D01*
X12413000Y-11084000D02*
X12453000Y-11124000D01*
X12453000Y-11084000D02*
X12413000Y-11124000D01*
X12429000Y-11244000D02*
X12469000Y-11284000D01*
X12469000Y-11244000D02*
X12429000Y-11284000D01*
X12541000Y-12647000D02*
X12581000Y-12687000D01*
X12581000Y-12647000D02*
X12541000Y-12687000D01*
X12566000Y-10938000D02*
X12606000Y-10978000D01*
X12606000Y-10938000D02*
X12566000Y-10978000D01*
X12591000Y-11094000D02*
X12631000Y-11134000D01*
X12631000Y-11094000D02*
X12591000Y-11134000D01*
X12685000Y-10791000D02*
X12725000Y-10831000D01*
X12725000Y-10791000D02*
X12685000Y-10831000D01*
X12776000Y-10939000D02*
X12816000Y-10979000D01*
X12816000Y-10939000D02*
X12776000Y-10979000D01*
X12851000Y-10571000D02*
X12891000Y-10611000D01*
X12891000Y-10571000D02*
X12851000Y-10611000D01*
X12877000Y-10725000D02*
X12917000Y-10765000D01*
X12917000Y-10725000D02*
X12877000Y-10765000D01*
X13019000Y-10606000D02*
X13059000Y-10646000D01*
X13059000Y-10606000D02*
X13019000Y-10646000D01*
X13116000Y-9754000D02*
X13156000Y-9794000D01*
X13156000Y-9754000D02*
X13116000Y-9794000D01*
X13334000Y-10613000D02*
X13374000Y-10653000D01*
X13374000Y-10613000D02*
X13334000Y-10653000D01*
X13513000Y-10389000D02*
X13553000Y-10429000D01*
X13553000Y-10389000D02*
X13513000Y-10429000D01*
X13516000Y-10559000D02*
X13556000Y-10599000D01*
X13556000Y-10559000D02*
X13516000Y-10599000D01*
X13599000Y-10830000D02*
X13639000Y-10870000D01*
X13639000Y-10830000D02*
X13599000Y-10870000D01*
X13642000Y-10490000D02*
X13682000Y-10530000D01*
X13682000Y-10490000D02*
X13642000Y-10530000D01*
X13651000Y-10662000D02*
X13691000Y-10702000D01*
X13691000Y-10662000D02*
X13651000Y-10702000D01*
X13745000Y-10936000D02*
X13785000Y-10976000D01*
X13785000Y-10936000D02*
X13745000Y-10976000D01*
X13782000Y-10591000D02*
X13822000Y-10631000D01*
X13822000Y-10591000D02*
X13782000Y-10631000D01*
X13785000Y-10771000D02*
X13825000Y-10811000D01*
X13825000Y-10771000D02*
X13785000Y-10811000D01*
X13907000Y-10898000D02*
X13947000Y-10938000D01*
X13947000Y-10898000D02*
X13907000Y-10938000D01*
X13919000Y-10710000D02*
X13959000Y-10750000D01*
X13959000Y-10710000D02*
X13919000Y-10750000D01*
X13923000Y-11090000D02*
X13963000Y-11130000D01*
X13963000Y-11090000D02*
X13923000Y-11130000D01*
X14664000Y-11905000D02*
X14704000Y-11945000D01*
X14704000Y-11905000D02*
X14664000Y-11945000D01*
X14666000Y-12761000D02*
X14706000Y-12801000D01*
X14706000Y-12761000D02*
X14666000Y-12801000D01*
X14702000Y-12153000D02*
X14742000Y-12193000D01*
X14742000Y-12153000D02*
X14702000Y-12193000D01*
X14729000Y-11713000D02*
X14769000Y-11753000D01*
X14769000Y-11713000D02*
X14729000Y-11753000D01*
X14949000Y-11709000D02*
X14989000Y-11749000D01*
X14989000Y-11709000D02*
X14949000Y-11749000D01*
X15006000Y-12039000D02*
X15046000Y-12079000D01*
X15046000Y-12039000D02*
X15006000Y-12079000D01*
X15029000Y-10737000D02*
X15069000Y-10777000D01*
X15069000Y-10737000D02*
X15029000Y-10777000D01*
X15118000Y-10639000D02*
X15158000Y-10679000D01*
X15158000Y-10639000D02*
X15118000Y-10679000D01*
X15175000Y-11709000D02*
X15215000Y-11749000D01*
X15215000Y-11709000D02*
X15175000Y-11749000D01*
X15368000Y-11708000D02*
X15408000Y-11748000D01*
X15408000Y-11708000D02*
X15368000Y-11748000D01*
X15467000Y-11860000D02*
X15507000Y-11900000D01*
X15507000Y-11860000D02*
X15467000Y-11900000D01*
X15479000Y-12072000D02*
X15519000Y-12112000D01*
X15519000Y-12072000D02*
X15479000Y-12112000D01*
X15633000Y-12509000D02*
X15673000Y-12549000D01*
X15673000Y-12509000D02*
X15633000Y-12549000D01*
X15757000Y-11705000D02*
X15797000Y-11745000D01*
X15797000Y-11705000D02*
X15757000Y-11745000D01*
X15776000Y-12060000D02*
X15816000Y-12100000D01*
X15816000Y-12060000D02*
X15776000Y-12100000D01*
D13*
X11830000Y-9179000D02*
G75*
G03*
X11830000Y-9179000I-25000J0D01*
G01*
D11*
X11830000Y-9364000D02*
X11830000Y-8994000D01*
X11830000Y-8994000D02*
G75*
G03*
X11780000Y-8994000I-25000J0D01*
G01*
X11780000Y-8994000D02*
X11780000Y-9364000D01*
X11780000Y-9364000D02*
G75*
G03*
X11830000Y-9364000I25000J0D01*
G01*
D13*
X11830000Y-11070000D02*
G75*
G03*
X11830000Y-11070000I-25000J0D01*
G01*
D11*
X11830000Y-11255000D02*
X11830000Y-10885000D01*
X11830000Y-10885000D02*
G75*
G03*
X11780000Y-10885000I-25000J0D01*
G01*
X11780000Y-10885000D02*
X11780000Y-11255000D01*
X11780000Y-11255000D02*
G75*
G03*
X11830000Y-11255000I25000J0D01*
G01*
D13*
X14188000Y-11069000D02*
G75*
G03*
X14188000Y-11069000I-25000J0D01*
G01*
D11*
X14188000Y-11254000D02*
X14188000Y-10884000D01*
X14188000Y-10884000D02*
G75*
G03*
X14138000Y-10884000I-25000J0D01*
G01*
X14138000Y-10884000D02*
X14138000Y-11254000D01*
X14138000Y-11254000D02*
G75*
G03*
X14188000Y-11254000I25000J0D01*
G01*
D14*
X10668000Y-8930000D02*
X10668000Y-8990000D01*
X10638000Y-8960000D02*
X10698000Y-8960000D01*
X11168000Y-8800000D02*
X11168000Y-8860000D01*
X11138000Y-8830000D02*
X11198000Y-8830000D01*
X15553000Y-11060000D02*
X15553000Y-11120000D01*
X15523000Y-11090000D02*
X15583000Y-11090000D01*
X15703000Y-11060000D02*
X15703000Y-11120000D01*
X15673000Y-11090000D02*
X15733000Y-11090000D01*
D15*
X15435284Y-9393285D02*
X15435284Y-9336716D01*
X15378715Y-9336716D01*
X15378715Y-9393285D01*
X15435284Y-9393285D01*
X15635284Y-9393285D02*
X15635284Y-9336716D01*
X15578715Y-9336716D01*
X15578715Y-9393285D01*
X15635284Y-9393285D01*
D10*
X10786000Y-8153000D02*
X10836000Y-8103000D01*
X10786000Y-8053000D01*
X10736000Y-8103000D01*
X10786000Y-8153000D01*
X11786000Y-8153000D02*
X11836000Y-8103000D01*
X11786000Y-8053000D01*
X11736000Y-8103000D01*
X11786000Y-8153000D01*
X14555340Y-8221083D02*
X14605340Y-8171083D01*
X14555340Y-8121083D01*
X14505340Y-8171083D01*
X14555340Y-8221083D01*
X15060214Y-7726462D02*
X15110214Y-7676462D01*
X15060214Y-7626462D01*
X15010214Y-7676462D01*
X15060214Y-7726462D01*
X15135026Y-8790870D02*
X15185026Y-8740870D01*
X15135026Y-8690870D01*
X15085026Y-8740870D01*
X15135026Y-8790870D01*
X15638839Y-8298016D02*
X15688839Y-8248016D01*
X15638839Y-8198016D01*
X15588839Y-8248016D01*
X15638839Y-8298016D01*
D16*
X10686500Y-9446500D02*
X10787500Y-9547500D01*
X10787500Y-9446500D02*
X10686500Y-9547500D01*
X10787500Y-9497000D02*
G75*
G03*
X10787500Y-9497000I-50500J0D01*
G01*
X10806500Y-9956500D02*
X10907500Y-10057500D01*
X10907500Y-9956500D02*
X10806500Y-10057500D01*
X10907500Y-10007000D02*
G75*
G03*
X10907500Y-10007000I-50500J0D01*
G01*
D17*
X10610958Y-11485589D02*
X10740958Y-11615589D01*
X10740958Y-11485589D02*
X10610958Y-11615589D01*
X10675958Y-11485589D02*
X10675958Y-11615589D01*
X10610958Y-11550589D02*
X10740958Y-11550589D01*
X11335972Y-11147233D02*
X11465972Y-11277233D01*
X11465972Y-11147233D02*
X11335972Y-11277233D01*
X11400972Y-11147233D02*
X11400972Y-11277233D01*
X11335972Y-11212233D02*
X11465972Y-11212233D01*
X11602534Y-12550391D02*
X11732534Y-12680391D01*
X11732534Y-12550391D02*
X11602534Y-12680391D01*
X11667534Y-12550391D02*
X11667534Y-12680391D01*
X11602534Y-12615391D02*
X11732534Y-12615391D01*
X12159095Y-12031390D02*
X12289095Y-12161390D01*
X12289095Y-12031390D02*
X12159095Y-12161390D01*
X12224095Y-12031390D02*
X12224095Y-12161390D01*
X12159095Y-12096390D02*
X12289095Y-12096390D01*
D11*
X10733462Y-13192169D02*
X10733462Y-12992169D01*
X10733462Y-12992169D02*
X10781081Y-12992169D01*
X10781081Y-12992169D02*
X10809653Y-13001693D01*
X10809653Y-13001693D02*
X10828700Y-13020741D01*
X10828700Y-13020741D02*
X10838224Y-13039788D01*
X10838224Y-13039788D02*
X10847748Y-13077883D01*
X10847748Y-13077883D02*
X10847748Y-13106455D01*
X10847748Y-13106455D02*
X10838224Y-13144550D01*
X10838224Y-13144550D02*
X10828700Y-13163598D01*
X10828700Y-13163598D02*
X10809653Y-13182645D01*
X10809653Y-13182645D02*
X10781081Y-13192169D01*
X10781081Y-13192169D02*
X10733462Y-13192169D01*
X10933462Y-13192169D02*
X10933462Y-13058836D01*
X10933462Y-13096931D02*
X10942986Y-13077883D01*
X10942986Y-13077883D02*
X10952510Y-13068360D01*
X10952510Y-13068360D02*
X10971557Y-13058836D01*
X10971557Y-13058836D02*
X10990605Y-13058836D01*
X11057272Y-13192169D02*
X11057272Y-13058836D01*
X11057272Y-12992169D02*
X11047748Y-13001693D01*
X11047748Y-13001693D02*
X11057272Y-13011217D01*
X11057272Y-13011217D02*
X11066796Y-13001693D01*
X11066796Y-13001693D02*
X11057272Y-12992169D01*
X11057272Y-12992169D02*
X11057272Y-13011217D01*
X11181081Y-13192169D02*
X11162034Y-13182645D01*
X11162034Y-13182645D02*
X11152510Y-13163598D01*
X11152510Y-13163598D02*
X11152510Y-12992169D01*
X11285843Y-13192169D02*
X11266795Y-13182645D01*
X11266795Y-13182645D02*
X11257272Y-13163598D01*
X11257272Y-13163598D02*
X11257272Y-12992169D01*
X11514415Y-13192169D02*
X11514415Y-12992169D01*
X11514415Y-12992169D02*
X11581081Y-13135026D01*
X11581081Y-13135026D02*
X11647748Y-12992169D01*
X11647748Y-12992169D02*
X11647748Y-13192169D01*
X11828700Y-13192169D02*
X11828700Y-13087407D01*
X11828700Y-13087407D02*
X11819176Y-13068360D01*
X11819176Y-13068360D02*
X11800129Y-13058836D01*
X11800129Y-13058836D02*
X11762034Y-13058836D01*
X11762034Y-13058836D02*
X11742986Y-13068360D01*
X11828700Y-13182645D02*
X11809653Y-13192169D01*
X11809653Y-13192169D02*
X11762034Y-13192169D01*
X11762034Y-13192169D02*
X11742986Y-13182645D01*
X11742986Y-13182645D02*
X11733462Y-13163598D01*
X11733462Y-13163598D02*
X11733462Y-13144550D01*
X11733462Y-13144550D02*
X11742986Y-13125502D01*
X11742986Y-13125502D02*
X11762034Y-13115979D01*
X11762034Y-13115979D02*
X11809653Y-13115979D01*
X11809653Y-13115979D02*
X11828700Y-13106455D01*
X11923938Y-13058836D02*
X11923938Y-13258836D01*
X11923938Y-13068360D02*
X11942986Y-13058836D01*
X11942986Y-13058836D02*
X11981081Y-13058836D01*
X11981081Y-13058836D02*
X12000129Y-13068360D01*
X12000129Y-13068360D02*
X12009653Y-13077883D01*
X12009653Y-13077883D02*
X12019176Y-13096931D01*
X12019176Y-13096931D02*
X12019176Y-13154074D01*
X12019176Y-13154074D02*
X12009653Y-13173121D01*
X12009653Y-13173121D02*
X12000129Y-13182645D01*
X12000129Y-13182645D02*
X11981081Y-13192169D01*
X11981081Y-13192169D02*
X11942986Y-13192169D01*
X11942986Y-13192169D02*
X11923938Y-13182645D01*
X12104891Y-13173121D02*
X12114415Y-13182645D01*
X12114415Y-13182645D02*
X12104891Y-13192169D01*
X12104891Y-13192169D02*
X12095367Y-13182645D01*
X12095367Y-13182645D02*
X12104891Y-13173121D01*
X12104891Y-13173121D02*
X12104891Y-13192169D01*
X12104891Y-13068360D02*
X12114415Y-13077883D01*
X12114415Y-13077883D02*
X12104891Y-13087407D01*
X12104891Y-13087407D02*
X12095367Y-13077883D01*
X12095367Y-13077883D02*
X12104891Y-13068360D01*
X12104891Y-13068360D02*
X12104891Y-13087407D01*
D12*
X10432685Y-13500685D02*
X10472685Y-13540685D01*
X10472685Y-13500685D02*
X10432685Y-13540685D01*
D11*
X10771557Y-13412169D02*
X10790605Y-13412169D01*
X10790605Y-13412169D02*
X10809653Y-13421693D01*
X10809653Y-13421693D02*
X10819177Y-13431217D01*
X10819177Y-13431217D02*
X10828700Y-13450264D01*
X10828700Y-13450264D02*
X10838224Y-13488360D01*
X10838224Y-13488360D02*
X10838224Y-13535979D01*
X10838224Y-13535979D02*
X10828700Y-13574074D01*
X10828700Y-13574074D02*
X10819177Y-13593121D01*
X10819177Y-13593121D02*
X10809653Y-13602645D01*
X10809653Y-13602645D02*
X10790605Y-13612169D01*
X10790605Y-13612169D02*
X10771557Y-13612169D01*
X10771557Y-13612169D02*
X10752510Y-13602645D01*
X10752510Y-13602645D02*
X10742986Y-13593121D01*
X10742986Y-13593121D02*
X10733462Y-13574074D01*
X10733462Y-13574074D02*
X10723938Y-13535979D01*
X10723938Y-13535979D02*
X10723938Y-13488360D01*
X10723938Y-13488360D02*
X10733462Y-13450264D01*
X10733462Y-13450264D02*
X10742986Y-13431217D01*
X10742986Y-13431217D02*
X10752510Y-13421693D01*
X10752510Y-13421693D02*
X10771557Y-13412169D01*
X10923938Y-13593121D02*
X10933462Y-13602645D01*
X10933462Y-13602645D02*
X10923938Y-13612169D01*
X10923938Y-13612169D02*
X10914415Y-13602645D01*
X10914415Y-13602645D02*
X10923938Y-13593121D01*
X10923938Y-13593121D02*
X10923938Y-13612169D01*
X11104891Y-13478836D02*
X11104891Y-13612169D01*
X11057272Y-13402645D02*
X11009653Y-13545502D01*
X11009653Y-13545502D02*
X11133462Y-13545502D01*
X11247748Y-13412169D02*
X11266796Y-13412169D01*
X11266796Y-13412169D02*
X11285843Y-13421693D01*
X11285843Y-13421693D02*
X11295367Y-13431217D01*
X11295367Y-13431217D02*
X11304891Y-13450264D01*
X11304891Y-13450264D02*
X11314415Y-13488360D01*
X11314415Y-13488360D02*
X11314415Y-13535979D01*
X11314415Y-13535979D02*
X11304891Y-13574074D01*
X11304891Y-13574074D02*
X11295367Y-13593121D01*
X11295367Y-13593121D02*
X11285843Y-13602645D01*
X11285843Y-13602645D02*
X11266796Y-13612169D01*
X11266796Y-13612169D02*
X11247748Y-13612169D01*
X11247748Y-13612169D02*
X11228700Y-13602645D01*
X11228700Y-13602645D02*
X11219176Y-13593121D01*
X11219176Y-13593121D02*
X11209653Y-13574074D01*
X11209653Y-13574074D02*
X11200129Y-13535979D01*
X11200129Y-13535979D02*
X11200129Y-13488360D01*
X11200129Y-13488360D02*
X11209653Y-13450264D01*
X11209653Y-13450264D02*
X11219176Y-13431217D01*
X11219176Y-13431217D02*
X11228700Y-13421693D01*
X11228700Y-13421693D02*
X11247748Y-13412169D01*
X11438224Y-13412169D02*
X11457272Y-13412169D01*
X11457272Y-13412169D02*
X11476319Y-13421693D01*
X11476319Y-13421693D02*
X11485843Y-13431217D01*
X11485843Y-13431217D02*
X11495367Y-13450264D01*
X11495367Y-13450264D02*
X11504891Y-13488360D01*
X11504891Y-13488360D02*
X11504891Y-13535979D01*
X11504891Y-13535979D02*
X11495367Y-13574074D01*
X11495367Y-13574074D02*
X11485843Y-13593121D01*
X11485843Y-13593121D02*
X11476319Y-13602645D01*
X11476319Y-13602645D02*
X11457272Y-13612169D01*
X11457272Y-13612169D02*
X11438224Y-13612169D01*
X11438224Y-13612169D02*
X11419176Y-13602645D01*
X11419176Y-13602645D02*
X11409653Y-13593121D01*
X11409653Y-13593121D02*
X11400129Y-13574074D01*
X11400129Y-13574074D02*
X11390605Y-13535979D01*
X11390605Y-13535979D02*
X11390605Y-13488360D01*
X11390605Y-13488360D02*
X11400129Y-13450264D01*
X11400129Y-13450264D02*
X11409653Y-13431217D01*
X11409653Y-13431217D02*
X11419176Y-13421693D01*
X11419176Y-13421693D02*
X11438224Y-13412169D01*
X11590605Y-13612169D02*
X11590605Y-13478836D01*
X11590605Y-13497883D02*
X11600129Y-13488360D01*
X11600129Y-13488360D02*
X11619176Y-13478836D01*
X11619176Y-13478836D02*
X11647748Y-13478836D01*
X11647748Y-13478836D02*
X11666796Y-13488360D01*
X11666796Y-13488360D02*
X11676319Y-13507407D01*
X11676319Y-13507407D02*
X11676319Y-13612169D01*
X11676319Y-13507407D02*
X11685843Y-13488360D01*
X11685843Y-13488360D02*
X11704891Y-13478836D01*
X11704891Y-13478836D02*
X11733462Y-13478836D01*
X11733462Y-13478836D02*
X11752510Y-13488360D01*
X11752510Y-13488360D02*
X11762034Y-13507407D01*
X11762034Y-13507407D02*
X11762034Y-13612169D01*
X11857272Y-13612169D02*
X11857272Y-13478836D01*
X11857272Y-13497883D02*
X11866796Y-13488360D01*
X11866796Y-13488360D02*
X11885843Y-13478836D01*
X11885843Y-13478836D02*
X11914415Y-13478836D01*
X11914415Y-13478836D02*
X11933462Y-13488360D01*
X11933462Y-13488360D02*
X11942986Y-13507407D01*
X11942986Y-13507407D02*
X11942986Y-13612169D01*
X11942986Y-13507407D02*
X11952510Y-13488360D01*
X11952510Y-13488360D02*
X11971557Y-13478836D01*
X11971557Y-13478836D02*
X12000129Y-13478836D01*
X12000129Y-13478836D02*
X12019177Y-13488360D01*
X12019177Y-13488360D02*
X12028700Y-13507407D01*
X12028700Y-13507407D02*
X12028700Y-13612169D01*
X12419177Y-13402645D02*
X12247748Y-13659788D01*
X12676319Y-13412169D02*
X12695367Y-13412169D01*
X12695367Y-13412169D02*
X12714415Y-13421693D01*
X12714415Y-13421693D02*
X12723939Y-13431217D01*
X12723939Y-13431217D02*
X12733462Y-13450264D01*
X12733462Y-13450264D02*
X12742986Y-13488360D01*
X12742986Y-13488360D02*
X12742986Y-13535979D01*
X12742986Y-13535979D02*
X12733462Y-13574074D01*
X12733462Y-13574074D02*
X12723939Y-13593121D01*
X12723939Y-13593121D02*
X12714415Y-13602645D01*
X12714415Y-13602645D02*
X12695367Y-13612169D01*
X12695367Y-13612169D02*
X12676319Y-13612169D01*
X12676319Y-13612169D02*
X12657272Y-13602645D01*
X12657272Y-13602645D02*
X12647748Y-13593121D01*
X12647748Y-13593121D02*
X12638224Y-13574074D01*
X12638224Y-13574074D02*
X12628700Y-13535979D01*
X12628700Y-13535979D02*
X12628700Y-13488360D01*
X12628700Y-13488360D02*
X12638224Y-13450264D01*
X12638224Y-13450264D02*
X12647748Y-13431217D01*
X12647748Y-13431217D02*
X12657272Y-13421693D01*
X12657272Y-13421693D02*
X12676319Y-13412169D01*
X12828700Y-13593121D02*
X12838224Y-13602645D01*
X12838224Y-13602645D02*
X12828700Y-13612169D01*
X12828700Y-13612169D02*
X12819177Y-13602645D01*
X12819177Y-13602645D02*
X12828700Y-13593121D01*
X12828700Y-13593121D02*
X12828700Y-13612169D01*
X12962034Y-13412169D02*
X12981081Y-13412169D01*
X12981081Y-13412169D02*
X13000129Y-13421693D01*
X13000129Y-13421693D02*
X13009653Y-13431217D01*
X13009653Y-13431217D02*
X13019177Y-13450264D01*
X13019177Y-13450264D02*
X13028700Y-13488360D01*
X13028700Y-13488360D02*
X13028700Y-13535979D01*
X13028700Y-13535979D02*
X13019177Y-13574074D01*
X13019177Y-13574074D02*
X13009653Y-13593121D01*
X13009653Y-13593121D02*
X13000129Y-13602645D01*
X13000129Y-13602645D02*
X12981081Y-13612169D01*
X12981081Y-13612169D02*
X12962034Y-13612169D01*
X12962034Y-13612169D02*
X12942986Y-13602645D01*
X12942986Y-13602645D02*
X12933462Y-13593121D01*
X12933462Y-13593121D02*
X12923939Y-13574074D01*
X12923939Y-13574074D02*
X12914415Y-13535979D01*
X12914415Y-13535979D02*
X12914415Y-13488360D01*
X12914415Y-13488360D02*
X12923939Y-13450264D01*
X12923939Y-13450264D02*
X12933462Y-13431217D01*
X12933462Y-13431217D02*
X12942986Y-13421693D01*
X12942986Y-13421693D02*
X12962034Y-13412169D01*
X13219177Y-13612169D02*
X13104891Y-13612169D01*
X13162034Y-13612169D02*
X13162034Y-13412169D01*
X13162034Y-13412169D02*
X13142986Y-13440741D01*
X13142986Y-13440741D02*
X13123939Y-13459788D01*
X13123939Y-13459788D02*
X13104891Y-13469312D01*
X13400129Y-13412169D02*
X13304891Y-13412169D01*
X13304891Y-13412169D02*
X13295367Y-13507407D01*
X13295367Y-13507407D02*
X13304891Y-13497883D01*
X13304891Y-13497883D02*
X13323939Y-13488360D01*
X13323939Y-13488360D02*
X13371558Y-13488360D01*
X13371558Y-13488360D02*
X13390605Y-13497883D01*
X13390605Y-13497883D02*
X13400129Y-13507407D01*
X13400129Y-13507407D02*
X13409653Y-13526455D01*
X13409653Y-13526455D02*
X13409653Y-13574074D01*
X13409653Y-13574074D02*
X13400129Y-13593121D01*
X13400129Y-13593121D02*
X13390605Y-13602645D01*
X13390605Y-13602645D02*
X13371558Y-13612169D01*
X13371558Y-13612169D02*
X13323939Y-13612169D01*
X13323939Y-13612169D02*
X13304891Y-13602645D01*
X13304891Y-13602645D02*
X13295367Y-13593121D01*
X13476320Y-13412169D02*
X13609653Y-13412169D01*
X13609653Y-13412169D02*
X13523939Y-13612169D01*
X13676320Y-13412169D02*
X13676320Y-13450264D01*
X13752510Y-13412169D02*
X13752510Y-13450264D01*
X14047748Y-13688360D02*
X14038224Y-13678836D01*
X14038224Y-13678836D02*
X14019177Y-13650264D01*
X14019177Y-13650264D02*
X14009653Y-13631217D01*
X14009653Y-13631217D02*
X14000129Y-13602645D01*
X14000129Y-13602645D02*
X13990605Y-13555026D01*
X13990605Y-13555026D02*
X13990605Y-13516931D01*
X13990605Y-13516931D02*
X14000129Y-13469312D01*
X14000129Y-13469312D02*
X14009653Y-13440741D01*
X14009653Y-13440741D02*
X14019177Y-13421693D01*
X14019177Y-13421693D02*
X14038224Y-13393121D01*
X14038224Y-13393121D02*
X14047748Y-13383598D01*
X14104891Y-13412169D02*
X14238224Y-13412169D01*
X14238224Y-13412169D02*
X14152510Y-13612169D01*
X14400129Y-13478836D02*
X14400129Y-13612169D01*
X14352510Y-13402645D02*
X14304891Y-13545502D01*
X14304891Y-13545502D02*
X14428701Y-13545502D01*
X14657272Y-13612169D02*
X14657272Y-13412169D01*
X14742986Y-13612169D02*
X14742986Y-13507407D01*
X14742986Y-13507407D02*
X14733463Y-13488360D01*
X14733463Y-13488360D02*
X14714415Y-13478836D01*
X14714415Y-13478836D02*
X14685843Y-13478836D01*
X14685843Y-13478836D02*
X14666796Y-13488360D01*
X14666796Y-13488360D02*
X14657272Y-13497883D01*
X14866796Y-13612169D02*
X14847748Y-13602645D01*
X14847748Y-13602645D02*
X14838224Y-13593121D01*
X14838224Y-13593121D02*
X14828701Y-13574074D01*
X14828701Y-13574074D02*
X14828701Y-13516931D01*
X14828701Y-13516931D02*
X14838224Y-13497883D01*
X14838224Y-13497883D02*
X14847748Y-13488360D01*
X14847748Y-13488360D02*
X14866796Y-13478836D01*
X14866796Y-13478836D02*
X14895367Y-13478836D01*
X14895367Y-13478836D02*
X14914415Y-13488360D01*
X14914415Y-13488360D02*
X14923939Y-13497883D01*
X14923939Y-13497883D02*
X14933463Y-13516931D01*
X14933463Y-13516931D02*
X14933463Y-13574074D01*
X14933463Y-13574074D02*
X14923939Y-13593121D01*
X14923939Y-13593121D02*
X14914415Y-13602645D01*
X14914415Y-13602645D02*
X14895367Y-13612169D01*
X14895367Y-13612169D02*
X14866796Y-13612169D01*
X15047748Y-13612169D02*
X15028701Y-13602645D01*
X15028701Y-13602645D02*
X15019177Y-13583598D01*
X15019177Y-13583598D02*
X15019177Y-13412169D01*
X15200129Y-13602645D02*
X15181082Y-13612169D01*
X15181082Y-13612169D02*
X15142986Y-13612169D01*
X15142986Y-13612169D02*
X15123939Y-13602645D01*
X15123939Y-13602645D02*
X15114415Y-13583598D01*
X15114415Y-13583598D02*
X15114415Y-13507407D01*
X15114415Y-13507407D02*
X15123939Y-13488360D01*
X15123939Y-13488360D02*
X15142986Y-13478836D01*
X15142986Y-13478836D02*
X15181082Y-13478836D01*
X15181082Y-13478836D02*
X15200129Y-13488360D01*
X15200129Y-13488360D02*
X15209653Y-13507407D01*
X15209653Y-13507407D02*
X15209653Y-13526455D01*
X15209653Y-13526455D02*
X15114415Y-13545502D01*
X15285844Y-13602645D02*
X15304891Y-13612169D01*
X15304891Y-13612169D02*
X15342986Y-13612169D01*
X15342986Y-13612169D02*
X15362034Y-13602645D01*
X15362034Y-13602645D02*
X15371558Y-13583598D01*
X15371558Y-13583598D02*
X15371558Y-13574074D01*
X15371558Y-13574074D02*
X15362034Y-13555026D01*
X15362034Y-13555026D02*
X15342986Y-13545502D01*
X15342986Y-13545502D02*
X15314415Y-13545502D01*
X15314415Y-13545502D02*
X15295367Y-13535979D01*
X15295367Y-13535979D02*
X15285844Y-13516931D01*
X15285844Y-13516931D02*
X15285844Y-13507407D01*
X15285844Y-13507407D02*
X15295367Y-13488360D01*
X15295367Y-13488360D02*
X15314415Y-13478836D01*
X15314415Y-13478836D02*
X15342986Y-13478836D01*
X15342986Y-13478836D02*
X15362034Y-13488360D01*
X15438225Y-13688360D02*
X15447748Y-13678836D01*
X15447748Y-13678836D02*
X15466796Y-13650264D01*
X15466796Y-13650264D02*
X15476320Y-13631217D01*
X15476320Y-13631217D02*
X15485844Y-13602645D01*
X15485844Y-13602645D02*
X15495367Y-13555026D01*
X15495367Y-13555026D02*
X15495367Y-13516931D01*
X15495367Y-13516931D02*
X15485844Y-13469312D01*
X15485844Y-13469312D02*
X15476320Y-13440741D01*
X15476320Y-13440741D02*
X15466796Y-13421693D01*
X15466796Y-13421693D02*
X15447748Y-13393121D01*
X15447748Y-13393121D02*
X15438225Y-13383598D01*
D13*
X10472685Y-13784685D02*
G75*
G03*
X10472685Y-13784685I-25000J0D01*
G01*
D11*
X10771557Y-13676169D02*
X10790605Y-13676169D01*
X10790605Y-13676169D02*
X10809653Y-13685693D01*
X10809653Y-13685693D02*
X10819177Y-13695217D01*
X10819177Y-13695217D02*
X10828700Y-13714264D01*
X10828700Y-13714264D02*
X10838224Y-13752360D01*
X10838224Y-13752360D02*
X10838224Y-13799979D01*
X10838224Y-13799979D02*
X10828700Y-13838074D01*
X10828700Y-13838074D02*
X10819177Y-13857121D01*
X10819177Y-13857121D02*
X10809653Y-13866645D01*
X10809653Y-13866645D02*
X10790605Y-13876169D01*
X10790605Y-13876169D02*
X10771557Y-13876169D01*
X10771557Y-13876169D02*
X10752510Y-13866645D01*
X10752510Y-13866645D02*
X10742986Y-13857121D01*
X10742986Y-13857121D02*
X10733462Y-13838074D01*
X10733462Y-13838074D02*
X10723938Y-13799979D01*
X10723938Y-13799979D02*
X10723938Y-13752360D01*
X10723938Y-13752360D02*
X10733462Y-13714264D01*
X10733462Y-13714264D02*
X10742986Y-13695217D01*
X10742986Y-13695217D02*
X10752510Y-13685693D01*
X10752510Y-13685693D02*
X10771557Y-13676169D01*
X10923938Y-13857121D02*
X10933462Y-13866645D01*
X10933462Y-13866645D02*
X10923938Y-13876169D01*
X10923938Y-13876169D02*
X10914415Y-13866645D01*
X10914415Y-13866645D02*
X10923938Y-13857121D01*
X10923938Y-13857121D02*
X10923938Y-13876169D01*
X11114415Y-13676169D02*
X11019177Y-13676169D01*
X11019177Y-13676169D02*
X11009653Y-13771407D01*
X11009653Y-13771407D02*
X11019177Y-13761883D01*
X11019177Y-13761883D02*
X11038224Y-13752360D01*
X11038224Y-13752360D02*
X11085843Y-13752360D01*
X11085843Y-13752360D02*
X11104891Y-13761883D01*
X11104891Y-13761883D02*
X11114415Y-13771407D01*
X11114415Y-13771407D02*
X11123938Y-13790455D01*
X11123938Y-13790455D02*
X11123938Y-13838074D01*
X11123938Y-13838074D02*
X11114415Y-13857121D01*
X11114415Y-13857121D02*
X11104891Y-13866645D01*
X11104891Y-13866645D02*
X11085843Y-13876169D01*
X11085843Y-13876169D02*
X11038224Y-13876169D01*
X11038224Y-13876169D02*
X11019177Y-13866645D01*
X11019177Y-13866645D02*
X11009653Y-13857121D01*
X11247748Y-13676169D02*
X11266796Y-13676169D01*
X11266796Y-13676169D02*
X11285843Y-13685693D01*
X11285843Y-13685693D02*
X11295367Y-13695217D01*
X11295367Y-13695217D02*
X11304891Y-13714264D01*
X11304891Y-13714264D02*
X11314415Y-13752360D01*
X11314415Y-13752360D02*
X11314415Y-13799979D01*
X11314415Y-13799979D02*
X11304891Y-13838074D01*
X11304891Y-13838074D02*
X11295367Y-13857121D01*
X11295367Y-13857121D02*
X11285843Y-13866645D01*
X11285843Y-13866645D02*
X11266796Y-13876169D01*
X11266796Y-13876169D02*
X11247748Y-13876169D01*
X11247748Y-13876169D02*
X11228700Y-13866645D01*
X11228700Y-13866645D02*
X11219176Y-13857121D01*
X11219176Y-13857121D02*
X11209653Y-13838074D01*
X11209653Y-13838074D02*
X11200129Y-13799979D01*
X11200129Y-13799979D02*
X11200129Y-13752360D01*
X11200129Y-13752360D02*
X11209653Y-13714264D01*
X11209653Y-13714264D02*
X11219176Y-13695217D01*
X11219176Y-13695217D02*
X11228700Y-13685693D01*
X11228700Y-13685693D02*
X11247748Y-13676169D01*
X11438224Y-13676169D02*
X11457272Y-13676169D01*
X11457272Y-13676169D02*
X11476319Y-13685693D01*
X11476319Y-13685693D02*
X11485843Y-13695217D01*
X11485843Y-13695217D02*
X11495367Y-13714264D01*
X11495367Y-13714264D02*
X11504891Y-13752360D01*
X11504891Y-13752360D02*
X11504891Y-13799979D01*
X11504891Y-13799979D02*
X11495367Y-13838074D01*
X11495367Y-13838074D02*
X11485843Y-13857121D01*
X11485843Y-13857121D02*
X11476319Y-13866645D01*
X11476319Y-13866645D02*
X11457272Y-13876169D01*
X11457272Y-13876169D02*
X11438224Y-13876169D01*
X11438224Y-13876169D02*
X11419176Y-13866645D01*
X11419176Y-13866645D02*
X11409653Y-13857121D01*
X11409653Y-13857121D02*
X11400129Y-13838074D01*
X11400129Y-13838074D02*
X11390605Y-13799979D01*
X11390605Y-13799979D02*
X11390605Y-13752360D01*
X11390605Y-13752360D02*
X11400129Y-13714264D01*
X11400129Y-13714264D02*
X11409653Y-13695217D01*
X11409653Y-13695217D02*
X11419176Y-13685693D01*
X11419176Y-13685693D02*
X11438224Y-13676169D01*
X11590605Y-13876169D02*
X11590605Y-13742836D01*
X11590605Y-13761883D02*
X11600129Y-13752360D01*
X11600129Y-13752360D02*
X11619176Y-13742836D01*
X11619176Y-13742836D02*
X11647748Y-13742836D01*
X11647748Y-13742836D02*
X11666796Y-13752360D01*
X11666796Y-13752360D02*
X11676319Y-13771407D01*
X11676319Y-13771407D02*
X11676319Y-13876169D01*
X11676319Y-13771407D02*
X11685843Y-13752360D01*
X11685843Y-13752360D02*
X11704891Y-13742836D01*
X11704891Y-13742836D02*
X11733462Y-13742836D01*
X11733462Y-13742836D02*
X11752510Y-13752360D01*
X11752510Y-13752360D02*
X11762034Y-13771407D01*
X11762034Y-13771407D02*
X11762034Y-13876169D01*
X11857272Y-13876169D02*
X11857272Y-13742836D01*
X11857272Y-13761883D02*
X11866796Y-13752360D01*
X11866796Y-13752360D02*
X11885843Y-13742836D01*
X11885843Y-13742836D02*
X11914415Y-13742836D01*
X11914415Y-13742836D02*
X11933462Y-13752360D01*
X11933462Y-13752360D02*
X11942986Y-13771407D01*
X11942986Y-13771407D02*
X11942986Y-13876169D01*
X11942986Y-13771407D02*
X11952510Y-13752360D01*
X11952510Y-13752360D02*
X11971557Y-13742836D01*
X11971557Y-13742836D02*
X12000129Y-13742836D01*
X12000129Y-13742836D02*
X12019177Y-13752360D01*
X12019177Y-13752360D02*
X12028700Y-13771407D01*
X12028700Y-13771407D02*
X12028700Y-13876169D01*
X12419177Y-13666645D02*
X12247748Y-13923788D01*
X12676319Y-13676169D02*
X12695367Y-13676169D01*
X12695367Y-13676169D02*
X12714415Y-13685693D01*
X12714415Y-13685693D02*
X12723939Y-13695217D01*
X12723939Y-13695217D02*
X12733462Y-13714264D01*
X12733462Y-13714264D02*
X12742986Y-13752360D01*
X12742986Y-13752360D02*
X12742986Y-13799979D01*
X12742986Y-13799979D02*
X12733462Y-13838074D01*
X12733462Y-13838074D02*
X12723939Y-13857121D01*
X12723939Y-13857121D02*
X12714415Y-13866645D01*
X12714415Y-13866645D02*
X12695367Y-13876169D01*
X12695367Y-13876169D02*
X12676319Y-13876169D01*
X12676319Y-13876169D02*
X12657272Y-13866645D01*
X12657272Y-13866645D02*
X12647748Y-13857121D01*
X12647748Y-13857121D02*
X12638224Y-13838074D01*
X12638224Y-13838074D02*
X12628700Y-13799979D01*
X12628700Y-13799979D02*
X12628700Y-13752360D01*
X12628700Y-13752360D02*
X12638224Y-13714264D01*
X12638224Y-13714264D02*
X12647748Y-13695217D01*
X12647748Y-13695217D02*
X12657272Y-13685693D01*
X12657272Y-13685693D02*
X12676319Y-13676169D01*
X12828700Y-13857121D02*
X12838224Y-13866645D01*
X12838224Y-13866645D02*
X12828700Y-13876169D01*
X12828700Y-13876169D02*
X12819177Y-13866645D01*
X12819177Y-13866645D02*
X12828700Y-13857121D01*
X12828700Y-13857121D02*
X12828700Y-13876169D01*
X12962034Y-13676169D02*
X12981081Y-13676169D01*
X12981081Y-13676169D02*
X13000129Y-13685693D01*
X13000129Y-13685693D02*
X13009653Y-13695217D01*
X13009653Y-13695217D02*
X13019177Y-13714264D01*
X13019177Y-13714264D02*
X13028700Y-13752360D01*
X13028700Y-13752360D02*
X13028700Y-13799979D01*
X13028700Y-13799979D02*
X13019177Y-13838074D01*
X13019177Y-13838074D02*
X13009653Y-13857121D01*
X13009653Y-13857121D02*
X13000129Y-13866645D01*
X13000129Y-13866645D02*
X12981081Y-13876169D01*
X12981081Y-13876169D02*
X12962034Y-13876169D01*
X12962034Y-13876169D02*
X12942986Y-13866645D01*
X12942986Y-13866645D02*
X12933462Y-13857121D01*
X12933462Y-13857121D02*
X12923939Y-13838074D01*
X12923939Y-13838074D02*
X12914415Y-13799979D01*
X12914415Y-13799979D02*
X12914415Y-13752360D01*
X12914415Y-13752360D02*
X12923939Y-13714264D01*
X12923939Y-13714264D02*
X12933462Y-13695217D01*
X12933462Y-13695217D02*
X12942986Y-13685693D01*
X12942986Y-13685693D02*
X12962034Y-13676169D01*
X13219177Y-13876169D02*
X13104891Y-13876169D01*
X13162034Y-13876169D02*
X13162034Y-13676169D01*
X13162034Y-13676169D02*
X13142986Y-13704741D01*
X13142986Y-13704741D02*
X13123939Y-13723788D01*
X13123939Y-13723788D02*
X13104891Y-13733312D01*
X13314415Y-13876169D02*
X13352510Y-13876169D01*
X13352510Y-13876169D02*
X13371558Y-13866645D01*
X13371558Y-13866645D02*
X13381081Y-13857121D01*
X13381081Y-13857121D02*
X13400129Y-13828550D01*
X13400129Y-13828550D02*
X13409653Y-13790455D01*
X13409653Y-13790455D02*
X13409653Y-13714264D01*
X13409653Y-13714264D02*
X13400129Y-13695217D01*
X13400129Y-13695217D02*
X13390605Y-13685693D01*
X13390605Y-13685693D02*
X13371558Y-13676169D01*
X13371558Y-13676169D02*
X13333462Y-13676169D01*
X13333462Y-13676169D02*
X13314415Y-13685693D01*
X13314415Y-13685693D02*
X13304891Y-13695217D01*
X13304891Y-13695217D02*
X13295367Y-13714264D01*
X13295367Y-13714264D02*
X13295367Y-13761883D01*
X13295367Y-13761883D02*
X13304891Y-13780931D01*
X13304891Y-13780931D02*
X13314415Y-13790455D01*
X13314415Y-13790455D02*
X13333462Y-13799979D01*
X13333462Y-13799979D02*
X13371558Y-13799979D01*
X13371558Y-13799979D02*
X13390605Y-13790455D01*
X13390605Y-13790455D02*
X13400129Y-13780931D01*
X13400129Y-13780931D02*
X13409653Y-13761883D01*
X13476320Y-13676169D02*
X13609653Y-13676169D01*
X13609653Y-13676169D02*
X13523939Y-13876169D01*
X13676320Y-13676169D02*
X13676320Y-13714264D01*
X13752510Y-13676169D02*
X13752510Y-13714264D01*
X14047748Y-13952360D02*
X14038224Y-13942836D01*
X14038224Y-13942836D02*
X14019177Y-13914264D01*
X14019177Y-13914264D02*
X14009653Y-13895217D01*
X14009653Y-13895217D02*
X14000129Y-13866645D01*
X14000129Y-13866645D02*
X13990605Y-13819026D01*
X13990605Y-13819026D02*
X13990605Y-13780931D01*
X13990605Y-13780931D02*
X14000129Y-13733312D01*
X14000129Y-13733312D02*
X14009653Y-13704741D01*
X14009653Y-13704741D02*
X14019177Y-13685693D01*
X14019177Y-13685693D02*
X14038224Y-13657121D01*
X14038224Y-13657121D02*
X14047748Y-13647598D01*
X14162034Y-13676169D02*
X14181082Y-13676169D01*
X14181082Y-13676169D02*
X14200129Y-13685693D01*
X14200129Y-13685693D02*
X14209653Y-13695217D01*
X14209653Y-13695217D02*
X14219177Y-13714264D01*
X14219177Y-13714264D02*
X14228701Y-13752360D01*
X14228701Y-13752360D02*
X14228701Y-13799979D01*
X14228701Y-13799979D02*
X14219177Y-13838074D01*
X14219177Y-13838074D02*
X14209653Y-13857121D01*
X14209653Y-13857121D02*
X14200129Y-13866645D01*
X14200129Y-13866645D02*
X14181082Y-13876169D01*
X14181082Y-13876169D02*
X14162034Y-13876169D01*
X14162034Y-13876169D02*
X14142986Y-13866645D01*
X14142986Y-13866645D02*
X14133462Y-13857121D01*
X14133462Y-13857121D02*
X14123939Y-13838074D01*
X14123939Y-13838074D02*
X14114415Y-13799979D01*
X14114415Y-13799979D02*
X14114415Y-13752360D01*
X14114415Y-13752360D02*
X14123939Y-13714264D01*
X14123939Y-13714264D02*
X14133462Y-13695217D01*
X14133462Y-13695217D02*
X14142986Y-13685693D01*
X14142986Y-13685693D02*
X14162034Y-13676169D01*
X14466796Y-13876169D02*
X14466796Y-13676169D01*
X14552510Y-13876169D02*
X14552510Y-13771407D01*
X14552510Y-13771407D02*
X14542986Y-13752360D01*
X14542986Y-13752360D02*
X14523939Y-13742836D01*
X14523939Y-13742836D02*
X14495367Y-13742836D01*
X14495367Y-13742836D02*
X14476320Y-13752360D01*
X14476320Y-13752360D02*
X14466796Y-13761883D01*
X14676320Y-13876169D02*
X14657272Y-13866645D01*
X14657272Y-13866645D02*
X14647748Y-13857121D01*
X14647748Y-13857121D02*
X14638224Y-13838074D01*
X14638224Y-13838074D02*
X14638224Y-13780931D01*
X14638224Y-13780931D02*
X14647748Y-13761883D01*
X14647748Y-13761883D02*
X14657272Y-13752360D01*
X14657272Y-13752360D02*
X14676320Y-13742836D01*
X14676320Y-13742836D02*
X14704891Y-13742836D01*
X14704891Y-13742836D02*
X14723939Y-13752360D01*
X14723939Y-13752360D02*
X14733463Y-13761883D01*
X14733463Y-13761883D02*
X14742986Y-13780931D01*
X14742986Y-13780931D02*
X14742986Y-13838074D01*
X14742986Y-13838074D02*
X14733463Y-13857121D01*
X14733463Y-13857121D02*
X14723939Y-13866645D01*
X14723939Y-13866645D02*
X14704891Y-13876169D01*
X14704891Y-13876169D02*
X14676320Y-13876169D01*
X14857272Y-13876169D02*
X14838224Y-13866645D01*
X14838224Y-13866645D02*
X14828701Y-13847598D01*
X14828701Y-13847598D02*
X14828701Y-13676169D01*
X15009653Y-13866645D02*
X14990605Y-13876169D01*
X14990605Y-13876169D02*
X14952510Y-13876169D01*
X14952510Y-13876169D02*
X14933463Y-13866645D01*
X14933463Y-13866645D02*
X14923939Y-13847598D01*
X14923939Y-13847598D02*
X14923939Y-13771407D01*
X14923939Y-13771407D02*
X14933463Y-13752360D01*
X14933463Y-13752360D02*
X14952510Y-13742836D01*
X14952510Y-13742836D02*
X14990605Y-13742836D01*
X14990605Y-13742836D02*
X15009653Y-13752360D01*
X15009653Y-13752360D02*
X15019177Y-13771407D01*
X15019177Y-13771407D02*
X15019177Y-13790455D01*
X15019177Y-13790455D02*
X14923939Y-13809502D01*
X15095367Y-13866645D02*
X15114415Y-13876169D01*
X15114415Y-13876169D02*
X15152510Y-13876169D01*
X15152510Y-13876169D02*
X15171558Y-13866645D01*
X15171558Y-13866645D02*
X15181082Y-13847598D01*
X15181082Y-13847598D02*
X15181082Y-13838074D01*
X15181082Y-13838074D02*
X15171558Y-13819026D01*
X15171558Y-13819026D02*
X15152510Y-13809502D01*
X15152510Y-13809502D02*
X15123939Y-13809502D01*
X15123939Y-13809502D02*
X15104891Y-13799979D01*
X15104891Y-13799979D02*
X15095367Y-13780931D01*
X15095367Y-13780931D02*
X15095367Y-13771407D01*
X15095367Y-13771407D02*
X15104891Y-13752360D01*
X15104891Y-13752360D02*
X15123939Y-13742836D01*
X15123939Y-13742836D02*
X15152510Y-13742836D01*
X15152510Y-13742836D02*
X15171558Y-13752360D01*
X15419177Y-13799979D02*
X15571558Y-13799979D01*
X15495367Y-13876169D02*
X15495367Y-13723788D01*
X15800129Y-13676169D02*
X15923939Y-13676169D01*
X15923939Y-13676169D02*
X15857272Y-13752360D01*
X15857272Y-13752360D02*
X15885844Y-13752360D01*
X15885844Y-13752360D02*
X15904891Y-13761883D01*
X15904891Y-13761883D02*
X15914415Y-13771407D01*
X15914415Y-13771407D02*
X15923939Y-13790455D01*
X15923939Y-13790455D02*
X15923939Y-13838074D01*
X15923939Y-13838074D02*
X15914415Y-13857121D01*
X15914415Y-13857121D02*
X15904891Y-13866645D01*
X15904891Y-13866645D02*
X15885844Y-13876169D01*
X15885844Y-13876169D02*
X15828701Y-13876169D01*
X15828701Y-13876169D02*
X15809653Y-13866645D01*
X15809653Y-13866645D02*
X15800129Y-13857121D01*
X16152510Y-13866645D02*
X16171558Y-13876169D01*
X16171558Y-13876169D02*
X16209653Y-13876169D01*
X16209653Y-13876169D02*
X16228701Y-13866645D01*
X16228701Y-13866645D02*
X16238225Y-13847598D01*
X16238225Y-13847598D02*
X16238225Y-13838074D01*
X16238225Y-13838074D02*
X16228701Y-13819026D01*
X16228701Y-13819026D02*
X16209653Y-13809502D01*
X16209653Y-13809502D02*
X16181082Y-13809502D01*
X16181082Y-13809502D02*
X16162034Y-13799979D01*
X16162034Y-13799979D02*
X16152510Y-13780931D01*
X16152510Y-13780931D02*
X16152510Y-13771407D01*
X16152510Y-13771407D02*
X16162034Y-13752360D01*
X16162034Y-13752360D02*
X16181082Y-13742836D01*
X16181082Y-13742836D02*
X16209653Y-13742836D01*
X16209653Y-13742836D02*
X16228701Y-13752360D01*
X16352510Y-13876169D02*
X16333463Y-13866645D01*
X16333463Y-13866645D02*
X16323939Y-13847598D01*
X16323939Y-13847598D02*
X16323939Y-13676169D01*
X16457272Y-13876169D02*
X16438225Y-13866645D01*
X16438225Y-13866645D02*
X16428701Y-13857121D01*
X16428701Y-13857121D02*
X16419177Y-13838074D01*
X16419177Y-13838074D02*
X16419177Y-13780931D01*
X16419177Y-13780931D02*
X16428701Y-13761883D01*
X16428701Y-13761883D02*
X16438225Y-13752360D01*
X16438225Y-13752360D02*
X16457272Y-13742836D01*
X16457272Y-13742836D02*
X16485844Y-13742836D01*
X16485844Y-13742836D02*
X16504891Y-13752360D01*
X16504891Y-13752360D02*
X16514415Y-13761883D01*
X16514415Y-13761883D02*
X16523939Y-13780931D01*
X16523939Y-13780931D02*
X16523939Y-13838074D01*
X16523939Y-13838074D02*
X16514415Y-13857121D01*
X16514415Y-13857121D02*
X16504891Y-13866645D01*
X16504891Y-13866645D02*
X16485844Y-13876169D01*
X16485844Y-13876169D02*
X16457272Y-13876169D01*
X16581082Y-13742836D02*
X16657272Y-13742836D01*
X16609653Y-13676169D02*
X16609653Y-13847598D01*
X16609653Y-13847598D02*
X16619177Y-13866645D01*
X16619177Y-13866645D02*
X16638225Y-13876169D01*
X16638225Y-13876169D02*
X16657272Y-13876169D01*
X16714415Y-13866645D02*
X16733463Y-13876169D01*
X16733463Y-13876169D02*
X16771558Y-13876169D01*
X16771558Y-13876169D02*
X16790606Y-13866645D01*
X16790606Y-13866645D02*
X16800130Y-13847598D01*
X16800130Y-13847598D02*
X16800130Y-13838074D01*
X16800130Y-13838074D02*
X16790606Y-13819026D01*
X16790606Y-13819026D02*
X16771558Y-13809502D01*
X16771558Y-13809502D02*
X16742987Y-13809502D01*
X16742987Y-13809502D02*
X16723939Y-13799979D01*
X16723939Y-13799979D02*
X16714415Y-13780931D01*
X16714415Y-13780931D02*
X16714415Y-13771407D01*
X16714415Y-13771407D02*
X16723939Y-13752360D01*
X16723939Y-13752360D02*
X16742987Y-13742836D01*
X16742987Y-13742836D02*
X16771558Y-13742836D01*
X16771558Y-13742836D02*
X16790606Y-13752360D01*
X16866796Y-13952360D02*
X16876320Y-13942836D01*
X16876320Y-13942836D02*
X16895368Y-13914264D01*
X16895368Y-13914264D02*
X16904891Y-13895217D01*
X16904891Y-13895217D02*
X16914415Y-13866645D01*
X16914415Y-13866645D02*
X16923939Y-13819026D01*
X16923939Y-13819026D02*
X16923939Y-13780931D01*
X16923939Y-13780931D02*
X16914415Y-13733312D01*
X16914415Y-13733312D02*
X16904891Y-13704741D01*
X16904891Y-13704741D02*
X16895368Y-13685693D01*
X16895368Y-13685693D02*
X16876320Y-13657121D01*
X16876320Y-13657121D02*
X16866796Y-13647598D01*
D14*
X10442685Y-14018685D02*
X10442685Y-14078685D01*
X10412685Y-14048685D02*
X10472685Y-14048685D01*
D11*
X10771557Y-13940169D02*
X10790605Y-13940169D01*
X10790605Y-13940169D02*
X10809653Y-13949693D01*
X10809653Y-13949693D02*
X10819177Y-13959217D01*
X10819177Y-13959217D02*
X10828700Y-13978264D01*
X10828700Y-13978264D02*
X10838224Y-14016360D01*
X10838224Y-14016360D02*
X10838224Y-14063979D01*
X10838224Y-14063979D02*
X10828700Y-14102074D01*
X10828700Y-14102074D02*
X10819177Y-14121121D01*
X10819177Y-14121121D02*
X10809653Y-14130645D01*
X10809653Y-14130645D02*
X10790605Y-14140169D01*
X10790605Y-14140169D02*
X10771557Y-14140169D01*
X10771557Y-14140169D02*
X10752510Y-14130645D01*
X10752510Y-14130645D02*
X10742986Y-14121121D01*
X10742986Y-14121121D02*
X10733462Y-14102074D01*
X10733462Y-14102074D02*
X10723938Y-14063979D01*
X10723938Y-14063979D02*
X10723938Y-14016360D01*
X10723938Y-14016360D02*
X10733462Y-13978264D01*
X10733462Y-13978264D02*
X10742986Y-13959217D01*
X10742986Y-13959217D02*
X10752510Y-13949693D01*
X10752510Y-13949693D02*
X10771557Y-13940169D01*
X10923938Y-14121121D02*
X10933462Y-14130645D01*
X10933462Y-14130645D02*
X10923938Y-14140169D01*
X10923938Y-14140169D02*
X10914415Y-14130645D01*
X10914415Y-14130645D02*
X10923938Y-14121121D01*
X10923938Y-14121121D02*
X10923938Y-14140169D01*
X11104891Y-13940169D02*
X11066796Y-13940169D01*
X11066796Y-13940169D02*
X11047748Y-13949693D01*
X11047748Y-13949693D02*
X11038224Y-13959217D01*
X11038224Y-13959217D02*
X11019177Y-13987788D01*
X11019177Y-13987788D02*
X11009653Y-14025883D01*
X11009653Y-14025883D02*
X11009653Y-14102074D01*
X11009653Y-14102074D02*
X11019177Y-14121121D01*
X11019177Y-14121121D02*
X11028700Y-14130645D01*
X11028700Y-14130645D02*
X11047748Y-14140169D01*
X11047748Y-14140169D02*
X11085843Y-14140169D01*
X11085843Y-14140169D02*
X11104891Y-14130645D01*
X11104891Y-14130645D02*
X11114415Y-14121121D01*
X11114415Y-14121121D02*
X11123938Y-14102074D01*
X11123938Y-14102074D02*
X11123938Y-14054455D01*
X11123938Y-14054455D02*
X11114415Y-14035407D01*
X11114415Y-14035407D02*
X11104891Y-14025883D01*
X11104891Y-14025883D02*
X11085843Y-14016360D01*
X11085843Y-14016360D02*
X11047748Y-14016360D01*
X11047748Y-14016360D02*
X11028700Y-14025883D01*
X11028700Y-14025883D02*
X11019177Y-14035407D01*
X11019177Y-14035407D02*
X11009653Y-14054455D01*
X11247748Y-13940169D02*
X11266796Y-13940169D01*
X11266796Y-13940169D02*
X11285843Y-13949693D01*
X11285843Y-13949693D02*
X11295367Y-13959217D01*
X11295367Y-13959217D02*
X11304891Y-13978264D01*
X11304891Y-13978264D02*
X11314415Y-14016360D01*
X11314415Y-14016360D02*
X11314415Y-14063979D01*
X11314415Y-14063979D02*
X11304891Y-14102074D01*
X11304891Y-14102074D02*
X11295367Y-14121121D01*
X11295367Y-14121121D02*
X11285843Y-14130645D01*
X11285843Y-14130645D02*
X11266796Y-14140169D01*
X11266796Y-14140169D02*
X11247748Y-14140169D01*
X11247748Y-14140169D02*
X11228700Y-14130645D01*
X11228700Y-14130645D02*
X11219176Y-14121121D01*
X11219176Y-14121121D02*
X11209653Y-14102074D01*
X11209653Y-14102074D02*
X11200129Y-14063979D01*
X11200129Y-14063979D02*
X11200129Y-14016360D01*
X11200129Y-14016360D02*
X11209653Y-13978264D01*
X11209653Y-13978264D02*
X11219176Y-13959217D01*
X11219176Y-13959217D02*
X11228700Y-13949693D01*
X11228700Y-13949693D02*
X11247748Y-13940169D01*
X11438224Y-13940169D02*
X11457272Y-13940169D01*
X11457272Y-13940169D02*
X11476319Y-13949693D01*
X11476319Y-13949693D02*
X11485843Y-13959217D01*
X11485843Y-13959217D02*
X11495367Y-13978264D01*
X11495367Y-13978264D02*
X11504891Y-14016360D01*
X11504891Y-14016360D02*
X11504891Y-14063979D01*
X11504891Y-14063979D02*
X11495367Y-14102074D01*
X11495367Y-14102074D02*
X11485843Y-14121121D01*
X11485843Y-14121121D02*
X11476319Y-14130645D01*
X11476319Y-14130645D02*
X11457272Y-14140169D01*
X11457272Y-14140169D02*
X11438224Y-14140169D01*
X11438224Y-14140169D02*
X11419176Y-14130645D01*
X11419176Y-14130645D02*
X11409653Y-14121121D01*
X11409653Y-14121121D02*
X11400129Y-14102074D01*
X11400129Y-14102074D02*
X11390605Y-14063979D01*
X11390605Y-14063979D02*
X11390605Y-14016360D01*
X11390605Y-14016360D02*
X11400129Y-13978264D01*
X11400129Y-13978264D02*
X11409653Y-13959217D01*
X11409653Y-13959217D02*
X11419176Y-13949693D01*
X11419176Y-13949693D02*
X11438224Y-13940169D01*
X11590605Y-14140169D02*
X11590605Y-14006836D01*
X11590605Y-14025883D02*
X11600129Y-14016360D01*
X11600129Y-14016360D02*
X11619176Y-14006836D01*
X11619176Y-14006836D02*
X11647748Y-14006836D01*
X11647748Y-14006836D02*
X11666796Y-14016360D01*
X11666796Y-14016360D02*
X11676319Y-14035407D01*
X11676319Y-14035407D02*
X11676319Y-14140169D01*
X11676319Y-14035407D02*
X11685843Y-14016360D01*
X11685843Y-14016360D02*
X11704891Y-14006836D01*
X11704891Y-14006836D02*
X11733462Y-14006836D01*
X11733462Y-14006836D02*
X11752510Y-14016360D01*
X11752510Y-14016360D02*
X11762034Y-14035407D01*
X11762034Y-14035407D02*
X11762034Y-14140169D01*
X11857272Y-14140169D02*
X11857272Y-14006836D01*
X11857272Y-14025883D02*
X11866796Y-14016360D01*
X11866796Y-14016360D02*
X11885843Y-14006836D01*
X11885843Y-14006836D02*
X11914415Y-14006836D01*
X11914415Y-14006836D02*
X11933462Y-14016360D01*
X11933462Y-14016360D02*
X11942986Y-14035407D01*
X11942986Y-14035407D02*
X11942986Y-14140169D01*
X11942986Y-14035407D02*
X11952510Y-14016360D01*
X11952510Y-14016360D02*
X11971557Y-14006836D01*
X11971557Y-14006836D02*
X12000129Y-14006836D01*
X12000129Y-14006836D02*
X12019177Y-14016360D01*
X12019177Y-14016360D02*
X12028700Y-14035407D01*
X12028700Y-14035407D02*
X12028700Y-14140169D01*
X12419177Y-13930645D02*
X12247748Y-14187788D01*
X12676319Y-13940169D02*
X12695367Y-13940169D01*
X12695367Y-13940169D02*
X12714415Y-13949693D01*
X12714415Y-13949693D02*
X12723939Y-13959217D01*
X12723939Y-13959217D02*
X12733462Y-13978264D01*
X12733462Y-13978264D02*
X12742986Y-14016360D01*
X12742986Y-14016360D02*
X12742986Y-14063979D01*
X12742986Y-14063979D02*
X12733462Y-14102074D01*
X12733462Y-14102074D02*
X12723939Y-14121121D01*
X12723939Y-14121121D02*
X12714415Y-14130645D01*
X12714415Y-14130645D02*
X12695367Y-14140169D01*
X12695367Y-14140169D02*
X12676319Y-14140169D01*
X12676319Y-14140169D02*
X12657272Y-14130645D01*
X12657272Y-14130645D02*
X12647748Y-14121121D01*
X12647748Y-14121121D02*
X12638224Y-14102074D01*
X12638224Y-14102074D02*
X12628700Y-14063979D01*
X12628700Y-14063979D02*
X12628700Y-14016360D01*
X12628700Y-14016360D02*
X12638224Y-13978264D01*
X12638224Y-13978264D02*
X12647748Y-13959217D01*
X12647748Y-13959217D02*
X12657272Y-13949693D01*
X12657272Y-13949693D02*
X12676319Y-13940169D01*
X12828700Y-14121121D02*
X12838224Y-14130645D01*
X12838224Y-14130645D02*
X12828700Y-14140169D01*
X12828700Y-14140169D02*
X12819177Y-14130645D01*
X12819177Y-14130645D02*
X12828700Y-14121121D01*
X12828700Y-14121121D02*
X12828700Y-14140169D01*
X12962034Y-13940169D02*
X12981081Y-13940169D01*
X12981081Y-13940169D02*
X13000129Y-13949693D01*
X13000129Y-13949693D02*
X13009653Y-13959217D01*
X13009653Y-13959217D02*
X13019177Y-13978264D01*
X13019177Y-13978264D02*
X13028700Y-14016360D01*
X13028700Y-14016360D02*
X13028700Y-14063979D01*
X13028700Y-14063979D02*
X13019177Y-14102074D01*
X13019177Y-14102074D02*
X13009653Y-14121121D01*
X13009653Y-14121121D02*
X13000129Y-14130645D01*
X13000129Y-14130645D02*
X12981081Y-14140169D01*
X12981081Y-14140169D02*
X12962034Y-14140169D01*
X12962034Y-14140169D02*
X12942986Y-14130645D01*
X12942986Y-14130645D02*
X12933462Y-14121121D01*
X12933462Y-14121121D02*
X12923939Y-14102074D01*
X12923939Y-14102074D02*
X12914415Y-14063979D01*
X12914415Y-14063979D02*
X12914415Y-14016360D01*
X12914415Y-14016360D02*
X12923939Y-13978264D01*
X12923939Y-13978264D02*
X12933462Y-13959217D01*
X12933462Y-13959217D02*
X12942986Y-13949693D01*
X12942986Y-13949693D02*
X12962034Y-13940169D01*
X13104891Y-13959217D02*
X13114415Y-13949693D01*
X13114415Y-13949693D02*
X13133462Y-13940169D01*
X13133462Y-13940169D02*
X13181081Y-13940169D01*
X13181081Y-13940169D02*
X13200129Y-13949693D01*
X13200129Y-13949693D02*
X13209653Y-13959217D01*
X13209653Y-13959217D02*
X13219177Y-13978264D01*
X13219177Y-13978264D02*
X13219177Y-13997312D01*
X13219177Y-13997312D02*
X13209653Y-14025883D01*
X13209653Y-14025883D02*
X13095367Y-14140169D01*
X13095367Y-14140169D02*
X13219177Y-14140169D01*
X13285843Y-13940169D02*
X13409653Y-13940169D01*
X13409653Y-13940169D02*
X13342986Y-14016360D01*
X13342986Y-14016360D02*
X13371558Y-14016360D01*
X13371558Y-14016360D02*
X13390605Y-14025883D01*
X13390605Y-14025883D02*
X13400129Y-14035407D01*
X13400129Y-14035407D02*
X13409653Y-14054455D01*
X13409653Y-14054455D02*
X13409653Y-14102074D01*
X13409653Y-14102074D02*
X13400129Y-14121121D01*
X13400129Y-14121121D02*
X13390605Y-14130645D01*
X13390605Y-14130645D02*
X13371558Y-14140169D01*
X13371558Y-14140169D02*
X13314415Y-14140169D01*
X13314415Y-14140169D02*
X13295367Y-14130645D01*
X13295367Y-14130645D02*
X13285843Y-14121121D01*
X13581081Y-13940169D02*
X13542986Y-13940169D01*
X13542986Y-13940169D02*
X13523939Y-13949693D01*
X13523939Y-13949693D02*
X13514415Y-13959217D01*
X13514415Y-13959217D02*
X13495367Y-13987788D01*
X13495367Y-13987788D02*
X13485843Y-14025883D01*
X13485843Y-14025883D02*
X13485843Y-14102074D01*
X13485843Y-14102074D02*
X13495367Y-14121121D01*
X13495367Y-14121121D02*
X13504891Y-14130645D01*
X13504891Y-14130645D02*
X13523939Y-14140169D01*
X13523939Y-14140169D02*
X13562034Y-14140169D01*
X13562034Y-14140169D02*
X13581081Y-14130645D01*
X13581081Y-14130645D02*
X13590605Y-14121121D01*
X13590605Y-14121121D02*
X13600129Y-14102074D01*
X13600129Y-14102074D02*
X13600129Y-14054455D01*
X13600129Y-14054455D02*
X13590605Y-14035407D01*
X13590605Y-14035407D02*
X13581081Y-14025883D01*
X13581081Y-14025883D02*
X13562034Y-14016360D01*
X13562034Y-14016360D02*
X13523939Y-14016360D01*
X13523939Y-14016360D02*
X13504891Y-14025883D01*
X13504891Y-14025883D02*
X13495367Y-14035407D01*
X13495367Y-14035407D02*
X13485843Y-14054455D01*
X13676320Y-13940169D02*
X13676320Y-13978264D01*
X13752510Y-13940169D02*
X13752510Y-13978264D01*
X14047748Y-14216360D02*
X14038224Y-14206836D01*
X14038224Y-14206836D02*
X14019177Y-14178264D01*
X14019177Y-14178264D02*
X14009653Y-14159217D01*
X14009653Y-14159217D02*
X14000129Y-14130645D01*
X14000129Y-14130645D02*
X13990605Y-14083026D01*
X13990605Y-14083026D02*
X13990605Y-14044931D01*
X13990605Y-14044931D02*
X14000129Y-13997312D01*
X14000129Y-13997312D02*
X14009653Y-13968741D01*
X14009653Y-13968741D02*
X14019177Y-13949693D01*
X14019177Y-13949693D02*
X14038224Y-13921121D01*
X14038224Y-13921121D02*
X14047748Y-13911598D01*
X14209653Y-14006836D02*
X14209653Y-14140169D01*
X14162034Y-13930645D02*
X14114415Y-14073502D01*
X14114415Y-14073502D02*
X14238224Y-14073502D01*
X14466796Y-14140169D02*
X14466796Y-13940169D01*
X14552510Y-14140169D02*
X14552510Y-14035407D01*
X14552510Y-14035407D02*
X14542986Y-14016360D01*
X14542986Y-14016360D02*
X14523939Y-14006836D01*
X14523939Y-14006836D02*
X14495367Y-14006836D01*
X14495367Y-14006836D02*
X14476320Y-14016360D01*
X14476320Y-14016360D02*
X14466796Y-14025883D01*
X14676320Y-14140169D02*
X14657272Y-14130645D01*
X14657272Y-14130645D02*
X14647748Y-14121121D01*
X14647748Y-14121121D02*
X14638224Y-14102074D01*
X14638224Y-14102074D02*
X14638224Y-14044931D01*
X14638224Y-14044931D02*
X14647748Y-14025883D01*
X14647748Y-14025883D02*
X14657272Y-14016360D01*
X14657272Y-14016360D02*
X14676320Y-14006836D01*
X14676320Y-14006836D02*
X14704891Y-14006836D01*
X14704891Y-14006836D02*
X14723939Y-14016360D01*
X14723939Y-14016360D02*
X14733463Y-14025883D01*
X14733463Y-14025883D02*
X14742986Y-14044931D01*
X14742986Y-14044931D02*
X14742986Y-14102074D01*
X14742986Y-14102074D02*
X14733463Y-14121121D01*
X14733463Y-14121121D02*
X14723939Y-14130645D01*
X14723939Y-14130645D02*
X14704891Y-14140169D01*
X14704891Y-14140169D02*
X14676320Y-14140169D01*
X14857272Y-14140169D02*
X14838224Y-14130645D01*
X14838224Y-14130645D02*
X14828701Y-14111598D01*
X14828701Y-14111598D02*
X14828701Y-13940169D01*
X15009653Y-14130645D02*
X14990605Y-14140169D01*
X14990605Y-14140169D02*
X14952510Y-14140169D01*
X14952510Y-14140169D02*
X14933463Y-14130645D01*
X14933463Y-14130645D02*
X14923939Y-14111598D01*
X14923939Y-14111598D02*
X14923939Y-14035407D01*
X14923939Y-14035407D02*
X14933463Y-14016360D01*
X14933463Y-14016360D02*
X14952510Y-14006836D01*
X14952510Y-14006836D02*
X14990605Y-14006836D01*
X14990605Y-14006836D02*
X15009653Y-14016360D01*
X15009653Y-14016360D02*
X15019177Y-14035407D01*
X15019177Y-14035407D02*
X15019177Y-14054455D01*
X15019177Y-14054455D02*
X14923939Y-14073502D01*
X15095367Y-14130645D02*
X15114415Y-14140169D01*
X15114415Y-14140169D02*
X15152510Y-14140169D01*
X15152510Y-14140169D02*
X15171558Y-14130645D01*
X15171558Y-14130645D02*
X15181082Y-14111598D01*
X15181082Y-14111598D02*
X15181082Y-14102074D01*
X15181082Y-14102074D02*
X15171558Y-14083026D01*
X15171558Y-14083026D02*
X15152510Y-14073502D01*
X15152510Y-14073502D02*
X15123939Y-14073502D01*
X15123939Y-14073502D02*
X15104891Y-14063979D01*
X15104891Y-14063979D02*
X15095367Y-14044931D01*
X15095367Y-14044931D02*
X15095367Y-14035407D01*
X15095367Y-14035407D02*
X15104891Y-14016360D01*
X15104891Y-14016360D02*
X15123939Y-14006836D01*
X15123939Y-14006836D02*
X15152510Y-14006836D01*
X15152510Y-14006836D02*
X15171558Y-14016360D01*
X15247748Y-14216360D02*
X15257272Y-14206836D01*
X15257272Y-14206836D02*
X15276320Y-14178264D01*
X15276320Y-14178264D02*
X15285844Y-14159217D01*
X15285844Y-14159217D02*
X15295367Y-14130645D01*
X15295367Y-14130645D02*
X15304891Y-14083026D01*
X15304891Y-14083026D02*
X15304891Y-14044931D01*
X15304891Y-14044931D02*
X15295367Y-13997312D01*
X15295367Y-13997312D02*
X15285844Y-13968741D01*
X15285844Y-13968741D02*
X15276320Y-13949693D01*
X15276320Y-13949693D02*
X15257272Y-13921121D01*
X15257272Y-13921121D02*
X15247748Y-13911598D01*
D15*
X10460970Y-14340970D02*
X10460970Y-14284401D01*
X10404401Y-14284401D01*
X10404401Y-14340970D01*
X10460970Y-14340970D01*
D11*
X10771557Y-14204169D02*
X10790605Y-14204169D01*
X10790605Y-14204169D02*
X10809653Y-14213693D01*
X10809653Y-14213693D02*
X10819177Y-14223217D01*
X10819177Y-14223217D02*
X10828700Y-14242264D01*
X10828700Y-14242264D02*
X10838224Y-14280360D01*
X10838224Y-14280360D02*
X10838224Y-14327979D01*
X10838224Y-14327979D02*
X10828700Y-14366074D01*
X10828700Y-14366074D02*
X10819177Y-14385121D01*
X10819177Y-14385121D02*
X10809653Y-14394645D01*
X10809653Y-14394645D02*
X10790605Y-14404169D01*
X10790605Y-14404169D02*
X10771557Y-14404169D01*
X10771557Y-14404169D02*
X10752510Y-14394645D01*
X10752510Y-14394645D02*
X10742986Y-14385121D01*
X10742986Y-14385121D02*
X10733462Y-14366074D01*
X10733462Y-14366074D02*
X10723938Y-14327979D01*
X10723938Y-14327979D02*
X10723938Y-14280360D01*
X10723938Y-14280360D02*
X10733462Y-14242264D01*
X10733462Y-14242264D02*
X10742986Y-14223217D01*
X10742986Y-14223217D02*
X10752510Y-14213693D01*
X10752510Y-14213693D02*
X10771557Y-14204169D01*
X10923938Y-14385121D02*
X10933462Y-14394645D01*
X10933462Y-14394645D02*
X10923938Y-14404169D01*
X10923938Y-14404169D02*
X10914415Y-14394645D01*
X10914415Y-14394645D02*
X10923938Y-14385121D01*
X10923938Y-14385121D02*
X10923938Y-14404169D01*
X11047748Y-14289883D02*
X11028700Y-14280360D01*
X11028700Y-14280360D02*
X11019177Y-14270836D01*
X11019177Y-14270836D02*
X11009653Y-14251788D01*
X11009653Y-14251788D02*
X11009653Y-14242264D01*
X11009653Y-14242264D02*
X11019177Y-14223217D01*
X11019177Y-14223217D02*
X11028700Y-14213693D01*
X11028700Y-14213693D02*
X11047748Y-14204169D01*
X11047748Y-14204169D02*
X11085843Y-14204169D01*
X11085843Y-14204169D02*
X11104891Y-14213693D01*
X11104891Y-14213693D02*
X11114415Y-14223217D01*
X11114415Y-14223217D02*
X11123938Y-14242264D01*
X11123938Y-14242264D02*
X11123938Y-14251788D01*
X11123938Y-14251788D02*
X11114415Y-14270836D01*
X11114415Y-14270836D02*
X11104891Y-14280360D01*
X11104891Y-14280360D02*
X11085843Y-14289883D01*
X11085843Y-14289883D02*
X11047748Y-14289883D01*
X11047748Y-14289883D02*
X11028700Y-14299407D01*
X11028700Y-14299407D02*
X11019177Y-14308931D01*
X11019177Y-14308931D02*
X11009653Y-14327979D01*
X11009653Y-14327979D02*
X11009653Y-14366074D01*
X11009653Y-14366074D02*
X11019177Y-14385121D01*
X11019177Y-14385121D02*
X11028700Y-14394645D01*
X11028700Y-14394645D02*
X11047748Y-14404169D01*
X11047748Y-14404169D02*
X11085843Y-14404169D01*
X11085843Y-14404169D02*
X11104891Y-14394645D01*
X11104891Y-14394645D02*
X11114415Y-14385121D01*
X11114415Y-14385121D02*
X11123938Y-14366074D01*
X11123938Y-14366074D02*
X11123938Y-14327979D01*
X11123938Y-14327979D02*
X11114415Y-14308931D01*
X11114415Y-14308931D02*
X11104891Y-14299407D01*
X11104891Y-14299407D02*
X11085843Y-14289883D01*
X11247748Y-14204169D02*
X11266796Y-14204169D01*
X11266796Y-14204169D02*
X11285843Y-14213693D01*
X11285843Y-14213693D02*
X11295367Y-14223217D01*
X11295367Y-14223217D02*
X11304891Y-14242264D01*
X11304891Y-14242264D02*
X11314415Y-14280360D01*
X11314415Y-14280360D02*
X11314415Y-14327979D01*
X11314415Y-14327979D02*
X11304891Y-14366074D01*
X11304891Y-14366074D02*
X11295367Y-14385121D01*
X11295367Y-14385121D02*
X11285843Y-14394645D01*
X11285843Y-14394645D02*
X11266796Y-14404169D01*
X11266796Y-14404169D02*
X11247748Y-14404169D01*
X11247748Y-14404169D02*
X11228700Y-14394645D01*
X11228700Y-14394645D02*
X11219176Y-14385121D01*
X11219176Y-14385121D02*
X11209653Y-14366074D01*
X11209653Y-14366074D02*
X11200129Y-14327979D01*
X11200129Y-14327979D02*
X11200129Y-14280360D01*
X11200129Y-14280360D02*
X11209653Y-14242264D01*
X11209653Y-14242264D02*
X11219176Y-14223217D01*
X11219176Y-14223217D02*
X11228700Y-14213693D01*
X11228700Y-14213693D02*
X11247748Y-14204169D01*
X11438224Y-14204169D02*
X11457272Y-14204169D01*
X11457272Y-14204169D02*
X11476319Y-14213693D01*
X11476319Y-14213693D02*
X11485843Y-14223217D01*
X11485843Y-14223217D02*
X11495367Y-14242264D01*
X11495367Y-14242264D02*
X11504891Y-14280360D01*
X11504891Y-14280360D02*
X11504891Y-14327979D01*
X11504891Y-14327979D02*
X11495367Y-14366074D01*
X11495367Y-14366074D02*
X11485843Y-14385121D01*
X11485843Y-14385121D02*
X11476319Y-14394645D01*
X11476319Y-14394645D02*
X11457272Y-14404169D01*
X11457272Y-14404169D02*
X11438224Y-14404169D01*
X11438224Y-14404169D02*
X11419176Y-14394645D01*
X11419176Y-14394645D02*
X11409653Y-14385121D01*
X11409653Y-14385121D02*
X11400129Y-14366074D01*
X11400129Y-14366074D02*
X11390605Y-14327979D01*
X11390605Y-14327979D02*
X11390605Y-14280360D01*
X11390605Y-14280360D02*
X11400129Y-14242264D01*
X11400129Y-14242264D02*
X11409653Y-14223217D01*
X11409653Y-14223217D02*
X11419176Y-14213693D01*
X11419176Y-14213693D02*
X11438224Y-14204169D01*
X11590605Y-14404169D02*
X11590605Y-14270836D01*
X11590605Y-14289883D02*
X11600129Y-14280360D01*
X11600129Y-14280360D02*
X11619176Y-14270836D01*
X11619176Y-14270836D02*
X11647748Y-14270836D01*
X11647748Y-14270836D02*
X11666796Y-14280360D01*
X11666796Y-14280360D02*
X11676319Y-14299407D01*
X11676319Y-14299407D02*
X11676319Y-14404169D01*
X11676319Y-14299407D02*
X11685843Y-14280360D01*
X11685843Y-14280360D02*
X11704891Y-14270836D01*
X11704891Y-14270836D02*
X11733462Y-14270836D01*
X11733462Y-14270836D02*
X11752510Y-14280360D01*
X11752510Y-14280360D02*
X11762034Y-14299407D01*
X11762034Y-14299407D02*
X11762034Y-14404169D01*
X11857272Y-14404169D02*
X11857272Y-14270836D01*
X11857272Y-14289883D02*
X11866796Y-14280360D01*
X11866796Y-14280360D02*
X11885843Y-14270836D01*
X11885843Y-14270836D02*
X11914415Y-14270836D01*
X11914415Y-14270836D02*
X11933462Y-14280360D01*
X11933462Y-14280360D02*
X11942986Y-14299407D01*
X11942986Y-14299407D02*
X11942986Y-14404169D01*
X11942986Y-14299407D02*
X11952510Y-14280360D01*
X11952510Y-14280360D02*
X11971557Y-14270836D01*
X11971557Y-14270836D02*
X12000129Y-14270836D01*
X12000129Y-14270836D02*
X12019177Y-14280360D01*
X12019177Y-14280360D02*
X12028700Y-14299407D01*
X12028700Y-14299407D02*
X12028700Y-14404169D01*
X12419177Y-14194645D02*
X12247748Y-14451788D01*
X12676319Y-14204169D02*
X12695367Y-14204169D01*
X12695367Y-14204169D02*
X12714415Y-14213693D01*
X12714415Y-14213693D02*
X12723939Y-14223217D01*
X12723939Y-14223217D02*
X12733462Y-14242264D01*
X12733462Y-14242264D02*
X12742986Y-14280360D01*
X12742986Y-14280360D02*
X12742986Y-14327979D01*
X12742986Y-14327979D02*
X12733462Y-14366074D01*
X12733462Y-14366074D02*
X12723939Y-14385121D01*
X12723939Y-14385121D02*
X12714415Y-14394645D01*
X12714415Y-14394645D02*
X12695367Y-14404169D01*
X12695367Y-14404169D02*
X12676319Y-14404169D01*
X12676319Y-14404169D02*
X12657272Y-14394645D01*
X12657272Y-14394645D02*
X12647748Y-14385121D01*
X12647748Y-14385121D02*
X12638224Y-14366074D01*
X12638224Y-14366074D02*
X12628700Y-14327979D01*
X12628700Y-14327979D02*
X12628700Y-14280360D01*
X12628700Y-14280360D02*
X12638224Y-14242264D01*
X12638224Y-14242264D02*
X12647748Y-14223217D01*
X12647748Y-14223217D02*
X12657272Y-14213693D01*
X12657272Y-14213693D02*
X12676319Y-14204169D01*
X12828700Y-14385121D02*
X12838224Y-14394645D01*
X12838224Y-14394645D02*
X12828700Y-14404169D01*
X12828700Y-14404169D02*
X12819177Y-14394645D01*
X12819177Y-14394645D02*
X12828700Y-14385121D01*
X12828700Y-14385121D02*
X12828700Y-14404169D01*
X12962034Y-14204169D02*
X12981081Y-14204169D01*
X12981081Y-14204169D02*
X13000129Y-14213693D01*
X13000129Y-14213693D02*
X13009653Y-14223217D01*
X13009653Y-14223217D02*
X13019177Y-14242264D01*
X13019177Y-14242264D02*
X13028700Y-14280360D01*
X13028700Y-14280360D02*
X13028700Y-14327979D01*
X13028700Y-14327979D02*
X13019177Y-14366074D01*
X13019177Y-14366074D02*
X13009653Y-14385121D01*
X13009653Y-14385121D02*
X13000129Y-14394645D01*
X13000129Y-14394645D02*
X12981081Y-14404169D01*
X12981081Y-14404169D02*
X12962034Y-14404169D01*
X12962034Y-14404169D02*
X12942986Y-14394645D01*
X12942986Y-14394645D02*
X12933462Y-14385121D01*
X12933462Y-14385121D02*
X12923939Y-14366074D01*
X12923939Y-14366074D02*
X12914415Y-14327979D01*
X12914415Y-14327979D02*
X12914415Y-14280360D01*
X12914415Y-14280360D02*
X12923939Y-14242264D01*
X12923939Y-14242264D02*
X12933462Y-14223217D01*
X12933462Y-14223217D02*
X12942986Y-14213693D01*
X12942986Y-14213693D02*
X12962034Y-14204169D01*
X13095367Y-14204169D02*
X13219177Y-14204169D01*
X13219177Y-14204169D02*
X13152510Y-14280360D01*
X13152510Y-14280360D02*
X13181081Y-14280360D01*
X13181081Y-14280360D02*
X13200129Y-14289883D01*
X13200129Y-14289883D02*
X13209653Y-14299407D01*
X13209653Y-14299407D02*
X13219177Y-14318455D01*
X13219177Y-14318455D02*
X13219177Y-14366074D01*
X13219177Y-14366074D02*
X13209653Y-14385121D01*
X13209653Y-14385121D02*
X13200129Y-14394645D01*
X13200129Y-14394645D02*
X13181081Y-14404169D01*
X13181081Y-14404169D02*
X13123939Y-14404169D01*
X13123939Y-14404169D02*
X13104891Y-14394645D01*
X13104891Y-14394645D02*
X13095367Y-14385121D01*
X13409653Y-14404169D02*
X13295367Y-14404169D01*
X13352510Y-14404169D02*
X13352510Y-14204169D01*
X13352510Y-14204169D02*
X13333462Y-14232741D01*
X13333462Y-14232741D02*
X13314415Y-14251788D01*
X13314415Y-14251788D02*
X13295367Y-14261312D01*
X13590605Y-14204169D02*
X13495367Y-14204169D01*
X13495367Y-14204169D02*
X13485843Y-14299407D01*
X13485843Y-14299407D02*
X13495367Y-14289883D01*
X13495367Y-14289883D02*
X13514415Y-14280360D01*
X13514415Y-14280360D02*
X13562034Y-14280360D01*
X13562034Y-14280360D02*
X13581081Y-14289883D01*
X13581081Y-14289883D02*
X13590605Y-14299407D01*
X13590605Y-14299407D02*
X13600129Y-14318455D01*
X13600129Y-14318455D02*
X13600129Y-14366074D01*
X13600129Y-14366074D02*
X13590605Y-14385121D01*
X13590605Y-14385121D02*
X13581081Y-14394645D01*
X13581081Y-14394645D02*
X13562034Y-14404169D01*
X13562034Y-14404169D02*
X13514415Y-14404169D01*
X13514415Y-14404169D02*
X13495367Y-14394645D01*
X13495367Y-14394645D02*
X13485843Y-14385121D01*
X13676320Y-14204169D02*
X13676320Y-14242264D01*
X13752510Y-14204169D02*
X13752510Y-14242264D01*
X14047748Y-14480360D02*
X14038224Y-14470836D01*
X14038224Y-14470836D02*
X14019177Y-14442264D01*
X14019177Y-14442264D02*
X14009653Y-14423217D01*
X14009653Y-14423217D02*
X14000129Y-14394645D01*
X14000129Y-14394645D02*
X13990605Y-14347026D01*
X13990605Y-14347026D02*
X13990605Y-14308931D01*
X13990605Y-14308931D02*
X14000129Y-14261312D01*
X14000129Y-14261312D02*
X14009653Y-14232741D01*
X14009653Y-14232741D02*
X14019177Y-14213693D01*
X14019177Y-14213693D02*
X14038224Y-14185121D01*
X14038224Y-14185121D02*
X14047748Y-14175598D01*
X14114415Y-14223217D02*
X14123939Y-14213693D01*
X14123939Y-14213693D02*
X14142986Y-14204169D01*
X14142986Y-14204169D02*
X14190605Y-14204169D01*
X14190605Y-14204169D02*
X14209653Y-14213693D01*
X14209653Y-14213693D02*
X14219177Y-14223217D01*
X14219177Y-14223217D02*
X14228701Y-14242264D01*
X14228701Y-14242264D02*
X14228701Y-14261312D01*
X14228701Y-14261312D02*
X14219177Y-14289883D01*
X14219177Y-14289883D02*
X14104891Y-14404169D01*
X14104891Y-14404169D02*
X14228701Y-14404169D01*
X14466796Y-14404169D02*
X14466796Y-14204169D01*
X14552510Y-14404169D02*
X14552510Y-14299407D01*
X14552510Y-14299407D02*
X14542986Y-14280360D01*
X14542986Y-14280360D02*
X14523939Y-14270836D01*
X14523939Y-14270836D02*
X14495367Y-14270836D01*
X14495367Y-14270836D02*
X14476320Y-14280360D01*
X14476320Y-14280360D02*
X14466796Y-14289883D01*
X14676320Y-14404169D02*
X14657272Y-14394645D01*
X14657272Y-14394645D02*
X14647748Y-14385121D01*
X14647748Y-14385121D02*
X14638224Y-14366074D01*
X14638224Y-14366074D02*
X14638224Y-14308931D01*
X14638224Y-14308931D02*
X14647748Y-14289883D01*
X14647748Y-14289883D02*
X14657272Y-14280360D01*
X14657272Y-14280360D02*
X14676320Y-14270836D01*
X14676320Y-14270836D02*
X14704891Y-14270836D01*
X14704891Y-14270836D02*
X14723939Y-14280360D01*
X14723939Y-14280360D02*
X14733463Y-14289883D01*
X14733463Y-14289883D02*
X14742986Y-14308931D01*
X14742986Y-14308931D02*
X14742986Y-14366074D01*
X14742986Y-14366074D02*
X14733463Y-14385121D01*
X14733463Y-14385121D02*
X14723939Y-14394645D01*
X14723939Y-14394645D02*
X14704891Y-14404169D01*
X14704891Y-14404169D02*
X14676320Y-14404169D01*
X14857272Y-14404169D02*
X14838224Y-14394645D01*
X14838224Y-14394645D02*
X14828701Y-14375598D01*
X14828701Y-14375598D02*
X14828701Y-14204169D01*
X15009653Y-14394645D02*
X14990605Y-14404169D01*
X14990605Y-14404169D02*
X14952510Y-14404169D01*
X14952510Y-14404169D02*
X14933463Y-14394645D01*
X14933463Y-14394645D02*
X14923939Y-14375598D01*
X14923939Y-14375598D02*
X14923939Y-14299407D01*
X14923939Y-14299407D02*
X14933463Y-14280360D01*
X14933463Y-14280360D02*
X14952510Y-14270836D01*
X14952510Y-14270836D02*
X14990605Y-14270836D01*
X14990605Y-14270836D02*
X15009653Y-14280360D01*
X15009653Y-14280360D02*
X15019177Y-14299407D01*
X15019177Y-14299407D02*
X15019177Y-14318455D01*
X15019177Y-14318455D02*
X14923939Y-14337502D01*
X15095367Y-14394645D02*
X15114415Y-14404169D01*
X15114415Y-14404169D02*
X15152510Y-14404169D01*
X15152510Y-14404169D02*
X15171558Y-14394645D01*
X15171558Y-14394645D02*
X15181082Y-14375598D01*
X15181082Y-14375598D02*
X15181082Y-14366074D01*
X15181082Y-14366074D02*
X15171558Y-14347026D01*
X15171558Y-14347026D02*
X15152510Y-14337502D01*
X15152510Y-14337502D02*
X15123939Y-14337502D01*
X15123939Y-14337502D02*
X15104891Y-14327979D01*
X15104891Y-14327979D02*
X15095367Y-14308931D01*
X15095367Y-14308931D02*
X15095367Y-14299407D01*
X15095367Y-14299407D02*
X15104891Y-14280360D01*
X15104891Y-14280360D02*
X15123939Y-14270836D01*
X15123939Y-14270836D02*
X15152510Y-14270836D01*
X15152510Y-14270836D02*
X15171558Y-14280360D01*
X15247748Y-14480360D02*
X15257272Y-14470836D01*
X15257272Y-14470836D02*
X15276320Y-14442264D01*
X15276320Y-14442264D02*
X15285844Y-14423217D01*
X15285844Y-14423217D02*
X15295367Y-14394645D01*
X15295367Y-14394645D02*
X15304891Y-14347026D01*
X15304891Y-14347026D02*
X15304891Y-14308931D01*
X15304891Y-14308931D02*
X15295367Y-14261312D01*
X15295367Y-14261312D02*
X15285844Y-14232741D01*
X15285844Y-14232741D02*
X15276320Y-14213693D01*
X15276320Y-14213693D02*
X15257272Y-14185121D01*
X15257272Y-14185121D02*
X15247748Y-14175598D01*
D10*
X10422685Y-14626685D02*
X10472685Y-14576685D01*
X10422685Y-14526685D01*
X10372685Y-14576685D01*
X10422685Y-14626685D01*
D11*
X10838224Y-14668169D02*
X10723938Y-14668169D01*
X10781081Y-14668169D02*
X10781081Y-14468169D01*
X10781081Y-14468169D02*
X10762034Y-14496741D01*
X10762034Y-14496741D02*
X10742986Y-14515788D01*
X10742986Y-14515788D02*
X10723938Y-14525312D01*
X10923938Y-14649121D02*
X10933462Y-14658645D01*
X10933462Y-14658645D02*
X10923938Y-14668169D01*
X10923938Y-14668169D02*
X10914415Y-14658645D01*
X10914415Y-14658645D02*
X10923938Y-14649121D01*
X10923938Y-14649121D02*
X10923938Y-14668169D01*
X11057272Y-14468169D02*
X11076319Y-14468169D01*
X11076319Y-14468169D02*
X11095367Y-14477693D01*
X11095367Y-14477693D02*
X11104891Y-14487217D01*
X11104891Y-14487217D02*
X11114415Y-14506264D01*
X11114415Y-14506264D02*
X11123938Y-14544360D01*
X11123938Y-14544360D02*
X11123938Y-14591979D01*
X11123938Y-14591979D02*
X11114415Y-14630074D01*
X11114415Y-14630074D02*
X11104891Y-14649121D01*
X11104891Y-14649121D02*
X11095367Y-14658645D01*
X11095367Y-14658645D02*
X11076319Y-14668169D01*
X11076319Y-14668169D02*
X11057272Y-14668169D01*
X11057272Y-14668169D02*
X11038224Y-14658645D01*
X11038224Y-14658645D02*
X11028700Y-14649121D01*
X11028700Y-14649121D02*
X11019177Y-14630074D01*
X11019177Y-14630074D02*
X11009653Y-14591979D01*
X11009653Y-14591979D02*
X11009653Y-14544360D01*
X11009653Y-14544360D02*
X11019177Y-14506264D01*
X11019177Y-14506264D02*
X11028700Y-14487217D01*
X11028700Y-14487217D02*
X11038224Y-14477693D01*
X11038224Y-14477693D02*
X11057272Y-14468169D01*
X11247748Y-14468169D02*
X11266796Y-14468169D01*
X11266796Y-14468169D02*
X11285843Y-14477693D01*
X11285843Y-14477693D02*
X11295367Y-14487217D01*
X11295367Y-14487217D02*
X11304891Y-14506264D01*
X11304891Y-14506264D02*
X11314415Y-14544360D01*
X11314415Y-14544360D02*
X11314415Y-14591979D01*
X11314415Y-14591979D02*
X11304891Y-14630074D01*
X11304891Y-14630074D02*
X11295367Y-14649121D01*
X11295367Y-14649121D02*
X11285843Y-14658645D01*
X11285843Y-14658645D02*
X11266796Y-14668169D01*
X11266796Y-14668169D02*
X11247748Y-14668169D01*
X11247748Y-14668169D02*
X11228700Y-14658645D01*
X11228700Y-14658645D02*
X11219176Y-14649121D01*
X11219176Y-14649121D02*
X11209653Y-14630074D01*
X11209653Y-14630074D02*
X11200129Y-14591979D01*
X11200129Y-14591979D02*
X11200129Y-14544360D01*
X11200129Y-14544360D02*
X11209653Y-14506264D01*
X11209653Y-14506264D02*
X11219176Y-14487217D01*
X11219176Y-14487217D02*
X11228700Y-14477693D01*
X11228700Y-14477693D02*
X11247748Y-14468169D01*
X11438224Y-14468169D02*
X11457272Y-14468169D01*
X11457272Y-14468169D02*
X11476319Y-14477693D01*
X11476319Y-14477693D02*
X11485843Y-14487217D01*
X11485843Y-14487217D02*
X11495367Y-14506264D01*
X11495367Y-14506264D02*
X11504891Y-14544360D01*
X11504891Y-14544360D02*
X11504891Y-14591979D01*
X11504891Y-14591979D02*
X11495367Y-14630074D01*
X11495367Y-14630074D02*
X11485843Y-14649121D01*
X11485843Y-14649121D02*
X11476319Y-14658645D01*
X11476319Y-14658645D02*
X11457272Y-14668169D01*
X11457272Y-14668169D02*
X11438224Y-14668169D01*
X11438224Y-14668169D02*
X11419176Y-14658645D01*
X11419176Y-14658645D02*
X11409653Y-14649121D01*
X11409653Y-14649121D02*
X11400129Y-14630074D01*
X11400129Y-14630074D02*
X11390605Y-14591979D01*
X11390605Y-14591979D02*
X11390605Y-14544360D01*
X11390605Y-14544360D02*
X11400129Y-14506264D01*
X11400129Y-14506264D02*
X11409653Y-14487217D01*
X11409653Y-14487217D02*
X11419176Y-14477693D01*
X11419176Y-14477693D02*
X11438224Y-14468169D01*
X11590605Y-14668169D02*
X11590605Y-14534836D01*
X11590605Y-14553883D02*
X11600129Y-14544360D01*
X11600129Y-14544360D02*
X11619176Y-14534836D01*
X11619176Y-14534836D02*
X11647748Y-14534836D01*
X11647748Y-14534836D02*
X11666796Y-14544360D01*
X11666796Y-14544360D02*
X11676319Y-14563407D01*
X11676319Y-14563407D02*
X11676319Y-14668169D01*
X11676319Y-14563407D02*
X11685843Y-14544360D01*
X11685843Y-14544360D02*
X11704891Y-14534836D01*
X11704891Y-14534836D02*
X11733462Y-14534836D01*
X11733462Y-14534836D02*
X11752510Y-14544360D01*
X11752510Y-14544360D02*
X11762034Y-14563407D01*
X11762034Y-14563407D02*
X11762034Y-14668169D01*
X11857272Y-14668169D02*
X11857272Y-14534836D01*
X11857272Y-14553883D02*
X11866796Y-14544360D01*
X11866796Y-14544360D02*
X11885843Y-14534836D01*
X11885843Y-14534836D02*
X11914415Y-14534836D01*
X11914415Y-14534836D02*
X11933462Y-14544360D01*
X11933462Y-14544360D02*
X11942986Y-14563407D01*
X11942986Y-14563407D02*
X11942986Y-14668169D01*
X11942986Y-14563407D02*
X11952510Y-14544360D01*
X11952510Y-14544360D02*
X11971557Y-14534836D01*
X11971557Y-14534836D02*
X12000129Y-14534836D01*
X12000129Y-14534836D02*
X12019177Y-14544360D01*
X12019177Y-14544360D02*
X12028700Y-14563407D01*
X12028700Y-14563407D02*
X12028700Y-14668169D01*
X12419177Y-14458645D02*
X12247748Y-14715788D01*
X12676319Y-14468169D02*
X12695367Y-14468169D01*
X12695367Y-14468169D02*
X12714415Y-14477693D01*
X12714415Y-14477693D02*
X12723939Y-14487217D01*
X12723939Y-14487217D02*
X12733462Y-14506264D01*
X12733462Y-14506264D02*
X12742986Y-14544360D01*
X12742986Y-14544360D02*
X12742986Y-14591979D01*
X12742986Y-14591979D02*
X12733462Y-14630074D01*
X12733462Y-14630074D02*
X12723939Y-14649121D01*
X12723939Y-14649121D02*
X12714415Y-14658645D01*
X12714415Y-14658645D02*
X12695367Y-14668169D01*
X12695367Y-14668169D02*
X12676319Y-14668169D01*
X12676319Y-14668169D02*
X12657272Y-14658645D01*
X12657272Y-14658645D02*
X12647748Y-14649121D01*
X12647748Y-14649121D02*
X12638224Y-14630074D01*
X12638224Y-14630074D02*
X12628700Y-14591979D01*
X12628700Y-14591979D02*
X12628700Y-14544360D01*
X12628700Y-14544360D02*
X12638224Y-14506264D01*
X12638224Y-14506264D02*
X12647748Y-14487217D01*
X12647748Y-14487217D02*
X12657272Y-14477693D01*
X12657272Y-14477693D02*
X12676319Y-14468169D01*
X12828700Y-14649121D02*
X12838224Y-14658645D01*
X12838224Y-14658645D02*
X12828700Y-14668169D01*
X12828700Y-14668169D02*
X12819177Y-14658645D01*
X12819177Y-14658645D02*
X12828700Y-14649121D01*
X12828700Y-14649121D02*
X12828700Y-14668169D01*
X12962034Y-14468169D02*
X12981081Y-14468169D01*
X12981081Y-14468169D02*
X13000129Y-14477693D01*
X13000129Y-14477693D02*
X13009653Y-14487217D01*
X13009653Y-14487217D02*
X13019177Y-14506264D01*
X13019177Y-14506264D02*
X13028700Y-14544360D01*
X13028700Y-14544360D02*
X13028700Y-14591979D01*
X13028700Y-14591979D02*
X13019177Y-14630074D01*
X13019177Y-14630074D02*
X13009653Y-14649121D01*
X13009653Y-14649121D02*
X13000129Y-14658645D01*
X13000129Y-14658645D02*
X12981081Y-14668169D01*
X12981081Y-14668169D02*
X12962034Y-14668169D01*
X12962034Y-14668169D02*
X12942986Y-14658645D01*
X12942986Y-14658645D02*
X12933462Y-14649121D01*
X12933462Y-14649121D02*
X12923939Y-14630074D01*
X12923939Y-14630074D02*
X12914415Y-14591979D01*
X12914415Y-14591979D02*
X12914415Y-14544360D01*
X12914415Y-14544360D02*
X12923939Y-14506264D01*
X12923939Y-14506264D02*
X12933462Y-14487217D01*
X12933462Y-14487217D02*
X12942986Y-14477693D01*
X12942986Y-14477693D02*
X12962034Y-14468169D01*
X13095367Y-14468169D02*
X13219177Y-14468169D01*
X13219177Y-14468169D02*
X13152510Y-14544360D01*
X13152510Y-14544360D02*
X13181081Y-14544360D01*
X13181081Y-14544360D02*
X13200129Y-14553883D01*
X13200129Y-14553883D02*
X13209653Y-14563407D01*
X13209653Y-14563407D02*
X13219177Y-14582455D01*
X13219177Y-14582455D02*
X13219177Y-14630074D01*
X13219177Y-14630074D02*
X13209653Y-14649121D01*
X13209653Y-14649121D02*
X13200129Y-14658645D01*
X13200129Y-14658645D02*
X13181081Y-14668169D01*
X13181081Y-14668169D02*
X13123939Y-14668169D01*
X13123939Y-14668169D02*
X13104891Y-14658645D01*
X13104891Y-14658645D02*
X13095367Y-14649121D01*
X13314415Y-14668169D02*
X13352510Y-14668169D01*
X13352510Y-14668169D02*
X13371558Y-14658645D01*
X13371558Y-14658645D02*
X13381081Y-14649121D01*
X13381081Y-14649121D02*
X13400129Y-14620550D01*
X13400129Y-14620550D02*
X13409653Y-14582455D01*
X13409653Y-14582455D02*
X13409653Y-14506264D01*
X13409653Y-14506264D02*
X13400129Y-14487217D01*
X13400129Y-14487217D02*
X13390605Y-14477693D01*
X13390605Y-14477693D02*
X13371558Y-14468169D01*
X13371558Y-14468169D02*
X13333462Y-14468169D01*
X13333462Y-14468169D02*
X13314415Y-14477693D01*
X13314415Y-14477693D02*
X13304891Y-14487217D01*
X13304891Y-14487217D02*
X13295367Y-14506264D01*
X13295367Y-14506264D02*
X13295367Y-14553883D01*
X13295367Y-14553883D02*
X13304891Y-14572931D01*
X13304891Y-14572931D02*
X13314415Y-14582455D01*
X13314415Y-14582455D02*
X13333462Y-14591979D01*
X13333462Y-14591979D02*
X13371558Y-14591979D01*
X13371558Y-14591979D02*
X13390605Y-14582455D01*
X13390605Y-14582455D02*
X13400129Y-14572931D01*
X13400129Y-14572931D02*
X13409653Y-14553883D01*
X13581081Y-14534836D02*
X13581081Y-14668169D01*
X13533462Y-14458645D02*
X13485843Y-14601502D01*
X13485843Y-14601502D02*
X13609653Y-14601502D01*
X13676320Y-14468169D02*
X13676320Y-14506264D01*
X13752510Y-14468169D02*
X13752510Y-14506264D01*
X14047748Y-14744360D02*
X14038224Y-14734836D01*
X14038224Y-14734836D02*
X14019177Y-14706264D01*
X14019177Y-14706264D02*
X14009653Y-14687217D01*
X14009653Y-14687217D02*
X14000129Y-14658645D01*
X14000129Y-14658645D02*
X13990605Y-14611026D01*
X13990605Y-14611026D02*
X13990605Y-14572931D01*
X13990605Y-14572931D02*
X14000129Y-14525312D01*
X14000129Y-14525312D02*
X14009653Y-14496741D01*
X14009653Y-14496741D02*
X14019177Y-14477693D01*
X14019177Y-14477693D02*
X14038224Y-14449121D01*
X14038224Y-14449121D02*
X14047748Y-14439598D01*
X14209653Y-14468169D02*
X14171558Y-14468169D01*
X14171558Y-14468169D02*
X14152510Y-14477693D01*
X14152510Y-14477693D02*
X14142986Y-14487217D01*
X14142986Y-14487217D02*
X14123939Y-14515788D01*
X14123939Y-14515788D02*
X14114415Y-14553883D01*
X14114415Y-14553883D02*
X14114415Y-14630074D01*
X14114415Y-14630074D02*
X14123939Y-14649121D01*
X14123939Y-14649121D02*
X14133462Y-14658645D01*
X14133462Y-14658645D02*
X14152510Y-14668169D01*
X14152510Y-14668169D02*
X14190605Y-14668169D01*
X14190605Y-14668169D02*
X14209653Y-14658645D01*
X14209653Y-14658645D02*
X14219177Y-14649121D01*
X14219177Y-14649121D02*
X14228701Y-14630074D01*
X14228701Y-14630074D02*
X14228701Y-14582455D01*
X14228701Y-14582455D02*
X14219177Y-14563407D01*
X14219177Y-14563407D02*
X14209653Y-14553883D01*
X14209653Y-14553883D02*
X14190605Y-14544360D01*
X14190605Y-14544360D02*
X14152510Y-14544360D01*
X14152510Y-14544360D02*
X14133462Y-14553883D01*
X14133462Y-14553883D02*
X14123939Y-14563407D01*
X14123939Y-14563407D02*
X14114415Y-14582455D01*
X14466796Y-14668169D02*
X14466796Y-14468169D01*
X14552510Y-14668169D02*
X14552510Y-14563407D01*
X14552510Y-14563407D02*
X14542986Y-14544360D01*
X14542986Y-14544360D02*
X14523939Y-14534836D01*
X14523939Y-14534836D02*
X14495367Y-14534836D01*
X14495367Y-14534836D02*
X14476320Y-14544360D01*
X14476320Y-14544360D02*
X14466796Y-14553883D01*
X14676320Y-14668169D02*
X14657272Y-14658645D01*
X14657272Y-14658645D02*
X14647748Y-14649121D01*
X14647748Y-14649121D02*
X14638224Y-14630074D01*
X14638224Y-14630074D02*
X14638224Y-14572931D01*
X14638224Y-14572931D02*
X14647748Y-14553883D01*
X14647748Y-14553883D02*
X14657272Y-14544360D01*
X14657272Y-14544360D02*
X14676320Y-14534836D01*
X14676320Y-14534836D02*
X14704891Y-14534836D01*
X14704891Y-14534836D02*
X14723939Y-14544360D01*
X14723939Y-14544360D02*
X14733463Y-14553883D01*
X14733463Y-14553883D02*
X14742986Y-14572931D01*
X14742986Y-14572931D02*
X14742986Y-14630074D01*
X14742986Y-14630074D02*
X14733463Y-14649121D01*
X14733463Y-14649121D02*
X14723939Y-14658645D01*
X14723939Y-14658645D02*
X14704891Y-14668169D01*
X14704891Y-14668169D02*
X14676320Y-14668169D01*
X14857272Y-14668169D02*
X14838224Y-14658645D01*
X14838224Y-14658645D02*
X14828701Y-14639598D01*
X14828701Y-14639598D02*
X14828701Y-14468169D01*
X15009653Y-14658645D02*
X14990605Y-14668169D01*
X14990605Y-14668169D02*
X14952510Y-14668169D01*
X14952510Y-14668169D02*
X14933463Y-14658645D01*
X14933463Y-14658645D02*
X14923939Y-14639598D01*
X14923939Y-14639598D02*
X14923939Y-14563407D01*
X14923939Y-14563407D02*
X14933463Y-14544360D01*
X14933463Y-14544360D02*
X14952510Y-14534836D01*
X14952510Y-14534836D02*
X14990605Y-14534836D01*
X14990605Y-14534836D02*
X15009653Y-14544360D01*
X15009653Y-14544360D02*
X15019177Y-14563407D01*
X15019177Y-14563407D02*
X15019177Y-14582455D01*
X15019177Y-14582455D02*
X14923939Y-14601502D01*
X15095367Y-14658645D02*
X15114415Y-14668169D01*
X15114415Y-14668169D02*
X15152510Y-14668169D01*
X15152510Y-14668169D02*
X15171558Y-14658645D01*
X15171558Y-14658645D02*
X15181082Y-14639598D01*
X15181082Y-14639598D02*
X15181082Y-14630074D01*
X15181082Y-14630074D02*
X15171558Y-14611026D01*
X15171558Y-14611026D02*
X15152510Y-14601502D01*
X15152510Y-14601502D02*
X15123939Y-14601502D01*
X15123939Y-14601502D02*
X15104891Y-14591979D01*
X15104891Y-14591979D02*
X15095367Y-14572931D01*
X15095367Y-14572931D02*
X15095367Y-14563407D01*
X15095367Y-14563407D02*
X15104891Y-14544360D01*
X15104891Y-14544360D02*
X15123939Y-14534836D01*
X15123939Y-14534836D02*
X15152510Y-14534836D01*
X15152510Y-14534836D02*
X15171558Y-14544360D01*
X15247748Y-14744360D02*
X15257272Y-14734836D01*
X15257272Y-14734836D02*
X15276320Y-14706264D01*
X15276320Y-14706264D02*
X15285844Y-14687217D01*
X15285844Y-14687217D02*
X15295367Y-14658645D01*
X15295367Y-14658645D02*
X15304891Y-14611026D01*
X15304891Y-14611026D02*
X15304891Y-14572931D01*
X15304891Y-14572931D02*
X15295367Y-14525312D01*
X15295367Y-14525312D02*
X15285844Y-14496741D01*
X15285844Y-14496741D02*
X15276320Y-14477693D01*
X15276320Y-14477693D02*
X15257272Y-14449121D01*
X15257272Y-14449121D02*
X15247748Y-14439598D01*
D16*
X10371685Y-14790185D02*
X10472685Y-14891185D01*
X10472685Y-14790185D02*
X10371685Y-14891185D01*
X10472685Y-14840685D02*
G75*
G03*
X10472685Y-14840685I-50500J0D01*
G01*
D11*
X10838224Y-14932169D02*
X10723938Y-14932169D01*
X10781081Y-14932169D02*
X10781081Y-14732169D01*
X10781081Y-14732169D02*
X10762034Y-14760741D01*
X10762034Y-14760741D02*
X10742986Y-14779788D01*
X10742986Y-14779788D02*
X10723938Y-14789312D01*
X10923938Y-14913121D02*
X10933462Y-14922645D01*
X10933462Y-14922645D02*
X10923938Y-14932169D01*
X10923938Y-14932169D02*
X10914415Y-14922645D01*
X10914415Y-14922645D02*
X10923938Y-14913121D01*
X10923938Y-14913121D02*
X10923938Y-14932169D01*
X11057272Y-14732169D02*
X11076319Y-14732169D01*
X11076319Y-14732169D02*
X11095367Y-14741693D01*
X11095367Y-14741693D02*
X11104891Y-14751217D01*
X11104891Y-14751217D02*
X11114415Y-14770264D01*
X11114415Y-14770264D02*
X11123938Y-14808360D01*
X11123938Y-14808360D02*
X11123938Y-14855979D01*
X11123938Y-14855979D02*
X11114415Y-14894074D01*
X11114415Y-14894074D02*
X11104891Y-14913121D01*
X11104891Y-14913121D02*
X11095367Y-14922645D01*
X11095367Y-14922645D02*
X11076319Y-14932169D01*
X11076319Y-14932169D02*
X11057272Y-14932169D01*
X11057272Y-14932169D02*
X11038224Y-14922645D01*
X11038224Y-14922645D02*
X11028700Y-14913121D01*
X11028700Y-14913121D02*
X11019177Y-14894074D01*
X11019177Y-14894074D02*
X11009653Y-14855979D01*
X11009653Y-14855979D02*
X11009653Y-14808360D01*
X11009653Y-14808360D02*
X11019177Y-14770264D01*
X11019177Y-14770264D02*
X11028700Y-14751217D01*
X11028700Y-14751217D02*
X11038224Y-14741693D01*
X11038224Y-14741693D02*
X11057272Y-14732169D01*
X11314415Y-14932169D02*
X11200129Y-14932169D01*
X11257272Y-14932169D02*
X11257272Y-14732169D01*
X11257272Y-14732169D02*
X11238224Y-14760741D01*
X11238224Y-14760741D02*
X11219176Y-14779788D01*
X11219176Y-14779788D02*
X11200129Y-14789312D01*
X11438224Y-14732169D02*
X11457272Y-14732169D01*
X11457272Y-14732169D02*
X11476319Y-14741693D01*
X11476319Y-14741693D02*
X11485843Y-14751217D01*
X11485843Y-14751217D02*
X11495367Y-14770264D01*
X11495367Y-14770264D02*
X11504891Y-14808360D01*
X11504891Y-14808360D02*
X11504891Y-14855979D01*
X11504891Y-14855979D02*
X11495367Y-14894074D01*
X11495367Y-14894074D02*
X11485843Y-14913121D01*
X11485843Y-14913121D02*
X11476319Y-14922645D01*
X11476319Y-14922645D02*
X11457272Y-14932169D01*
X11457272Y-14932169D02*
X11438224Y-14932169D01*
X11438224Y-14932169D02*
X11419176Y-14922645D01*
X11419176Y-14922645D02*
X11409653Y-14913121D01*
X11409653Y-14913121D02*
X11400129Y-14894074D01*
X11400129Y-14894074D02*
X11390605Y-14855979D01*
X11390605Y-14855979D02*
X11390605Y-14808360D01*
X11390605Y-14808360D02*
X11400129Y-14770264D01*
X11400129Y-14770264D02*
X11409653Y-14751217D01*
X11409653Y-14751217D02*
X11419176Y-14741693D01*
X11419176Y-14741693D02*
X11438224Y-14732169D01*
X11590605Y-14932169D02*
X11590605Y-14798836D01*
X11590605Y-14817883D02*
X11600129Y-14808360D01*
X11600129Y-14808360D02*
X11619176Y-14798836D01*
X11619176Y-14798836D02*
X11647748Y-14798836D01*
X11647748Y-14798836D02*
X11666796Y-14808360D01*
X11666796Y-14808360D02*
X11676319Y-14827407D01*
X11676319Y-14827407D02*
X11676319Y-14932169D01*
X11676319Y-14827407D02*
X11685843Y-14808360D01*
X11685843Y-14808360D02*
X11704891Y-14798836D01*
X11704891Y-14798836D02*
X11733462Y-14798836D01*
X11733462Y-14798836D02*
X11752510Y-14808360D01*
X11752510Y-14808360D02*
X11762034Y-14827407D01*
X11762034Y-14827407D02*
X11762034Y-14932169D01*
X11857272Y-14932169D02*
X11857272Y-14798836D01*
X11857272Y-14817883D02*
X11866796Y-14808360D01*
X11866796Y-14808360D02*
X11885843Y-14798836D01*
X11885843Y-14798836D02*
X11914415Y-14798836D01*
X11914415Y-14798836D02*
X11933462Y-14808360D01*
X11933462Y-14808360D02*
X11942986Y-14827407D01*
X11942986Y-14827407D02*
X11942986Y-14932169D01*
X11942986Y-14827407D02*
X11952510Y-14808360D01*
X11952510Y-14808360D02*
X11971557Y-14798836D01*
X11971557Y-14798836D02*
X12000129Y-14798836D01*
X12000129Y-14798836D02*
X12019177Y-14808360D01*
X12019177Y-14808360D02*
X12028700Y-14827407D01*
X12028700Y-14827407D02*
X12028700Y-14932169D01*
X12419177Y-14722645D02*
X12247748Y-14979788D01*
X12676319Y-14732169D02*
X12695367Y-14732169D01*
X12695367Y-14732169D02*
X12714415Y-14741693D01*
X12714415Y-14741693D02*
X12723939Y-14751217D01*
X12723939Y-14751217D02*
X12733462Y-14770264D01*
X12733462Y-14770264D02*
X12742986Y-14808360D01*
X12742986Y-14808360D02*
X12742986Y-14855979D01*
X12742986Y-14855979D02*
X12733462Y-14894074D01*
X12733462Y-14894074D02*
X12723939Y-14913121D01*
X12723939Y-14913121D02*
X12714415Y-14922645D01*
X12714415Y-14922645D02*
X12695367Y-14932169D01*
X12695367Y-14932169D02*
X12676319Y-14932169D01*
X12676319Y-14932169D02*
X12657272Y-14922645D01*
X12657272Y-14922645D02*
X12647748Y-14913121D01*
X12647748Y-14913121D02*
X12638224Y-14894074D01*
X12638224Y-14894074D02*
X12628700Y-14855979D01*
X12628700Y-14855979D02*
X12628700Y-14808360D01*
X12628700Y-14808360D02*
X12638224Y-14770264D01*
X12638224Y-14770264D02*
X12647748Y-14751217D01*
X12647748Y-14751217D02*
X12657272Y-14741693D01*
X12657272Y-14741693D02*
X12676319Y-14732169D01*
X12828700Y-14913121D02*
X12838224Y-14922645D01*
X12838224Y-14922645D02*
X12828700Y-14932169D01*
X12828700Y-14932169D02*
X12819177Y-14922645D01*
X12819177Y-14922645D02*
X12828700Y-14913121D01*
X12828700Y-14913121D02*
X12828700Y-14932169D01*
X12962034Y-14732169D02*
X12981081Y-14732169D01*
X12981081Y-14732169D02*
X13000129Y-14741693D01*
X13000129Y-14741693D02*
X13009653Y-14751217D01*
X13009653Y-14751217D02*
X13019177Y-14770264D01*
X13019177Y-14770264D02*
X13028700Y-14808360D01*
X13028700Y-14808360D02*
X13028700Y-14855979D01*
X13028700Y-14855979D02*
X13019177Y-14894074D01*
X13019177Y-14894074D02*
X13009653Y-14913121D01*
X13009653Y-14913121D02*
X13000129Y-14922645D01*
X13000129Y-14922645D02*
X12981081Y-14932169D01*
X12981081Y-14932169D02*
X12962034Y-14932169D01*
X12962034Y-14932169D02*
X12942986Y-14922645D01*
X12942986Y-14922645D02*
X12933462Y-14913121D01*
X12933462Y-14913121D02*
X12923939Y-14894074D01*
X12923939Y-14894074D02*
X12914415Y-14855979D01*
X12914415Y-14855979D02*
X12914415Y-14808360D01*
X12914415Y-14808360D02*
X12923939Y-14770264D01*
X12923939Y-14770264D02*
X12933462Y-14751217D01*
X12933462Y-14751217D02*
X12942986Y-14741693D01*
X12942986Y-14741693D02*
X12962034Y-14732169D01*
X13095367Y-14732169D02*
X13219177Y-14732169D01*
X13219177Y-14732169D02*
X13152510Y-14808360D01*
X13152510Y-14808360D02*
X13181081Y-14808360D01*
X13181081Y-14808360D02*
X13200129Y-14817883D01*
X13200129Y-14817883D02*
X13209653Y-14827407D01*
X13209653Y-14827407D02*
X13219177Y-14846455D01*
X13219177Y-14846455D02*
X13219177Y-14894074D01*
X13219177Y-14894074D02*
X13209653Y-14913121D01*
X13209653Y-14913121D02*
X13200129Y-14922645D01*
X13200129Y-14922645D02*
X13181081Y-14932169D01*
X13181081Y-14932169D02*
X13123939Y-14932169D01*
X13123939Y-14932169D02*
X13104891Y-14922645D01*
X13104891Y-14922645D02*
X13095367Y-14913121D01*
X13314415Y-14932169D02*
X13352510Y-14932169D01*
X13352510Y-14932169D02*
X13371558Y-14922645D01*
X13371558Y-14922645D02*
X13381081Y-14913121D01*
X13381081Y-14913121D02*
X13400129Y-14884550D01*
X13400129Y-14884550D02*
X13409653Y-14846455D01*
X13409653Y-14846455D02*
X13409653Y-14770264D01*
X13409653Y-14770264D02*
X13400129Y-14751217D01*
X13400129Y-14751217D02*
X13390605Y-14741693D01*
X13390605Y-14741693D02*
X13371558Y-14732169D01*
X13371558Y-14732169D02*
X13333462Y-14732169D01*
X13333462Y-14732169D02*
X13314415Y-14741693D01*
X13314415Y-14741693D02*
X13304891Y-14751217D01*
X13304891Y-14751217D02*
X13295367Y-14770264D01*
X13295367Y-14770264D02*
X13295367Y-14817883D01*
X13295367Y-14817883D02*
X13304891Y-14836931D01*
X13304891Y-14836931D02*
X13314415Y-14846455D01*
X13314415Y-14846455D02*
X13333462Y-14855979D01*
X13333462Y-14855979D02*
X13371558Y-14855979D01*
X13371558Y-14855979D02*
X13390605Y-14846455D01*
X13390605Y-14846455D02*
X13400129Y-14836931D01*
X13400129Y-14836931D02*
X13409653Y-14817883D01*
X13523939Y-14817883D02*
X13504891Y-14808360D01*
X13504891Y-14808360D02*
X13495367Y-14798836D01*
X13495367Y-14798836D02*
X13485843Y-14779788D01*
X13485843Y-14779788D02*
X13485843Y-14770264D01*
X13485843Y-14770264D02*
X13495367Y-14751217D01*
X13495367Y-14751217D02*
X13504891Y-14741693D01*
X13504891Y-14741693D02*
X13523939Y-14732169D01*
X13523939Y-14732169D02*
X13562034Y-14732169D01*
X13562034Y-14732169D02*
X13581081Y-14741693D01*
X13581081Y-14741693D02*
X13590605Y-14751217D01*
X13590605Y-14751217D02*
X13600129Y-14770264D01*
X13600129Y-14770264D02*
X13600129Y-14779788D01*
X13600129Y-14779788D02*
X13590605Y-14798836D01*
X13590605Y-14798836D02*
X13581081Y-14808360D01*
X13581081Y-14808360D02*
X13562034Y-14817883D01*
X13562034Y-14817883D02*
X13523939Y-14817883D01*
X13523939Y-14817883D02*
X13504891Y-14827407D01*
X13504891Y-14827407D02*
X13495367Y-14836931D01*
X13495367Y-14836931D02*
X13485843Y-14855979D01*
X13485843Y-14855979D02*
X13485843Y-14894074D01*
X13485843Y-14894074D02*
X13495367Y-14913121D01*
X13495367Y-14913121D02*
X13504891Y-14922645D01*
X13504891Y-14922645D02*
X13523939Y-14932169D01*
X13523939Y-14932169D02*
X13562034Y-14932169D01*
X13562034Y-14932169D02*
X13581081Y-14922645D01*
X13581081Y-14922645D02*
X13590605Y-14913121D01*
X13590605Y-14913121D02*
X13600129Y-14894074D01*
X13600129Y-14894074D02*
X13600129Y-14855979D01*
X13600129Y-14855979D02*
X13590605Y-14836931D01*
X13590605Y-14836931D02*
X13581081Y-14827407D01*
X13581081Y-14827407D02*
X13562034Y-14817883D01*
X13676320Y-14732169D02*
X13676320Y-14770264D01*
X13752510Y-14732169D02*
X13752510Y-14770264D01*
X14047748Y-15008360D02*
X14038224Y-14998836D01*
X14038224Y-14998836D02*
X14019177Y-14970264D01*
X14019177Y-14970264D02*
X14009653Y-14951217D01*
X14009653Y-14951217D02*
X14000129Y-14922645D01*
X14000129Y-14922645D02*
X13990605Y-14875026D01*
X13990605Y-14875026D02*
X13990605Y-14836931D01*
X13990605Y-14836931D02*
X14000129Y-14789312D01*
X14000129Y-14789312D02*
X14009653Y-14760741D01*
X14009653Y-14760741D02*
X14019177Y-14741693D01*
X14019177Y-14741693D02*
X14038224Y-14713121D01*
X14038224Y-14713121D02*
X14047748Y-14703598D01*
X14114415Y-14751217D02*
X14123939Y-14741693D01*
X14123939Y-14741693D02*
X14142986Y-14732169D01*
X14142986Y-14732169D02*
X14190605Y-14732169D01*
X14190605Y-14732169D02*
X14209653Y-14741693D01*
X14209653Y-14741693D02*
X14219177Y-14751217D01*
X14219177Y-14751217D02*
X14228701Y-14770264D01*
X14228701Y-14770264D02*
X14228701Y-14789312D01*
X14228701Y-14789312D02*
X14219177Y-14817883D01*
X14219177Y-14817883D02*
X14104891Y-14932169D01*
X14104891Y-14932169D02*
X14228701Y-14932169D01*
X14466796Y-14932169D02*
X14466796Y-14732169D01*
X14552510Y-14932169D02*
X14552510Y-14827407D01*
X14552510Y-14827407D02*
X14542986Y-14808360D01*
X14542986Y-14808360D02*
X14523939Y-14798836D01*
X14523939Y-14798836D02*
X14495367Y-14798836D01*
X14495367Y-14798836D02*
X14476320Y-14808360D01*
X14476320Y-14808360D02*
X14466796Y-14817883D01*
X14676320Y-14932169D02*
X14657272Y-14922645D01*
X14657272Y-14922645D02*
X14647748Y-14913121D01*
X14647748Y-14913121D02*
X14638224Y-14894074D01*
X14638224Y-14894074D02*
X14638224Y-14836931D01*
X14638224Y-14836931D02*
X14647748Y-14817883D01*
X14647748Y-14817883D02*
X14657272Y-14808360D01*
X14657272Y-14808360D02*
X14676320Y-14798836D01*
X14676320Y-14798836D02*
X14704891Y-14798836D01*
X14704891Y-14798836D02*
X14723939Y-14808360D01*
X14723939Y-14808360D02*
X14733463Y-14817883D01*
X14733463Y-14817883D02*
X14742986Y-14836931D01*
X14742986Y-14836931D02*
X14742986Y-14894074D01*
X14742986Y-14894074D02*
X14733463Y-14913121D01*
X14733463Y-14913121D02*
X14723939Y-14922645D01*
X14723939Y-14922645D02*
X14704891Y-14932169D01*
X14704891Y-14932169D02*
X14676320Y-14932169D01*
X14857272Y-14932169D02*
X14838224Y-14922645D01*
X14838224Y-14922645D02*
X14828701Y-14903598D01*
X14828701Y-14903598D02*
X14828701Y-14732169D01*
X15009653Y-14922645D02*
X14990605Y-14932169D01*
X14990605Y-14932169D02*
X14952510Y-14932169D01*
X14952510Y-14932169D02*
X14933463Y-14922645D01*
X14933463Y-14922645D02*
X14923939Y-14903598D01*
X14923939Y-14903598D02*
X14923939Y-14827407D01*
X14923939Y-14827407D02*
X14933463Y-14808360D01*
X14933463Y-14808360D02*
X14952510Y-14798836D01*
X14952510Y-14798836D02*
X14990605Y-14798836D01*
X14990605Y-14798836D02*
X15009653Y-14808360D01*
X15009653Y-14808360D02*
X15019177Y-14827407D01*
X15019177Y-14827407D02*
X15019177Y-14846455D01*
X15019177Y-14846455D02*
X14923939Y-14865502D01*
X15095367Y-14922645D02*
X15114415Y-14932169D01*
X15114415Y-14932169D02*
X15152510Y-14932169D01*
X15152510Y-14932169D02*
X15171558Y-14922645D01*
X15171558Y-14922645D02*
X15181082Y-14903598D01*
X15181082Y-14903598D02*
X15181082Y-14894074D01*
X15181082Y-14894074D02*
X15171558Y-14875026D01*
X15171558Y-14875026D02*
X15152510Y-14865502D01*
X15152510Y-14865502D02*
X15123939Y-14865502D01*
X15123939Y-14865502D02*
X15104891Y-14855979D01*
X15104891Y-14855979D02*
X15095367Y-14836931D01*
X15095367Y-14836931D02*
X15095367Y-14827407D01*
X15095367Y-14827407D02*
X15104891Y-14808360D01*
X15104891Y-14808360D02*
X15123939Y-14798836D01*
X15123939Y-14798836D02*
X15152510Y-14798836D01*
X15152510Y-14798836D02*
X15171558Y-14808360D01*
X15247748Y-15008360D02*
X15257272Y-14998836D01*
X15257272Y-14998836D02*
X15276320Y-14970264D01*
X15276320Y-14970264D02*
X15285844Y-14951217D01*
X15285844Y-14951217D02*
X15295367Y-14922645D01*
X15295367Y-14922645D02*
X15304891Y-14875026D01*
X15304891Y-14875026D02*
X15304891Y-14836931D01*
X15304891Y-14836931D02*
X15295367Y-14789312D01*
X15295367Y-14789312D02*
X15285844Y-14760741D01*
X15285844Y-14760741D02*
X15276320Y-14741693D01*
X15276320Y-14741693D02*
X15257272Y-14713121D01*
X15257272Y-14713121D02*
X15247748Y-14703598D01*
D17*
X10342685Y-15039685D02*
X10472685Y-15169685D01*
X10472685Y-15039685D02*
X10342685Y-15169685D01*
X10407685Y-15039685D02*
X10407685Y-15169685D01*
X10342685Y-15104685D02*
X10472685Y-15104685D01*
D11*
X10838224Y-15196169D02*
X10723938Y-15196169D01*
X10781081Y-15196169D02*
X10781081Y-14996169D01*
X10781081Y-14996169D02*
X10762034Y-15024741D01*
X10762034Y-15024741D02*
X10742986Y-15043788D01*
X10742986Y-15043788D02*
X10723938Y-15053312D01*
X10923938Y-15177121D02*
X10933462Y-15186645D01*
X10933462Y-15186645D02*
X10923938Y-15196169D01*
X10923938Y-15196169D02*
X10914415Y-15186645D01*
X10914415Y-15186645D02*
X10923938Y-15177121D01*
X10923938Y-15177121D02*
X10923938Y-15196169D01*
X11000129Y-14996169D02*
X11123938Y-14996169D01*
X11123938Y-14996169D02*
X11057272Y-15072360D01*
X11057272Y-15072360D02*
X11085843Y-15072360D01*
X11085843Y-15072360D02*
X11104891Y-15081883D01*
X11104891Y-15081883D02*
X11114415Y-15091407D01*
X11114415Y-15091407D02*
X11123938Y-15110455D01*
X11123938Y-15110455D02*
X11123938Y-15158074D01*
X11123938Y-15158074D02*
X11114415Y-15177121D01*
X11114415Y-15177121D02*
X11104891Y-15186645D01*
X11104891Y-15186645D02*
X11085843Y-15196169D01*
X11085843Y-15196169D02*
X11028700Y-15196169D01*
X11028700Y-15196169D02*
X11009653Y-15186645D01*
X11009653Y-15186645D02*
X11000129Y-15177121D01*
X11247748Y-14996169D02*
X11266796Y-14996169D01*
X11266796Y-14996169D02*
X11285843Y-15005693D01*
X11285843Y-15005693D02*
X11295367Y-15015217D01*
X11295367Y-15015217D02*
X11304891Y-15034264D01*
X11304891Y-15034264D02*
X11314415Y-15072360D01*
X11314415Y-15072360D02*
X11314415Y-15119979D01*
X11314415Y-15119979D02*
X11304891Y-15158074D01*
X11304891Y-15158074D02*
X11295367Y-15177121D01*
X11295367Y-15177121D02*
X11285843Y-15186645D01*
X11285843Y-15186645D02*
X11266796Y-15196169D01*
X11266796Y-15196169D02*
X11247748Y-15196169D01*
X11247748Y-15196169D02*
X11228700Y-15186645D01*
X11228700Y-15186645D02*
X11219176Y-15177121D01*
X11219176Y-15177121D02*
X11209653Y-15158074D01*
X11209653Y-15158074D02*
X11200129Y-15119979D01*
X11200129Y-15119979D02*
X11200129Y-15072360D01*
X11200129Y-15072360D02*
X11209653Y-15034264D01*
X11209653Y-15034264D02*
X11219176Y-15015217D01*
X11219176Y-15015217D02*
X11228700Y-15005693D01*
X11228700Y-15005693D02*
X11247748Y-14996169D01*
X11438224Y-14996169D02*
X11457272Y-14996169D01*
X11457272Y-14996169D02*
X11476319Y-15005693D01*
X11476319Y-15005693D02*
X11485843Y-15015217D01*
X11485843Y-15015217D02*
X11495367Y-15034264D01*
X11495367Y-15034264D02*
X11504891Y-15072360D01*
X11504891Y-15072360D02*
X11504891Y-15119979D01*
X11504891Y-15119979D02*
X11495367Y-15158074D01*
X11495367Y-15158074D02*
X11485843Y-15177121D01*
X11485843Y-15177121D02*
X11476319Y-15186645D01*
X11476319Y-15186645D02*
X11457272Y-15196169D01*
X11457272Y-15196169D02*
X11438224Y-15196169D01*
X11438224Y-15196169D02*
X11419176Y-15186645D01*
X11419176Y-15186645D02*
X11409653Y-15177121D01*
X11409653Y-15177121D02*
X11400129Y-15158074D01*
X11400129Y-15158074D02*
X11390605Y-15119979D01*
X11390605Y-15119979D02*
X11390605Y-15072360D01*
X11390605Y-15072360D02*
X11400129Y-15034264D01*
X11400129Y-15034264D02*
X11409653Y-15015217D01*
X11409653Y-15015217D02*
X11419176Y-15005693D01*
X11419176Y-15005693D02*
X11438224Y-14996169D01*
X11590605Y-15196169D02*
X11590605Y-15062836D01*
X11590605Y-15081883D02*
X11600129Y-15072360D01*
X11600129Y-15072360D02*
X11619176Y-15062836D01*
X11619176Y-15062836D02*
X11647748Y-15062836D01*
X11647748Y-15062836D02*
X11666796Y-15072360D01*
X11666796Y-15072360D02*
X11676319Y-15091407D01*
X11676319Y-15091407D02*
X11676319Y-15196169D01*
X11676319Y-15091407D02*
X11685843Y-15072360D01*
X11685843Y-15072360D02*
X11704891Y-15062836D01*
X11704891Y-15062836D02*
X11733462Y-15062836D01*
X11733462Y-15062836D02*
X11752510Y-15072360D01*
X11752510Y-15072360D02*
X11762034Y-15091407D01*
X11762034Y-15091407D02*
X11762034Y-15196169D01*
X11857272Y-15196169D02*
X11857272Y-15062836D01*
X11857272Y-15081883D02*
X11866796Y-15072360D01*
X11866796Y-15072360D02*
X11885843Y-15062836D01*
X11885843Y-15062836D02*
X11914415Y-15062836D01*
X11914415Y-15062836D02*
X11933462Y-15072360D01*
X11933462Y-15072360D02*
X11942986Y-15091407D01*
X11942986Y-15091407D02*
X11942986Y-15196169D01*
X11942986Y-15091407D02*
X11952510Y-15072360D01*
X11952510Y-15072360D02*
X11971557Y-15062836D01*
X11971557Y-15062836D02*
X12000129Y-15062836D01*
X12000129Y-15062836D02*
X12019177Y-15072360D01*
X12019177Y-15072360D02*
X12028700Y-15091407D01*
X12028700Y-15091407D02*
X12028700Y-15196169D01*
X12419177Y-14986645D02*
X12247748Y-15243788D01*
X12676319Y-14996169D02*
X12695367Y-14996169D01*
X12695367Y-14996169D02*
X12714415Y-15005693D01*
X12714415Y-15005693D02*
X12723939Y-15015217D01*
X12723939Y-15015217D02*
X12733462Y-15034264D01*
X12733462Y-15034264D02*
X12742986Y-15072360D01*
X12742986Y-15072360D02*
X12742986Y-15119979D01*
X12742986Y-15119979D02*
X12733462Y-15158074D01*
X12733462Y-15158074D02*
X12723939Y-15177121D01*
X12723939Y-15177121D02*
X12714415Y-15186645D01*
X12714415Y-15186645D02*
X12695367Y-15196169D01*
X12695367Y-15196169D02*
X12676319Y-15196169D01*
X12676319Y-15196169D02*
X12657272Y-15186645D01*
X12657272Y-15186645D02*
X12647748Y-15177121D01*
X12647748Y-15177121D02*
X12638224Y-15158074D01*
X12638224Y-15158074D02*
X12628700Y-15119979D01*
X12628700Y-15119979D02*
X12628700Y-15072360D01*
X12628700Y-15072360D02*
X12638224Y-15034264D01*
X12638224Y-15034264D02*
X12647748Y-15015217D01*
X12647748Y-15015217D02*
X12657272Y-15005693D01*
X12657272Y-15005693D02*
X12676319Y-14996169D01*
X12828700Y-15177121D02*
X12838224Y-15186645D01*
X12838224Y-15186645D02*
X12828700Y-15196169D01*
X12828700Y-15196169D02*
X12819177Y-15186645D01*
X12819177Y-15186645D02*
X12828700Y-15177121D01*
X12828700Y-15177121D02*
X12828700Y-15196169D01*
X12962034Y-14996169D02*
X12981081Y-14996169D01*
X12981081Y-14996169D02*
X13000129Y-15005693D01*
X13000129Y-15005693D02*
X13009653Y-15015217D01*
X13009653Y-15015217D02*
X13019177Y-15034264D01*
X13019177Y-15034264D02*
X13028700Y-15072360D01*
X13028700Y-15072360D02*
X13028700Y-15119979D01*
X13028700Y-15119979D02*
X13019177Y-15158074D01*
X13019177Y-15158074D02*
X13009653Y-15177121D01*
X13009653Y-15177121D02*
X13000129Y-15186645D01*
X13000129Y-15186645D02*
X12981081Y-15196169D01*
X12981081Y-15196169D02*
X12962034Y-15196169D01*
X12962034Y-15196169D02*
X12942986Y-15186645D01*
X12942986Y-15186645D02*
X12933462Y-15177121D01*
X12933462Y-15177121D02*
X12923939Y-15158074D01*
X12923939Y-15158074D02*
X12914415Y-15119979D01*
X12914415Y-15119979D02*
X12914415Y-15072360D01*
X12914415Y-15072360D02*
X12923939Y-15034264D01*
X12923939Y-15034264D02*
X12933462Y-15015217D01*
X12933462Y-15015217D02*
X12942986Y-15005693D01*
X12942986Y-15005693D02*
X12962034Y-14996169D01*
X13209653Y-14996169D02*
X13114415Y-14996169D01*
X13114415Y-14996169D02*
X13104891Y-15091407D01*
X13104891Y-15091407D02*
X13114415Y-15081883D01*
X13114415Y-15081883D02*
X13133462Y-15072360D01*
X13133462Y-15072360D02*
X13181081Y-15072360D01*
X13181081Y-15072360D02*
X13200129Y-15081883D01*
X13200129Y-15081883D02*
X13209653Y-15091407D01*
X13209653Y-15091407D02*
X13219177Y-15110455D01*
X13219177Y-15110455D02*
X13219177Y-15158074D01*
X13219177Y-15158074D02*
X13209653Y-15177121D01*
X13209653Y-15177121D02*
X13200129Y-15186645D01*
X13200129Y-15186645D02*
X13181081Y-15196169D01*
X13181081Y-15196169D02*
X13133462Y-15196169D01*
X13133462Y-15196169D02*
X13114415Y-15186645D01*
X13114415Y-15186645D02*
X13104891Y-15177121D01*
X13409653Y-15196169D02*
X13295367Y-15196169D01*
X13352510Y-15196169D02*
X13352510Y-14996169D01*
X13352510Y-14996169D02*
X13333462Y-15024741D01*
X13333462Y-15024741D02*
X13314415Y-15043788D01*
X13314415Y-15043788D02*
X13295367Y-15053312D01*
X13485843Y-15015217D02*
X13495367Y-15005693D01*
X13495367Y-15005693D02*
X13514415Y-14996169D01*
X13514415Y-14996169D02*
X13562034Y-14996169D01*
X13562034Y-14996169D02*
X13581081Y-15005693D01*
X13581081Y-15005693D02*
X13590605Y-15015217D01*
X13590605Y-15015217D02*
X13600129Y-15034264D01*
X13600129Y-15034264D02*
X13600129Y-15053312D01*
X13600129Y-15053312D02*
X13590605Y-15081883D01*
X13590605Y-15081883D02*
X13476320Y-15196169D01*
X13476320Y-15196169D02*
X13600129Y-15196169D01*
X13676320Y-14996169D02*
X13676320Y-15034264D01*
X13752510Y-14996169D02*
X13752510Y-15034264D01*
X14047748Y-15272360D02*
X14038224Y-15262836D01*
X14038224Y-15262836D02*
X14019177Y-15234264D01*
X14019177Y-15234264D02*
X14009653Y-15215217D01*
X14009653Y-15215217D02*
X14000129Y-15186645D01*
X14000129Y-15186645D02*
X13990605Y-15139026D01*
X13990605Y-15139026D02*
X13990605Y-15100931D01*
X13990605Y-15100931D02*
X14000129Y-15053312D01*
X14000129Y-15053312D02*
X14009653Y-15024741D01*
X14009653Y-15024741D02*
X14019177Y-15005693D01*
X14019177Y-15005693D02*
X14038224Y-14977121D01*
X14038224Y-14977121D02*
X14047748Y-14967598D01*
X14209653Y-15062836D02*
X14209653Y-15196169D01*
X14162034Y-14986645D02*
X14114415Y-15129502D01*
X14114415Y-15129502D02*
X14238224Y-15129502D01*
X14466796Y-15196169D02*
X14466796Y-14996169D01*
X14552510Y-15196169D02*
X14552510Y-15091407D01*
X14552510Y-15091407D02*
X14542986Y-15072360D01*
X14542986Y-15072360D02*
X14523939Y-15062836D01*
X14523939Y-15062836D02*
X14495367Y-15062836D01*
X14495367Y-15062836D02*
X14476320Y-15072360D01*
X14476320Y-15072360D02*
X14466796Y-15081883D01*
X14676320Y-15196169D02*
X14657272Y-15186645D01*
X14657272Y-15186645D02*
X14647748Y-15177121D01*
X14647748Y-15177121D02*
X14638224Y-15158074D01*
X14638224Y-15158074D02*
X14638224Y-15100931D01*
X14638224Y-15100931D02*
X14647748Y-15081883D01*
X14647748Y-15081883D02*
X14657272Y-15072360D01*
X14657272Y-15072360D02*
X14676320Y-15062836D01*
X14676320Y-15062836D02*
X14704891Y-15062836D01*
X14704891Y-15062836D02*
X14723939Y-15072360D01*
X14723939Y-15072360D02*
X14733463Y-15081883D01*
X14733463Y-15081883D02*
X14742986Y-15100931D01*
X14742986Y-15100931D02*
X14742986Y-15158074D01*
X14742986Y-15158074D02*
X14733463Y-15177121D01*
X14733463Y-15177121D02*
X14723939Y-15186645D01*
X14723939Y-15186645D02*
X14704891Y-15196169D01*
X14704891Y-15196169D02*
X14676320Y-15196169D01*
X14857272Y-15196169D02*
X14838224Y-15186645D01*
X14838224Y-15186645D02*
X14828701Y-15167598D01*
X14828701Y-15167598D02*
X14828701Y-14996169D01*
X15009653Y-15186645D02*
X14990605Y-15196169D01*
X14990605Y-15196169D02*
X14952510Y-15196169D01*
X14952510Y-15196169D02*
X14933463Y-15186645D01*
X14933463Y-15186645D02*
X14923939Y-15167598D01*
X14923939Y-15167598D02*
X14923939Y-15091407D01*
X14923939Y-15091407D02*
X14933463Y-15072360D01*
X14933463Y-15072360D02*
X14952510Y-15062836D01*
X14952510Y-15062836D02*
X14990605Y-15062836D01*
X14990605Y-15062836D02*
X15009653Y-15072360D01*
X15009653Y-15072360D02*
X15019177Y-15091407D01*
X15019177Y-15091407D02*
X15019177Y-15110455D01*
X15019177Y-15110455D02*
X14923939Y-15129502D01*
X15095367Y-15186645D02*
X15114415Y-15196169D01*
X15114415Y-15196169D02*
X15152510Y-15196169D01*
X15152510Y-15196169D02*
X15171558Y-15186645D01*
X15171558Y-15186645D02*
X15181082Y-15167598D01*
X15181082Y-15167598D02*
X15181082Y-15158074D01*
X15181082Y-15158074D02*
X15171558Y-15139026D01*
X15171558Y-15139026D02*
X15152510Y-15129502D01*
X15152510Y-15129502D02*
X15123939Y-15129502D01*
X15123939Y-15129502D02*
X15104891Y-15119979D01*
X15104891Y-15119979D02*
X15095367Y-15100931D01*
X15095367Y-15100931D02*
X15095367Y-15091407D01*
X15095367Y-15091407D02*
X15104891Y-15072360D01*
X15104891Y-15072360D02*
X15123939Y-15062836D01*
X15123939Y-15062836D02*
X15152510Y-15062836D01*
X15152510Y-15062836D02*
X15171558Y-15072360D01*
X15247748Y-15272360D02*
X15257272Y-15262836D01*
X15257272Y-15262836D02*
X15276320Y-15234264D01*
X15276320Y-15234264D02*
X15285844Y-15215217D01*
X15285844Y-15215217D02*
X15295367Y-15186645D01*
X15295367Y-15186645D02*
X15304891Y-15139026D01*
X15304891Y-15139026D02*
X15304891Y-15100931D01*
X15304891Y-15100931D02*
X15295367Y-15053312D01*
X15295367Y-15053312D02*
X15285844Y-15024741D01*
X15285844Y-15024741D02*
X15276320Y-15005693D01*
X15276320Y-15005693D02*
X15257272Y-14977121D01*
X15257272Y-14977121D02*
X15247748Y-14967598D01*
M02*
