%TF.GenerationSoftware,KiCad,Pcbnew,7.0.7*%
%TF.CreationDate,2023-11-04T15:45:33+01:00*%
%TF.ProjectId,LK-EU01_Smart_Socket_Base,4c4b2d45-5530-4315-9f53-6d6172745f53,rev?*%
%TF.SameCoordinates,Original*%
%TF.FileFunction,Copper,L1,Top*%
%TF.FilePolarity,Positive*%
%FSLAX46Y46*%
G04 Gerber Fmt 4.6, Leading zero omitted, Abs format (unit mm)*
G04 Created by KiCad (PCBNEW 7.0.7) date 2023-11-04 15:45:33*
%MOMM*%
%LPD*%
G01*
G04 APERTURE LIST*
G04 Aperture macros list*
%AMRoundRect*
0 Rectangle with rounded corners*
0 $1 Rounding radius*
0 $2 $3 $4 $5 $6 $7 $8 $9 X,Y pos of 4 corners*
0 Add a 4 corners polygon primitive as box body*
4,1,4,$2,$3,$4,$5,$6,$7,$8,$9,$2,$3,0*
0 Add four circle primitives for the rounded corners*
1,1,$1+$1,$2,$3*
1,1,$1+$1,$4,$5*
1,1,$1+$1,$6,$7*
1,1,$1+$1,$8,$9*
0 Add four rect primitives between the rounded corners*
20,1,$1+$1,$2,$3,$4,$5,0*
20,1,$1+$1,$4,$5,$6,$7,0*
20,1,$1+$1,$6,$7,$8,$9,0*
20,1,$1+$1,$8,$9,$2,$3,0*%
%AMRotRect*
0 Rectangle, with rotation*
0 The origin of the aperture is its center*
0 $1 length*
0 $2 width*
0 $3 Rotation angle, in degrees counterclockwise*
0 Add horizontal line*
21,1,$1,$2,0,0,$3*%
G04 Aperture macros list end*
%TA.AperFunction,ComponentPad*%
%ADD10R,1.500000X6.000000*%
%TD*%
%TA.AperFunction,SMDPad,CuDef*%
%ADD11R,1.000000X3.000000*%
%TD*%
%TA.AperFunction,SMDPad,CuDef*%
%ADD12RoundRect,0.250001X0.462499X0.624999X-0.462499X0.624999X-0.462499X-0.624999X0.462499X-0.624999X0*%
%TD*%
%TA.AperFunction,SMDPad,CuDef*%
%ADD13RoundRect,0.200000X0.275000X-0.200000X0.275000X0.200000X-0.275000X0.200000X-0.275000X-0.200000X0*%
%TD*%
%TA.AperFunction,SMDPad,CuDef*%
%ADD14RoundRect,0.150000X-0.150000X0.587500X-0.150000X-0.587500X0.150000X-0.587500X0.150000X0.587500X0*%
%TD*%
%TA.AperFunction,SMDPad,CuDef*%
%ADD15C,1.000000*%
%TD*%
%TA.AperFunction,SMDPad,CuDef*%
%ADD16RoundRect,0.250000X1.075000X-0.375000X1.075000X0.375000X-1.075000X0.375000X-1.075000X-0.375000X0*%
%TD*%
%TA.AperFunction,SMDPad,CuDef*%
%ADD17RoundRect,0.225000X0.250000X-0.225000X0.250000X0.225000X-0.250000X0.225000X-0.250000X-0.225000X0*%
%TD*%
%TA.AperFunction,SMDPad,CuDef*%
%ADD18RoundRect,0.162500X0.162500X-0.187500X0.162500X0.187500X-0.162500X0.187500X-0.162500X-0.187500X0*%
%TD*%
%TA.AperFunction,SMDPad,CuDef*%
%ADD19RoundRect,0.175000X0.500000X-0.175000X0.500000X0.175000X-0.500000X0.175000X-0.500000X-0.175000X0*%
%TD*%
%TA.AperFunction,SMDPad,CuDef*%
%ADD20RoundRect,0.100000X0.100000X-0.250000X0.100000X0.250000X-0.100000X0.250000X-0.100000X-0.250000X0*%
%TD*%
%TA.AperFunction,SMDPad,CuDef*%
%ADD21RoundRect,0.150000X0.150000X-0.825000X0.150000X0.825000X-0.150000X0.825000X-0.150000X-0.825000X0*%
%TD*%
%TA.AperFunction,SMDPad,CuDef*%
%ADD22RoundRect,0.250001X-0.462499X-0.624999X0.462499X-0.624999X0.462499X0.624999X-0.462499X0.624999X0*%
%TD*%
%TA.AperFunction,SMDPad,CuDef*%
%ADD23RoundRect,0.250000X0.250000X0.475000X-0.250000X0.475000X-0.250000X-0.475000X0.250000X-0.475000X0*%
%TD*%
%TA.AperFunction,SMDPad,CuDef*%
%ADD24RoundRect,0.250000X0.262500X0.450000X-0.262500X0.450000X-0.262500X-0.450000X0.262500X-0.450000X0*%
%TD*%
%TA.AperFunction,SMDPad,CuDef*%
%ADD25RoundRect,0.250001X-0.624999X0.462499X-0.624999X-0.462499X0.624999X-0.462499X0.624999X0.462499X0*%
%TD*%
%TA.AperFunction,ComponentPad*%
%ADD26C,1.600000*%
%TD*%
%TA.AperFunction,ComponentPad*%
%ADD27C,2.000000*%
%TD*%
%TA.AperFunction,ComponentPad*%
%ADD28RotRect,2.000000X2.000000X315.000000*%
%TD*%
%TA.AperFunction,ComponentPad*%
%ADD29C,2.286000*%
%TD*%
%TA.AperFunction,ComponentPad*%
%ADD30C,2.010000*%
%TD*%
%TA.AperFunction,ComponentPad*%
%ADD31C,1.200000*%
%TD*%
%TA.AperFunction,ComponentPad*%
%ADD32R,1.200000X1.200000*%
%TD*%
%TA.AperFunction,ComponentPad*%
%ADD33R,1.600000X1.600000*%
%TD*%
%TA.AperFunction,ViaPad*%
%ADD34C,0.800000*%
%TD*%
%TA.AperFunction,ViaPad*%
%ADD35C,0.600000*%
%TD*%
%TA.AperFunction,Conductor*%
%ADD36C,0.200000*%
%TD*%
%TA.AperFunction,Conductor*%
%ADD37C,0.150000*%
%TD*%
%TA.AperFunction,Conductor*%
%ADD38C,0.400000*%
%TD*%
%TA.AperFunction,Conductor*%
%ADD39C,1.000000*%
%TD*%
%TA.AperFunction,Conductor*%
%ADD40C,2.000000*%
%TD*%
G04 APERTURE END LIST*
D10*
%TO.P,U1,1a,AC_OUT_Line*%
%TO.N,AC_IN_LINE*%
X118050000Y-91790000D03*
D11*
%TO.P,U1,1b,ADC*%
%TO.N,ACS_HALL_PAD1B*%
X129040000Y-125970000D03*
D10*
%TO.P,U1,2a,AC_OUT_Neutral*%
%TO.N,AC_OUT_NEUTRAL*%
X118050000Y-110700000D03*
D11*
%TO.P,U1,2b,GPIO*%
%TO.N,RELAY_EN_PAD_2B*%
X131060000Y-125970000D03*
D10*
%TO.P,U1,3a,AC_IN_Neutral*%
%TO.N,AC_IN_NEUTRAL*%
X141630000Y-110690000D03*
D11*
%TO.P,U1,3b,GPIO*%
%TO.N,unconnected-(U1-GPIO-Pad3b)*%
X133080000Y-125970000D03*
%TO.P,U1,4b,GPIO*%
%TO.N,unconnected-(U1-GPIO-Pad4b)*%
X135100000Y-125970000D03*
%TO.P,U1,5b,3V3*%
%TO.N,GND*%
X137120000Y-125970000D03*
%TO.P,U1,6b,GND*%
%TO.N,3V3*%
X139140000Y-125970000D03*
%TO.P,U1,7b,UART_LOG_RX*%
%TO.N,unconnected-(U1-UART_LOG_RX-Pad7b)*%
X141160000Y-125970000D03*
%TO.P,U1,8b,UART_LOG_TX*%
%TO.N,unconnected-(U1-UART_LOG_TX-Pad8b)*%
X141160000Y-121400000D03*
%TO.P,U1,9b,GPIO12*%
%TO.N,unconnected-(U1-GPIO12-Pad9b)*%
X139140000Y-121400000D03*
%TO.P,U1,10b,UART_TX*%
%TO.N,unconnected-(U1-UART_TX-Pad10b)*%
X137120000Y-121400000D03*
%TO.P,U1,11b,UART_RX*%
%TO.N,unconnected-(U1-UART_RX-Pad11b)*%
X135100000Y-121400000D03*
%TO.P,U1,12b*%
%TO.N,N/C*%
X133080000Y-121400000D03*
%TO.P,U1,13b,GPIO0*%
%TO.N,unconnected-(U1-GPIO0-Pad13b)*%
X131060000Y-121400000D03*
%TO.P,U1,14b,EN*%
%TO.N,unconnected-(U1-EN-Pad14b)*%
X129040000Y-121400000D03*
%TD*%
D12*
%TO.P,HLD1,2,A*%
%TO.N,GND*%
X114002500Y-122440000D03*
%TO.P,HLD1,1,K*%
%TO.N,Net-(HLD1-K)*%
X116977500Y-122440000D03*
%TD*%
D13*
%TO.P,RR1,2*%
%TO.N,Net-(RQ1-E)*%
X131850000Y-116790000D03*
%TO.P,RR1,1*%
%TO.N,RELAY_EN_PAD_2B*%
X131850000Y-118440000D03*
%TD*%
D14*
%TO.P,RQ1,3,C*%
%TO.N,Net-(HLD1-K)*%
X128850000Y-118357500D03*
%TO.P,RQ1,2,B*%
%TO.N,3V3*%
X127900000Y-116482500D03*
%TO.P,RQ1,1,E*%
%TO.N,Net-(RQ1-E)*%
X129800000Y-116482500D03*
%TD*%
D15*
%TO.P,TP3,1,1*%
%TO.N,5V0*%
X148090000Y-115390000D03*
%TD*%
%TO.P,TP1,1,1*%
%TO.N,3V3*%
X144410000Y-121280000D03*
%TD*%
D16*
%TO.P,HLL1,2,2*%
%TO.N,GND3*%
X156260000Y-106220000D03*
%TO.P,HLL1,1,1*%
%TO.N,5V0*%
X156260000Y-109020000D03*
%TD*%
D17*
%TO.P,EC1,2*%
%TO.N,5V0*%
X127956750Y-98775000D03*
%TO.P,EC1,1*%
%TO.N,GND*%
X127956750Y-100325000D03*
%TD*%
D18*
%TO.P,U3,5,CS*%
%TO.N,Net-(U3-CS)*%
X155990000Y-96210000D03*
D19*
%TO.P,U3,4,DRAIN*%
%TO.N,Net-(U3-DRAIN)*%
X157970000Y-96200000D03*
D20*
%TO.P,U3,3,VCC*%
%TO.N,Net-(ACPWR3-K)*%
X158040000Y-99510000D03*
%TO.P,U3,2,SEL*%
%TO.N,GND3*%
X156790000Y-99510000D03*
%TO.P,U3,1,GND*%
X155980000Y-99510000D03*
%TD*%
D21*
%TO.P,ACS1,8,VCC*%
%TO.N,5V0*%
X130096750Y-99040000D03*
%TO.P,ACS1,7,VIOUT*%
%TO.N,Net-(ACS1-VIOUT)*%
X131366750Y-99040000D03*
%TO.P,ACS1,6,FILTER*%
%TO.N,Net-(ACS1-FILTER)*%
X132636750Y-99040000D03*
%TO.P,ACS1,5,GND*%
%TO.N,GND*%
X133906750Y-99040000D03*
%TO.P,ACS1,4,IP-*%
%TO.N,AC_IN_NEUTRAL*%
X133906750Y-103990000D03*
%TO.P,ACS1,3,IP-*%
X132636750Y-103990000D03*
%TO.P,ACS1,2,IP+*%
%TO.N,AC_IN_NEUTRAL_HAL*%
X131366750Y-103990000D03*
%TO.P,ACS1,1,IP+*%
X130096750Y-103990000D03*
%TD*%
D22*
%TO.P,ACPWR3,2,A*%
%TO.N,5V0*%
X158500000Y-104100000D03*
%TO.P,ACPWR3,1,K*%
%TO.N,Net-(ACPWR3-K)*%
X155525000Y-104100000D03*
%TD*%
D23*
%TO.P,AC3,2*%
%TO.N,GND3*%
X153820000Y-101800000D03*
%TO.P,AC3,1*%
%TO.N,Net-(ACPWR3-K)*%
X155720000Y-101800000D03*
%TD*%
D15*
%TO.P,TP2,1,1*%
%TO.N,GND*%
X145030000Y-117800000D03*
%TD*%
D24*
%TO.P,BPR1,2*%
%TO.N,GND3*%
X152437500Y-96400000D03*
%TO.P,BPR1,1*%
%TO.N,Net-(U3-CS)*%
X154262500Y-96400000D03*
%TD*%
D17*
%TO.P,EC2,2*%
%TO.N,Net-(ACS1-FILTER)*%
X135786750Y-98805000D03*
%TO.P,EC2,1*%
%TO.N,GND*%
X135786750Y-100355000D03*
%TD*%
D25*
%TO.P,ACPWR2,2,A*%
%TO.N,5V0*%
X153160000Y-109210000D03*
%TO.P,ACPWR2,1,K*%
%TO.N,GND3*%
X153160000Y-106235000D03*
%TD*%
D26*
%TO.P,HLV1,2*%
%TO.N,AC_IN_LINE*%
X111680000Y-88300000D03*
%TO.P,HLV1,1*%
%TO.N,Net-(HLC2-Pad1)*%
X106680000Y-89600000D03*
%TD*%
D27*
%TO.P,HLL2,4,4*%
%TO.N,AC_IN_LINE*%
X156388393Y-82480164D03*
%TO.P,HLL2,3,3*%
%TO.N,Net-(D2-Pad2)*%
X151350257Y-87408698D03*
%TO.P,HLL2,2,2*%
%TO.N,Net-(HLC2-Pad1)*%
X150602138Y-76764620D03*
D28*
%TO.P,HLL2,1,1*%
%TO.N,Net-(D2-Pad4)*%
X145553396Y-81710832D03*
%TD*%
D27*
%TO.P,HLC2,2*%
%TO.N,AC_IN_LINE*%
X117860000Y-81030000D03*
%TO.P,HLC2,1*%
%TO.N,Net-(HLC2-Pad1)*%
X107860000Y-81030000D03*
%TD*%
D29*
%TO.P,U2,4*%
%TO.N,AC_IN_NEUTRAL_HAL*%
X106759581Y-115505892D03*
%TO.P,U2,3*%
%TO.N,AC_OUT_NEUTRAL*%
X114009719Y-112122328D03*
%TO.P,U2,2*%
%TO.N,Net-(HLD1-K)*%
X122240946Y-120963901D03*
%TO.P,U2,1*%
%TO.N,GND*%
X116675344Y-126153908D03*
%TD*%
D30*
%TO.P,PF1,2*%
%TO.N,AC_IN_NEUTRAL_HAL*%
X108570000Y-100070000D03*
%TO.P,PF1,1*%
%TO.N,Net-(HLC2-Pad1)*%
X107370000Y-94970000D03*
%TD*%
D31*
%TO.P,C1,2*%
%TO.N,GND3*%
X157030000Y-110900000D03*
D32*
%TO.P,C1,1*%
%TO.N,5V0*%
X155530000Y-110900000D03*
%TD*%
D26*
%TO.P,C2,2*%
%TO.N,GND3*%
X154070000Y-93650000D03*
D33*
%TO.P,C2,1*%
%TO.N,Net-(U3-DRAIN)*%
X156070000Y-93650000D03*
%TD*%
D34*
%TO.N,ACS_HALL_PAD1B*%
X125610000Y-126670000D03*
%TO.N,GND3*%
X151380000Y-106590000D03*
X150490000Y-107570000D03*
%TO.N,5V0*%
X154870000Y-118800000D03*
%TO.N,GND*%
X146860000Y-127810000D03*
X156530000Y-125290000D03*
X146840000Y-119250000D03*
X147490000Y-117330000D03*
X157770000Y-117250000D03*
X154990000Y-120920000D03*
X151950000Y-117290000D03*
X149690000Y-117290000D03*
X153880000Y-117280000D03*
X150260000Y-120590000D03*
X157960000Y-120800000D03*
%TO.N,3V3*%
X147220000Y-121730000D03*
%TO.N,AC_IN_NEUTRAL*%
X136190000Y-108500000D03*
X133540000Y-106330000D03*
X136710000Y-106820000D03*
X139390000Y-107300000D03*
X139270000Y-109180000D03*
X135330000Y-104090000D03*
X139430000Y-111100000D03*
X135360000Y-105790000D03*
X138020000Y-106110000D03*
X138050000Y-107910000D03*
X137650000Y-109560000D03*
X136620000Y-105100000D03*
%TO.N,AC_IN_LINE*%
X115840000Y-91070000D03*
X114130000Y-91640000D03*
X112340000Y-92100000D03*
X115330000Y-92980000D03*
X114410000Y-94310000D03*
X115440000Y-87840000D03*
X113180000Y-93750000D03*
X111440000Y-90460000D03*
X115390000Y-89310000D03*
X117650000Y-87840000D03*
X113430000Y-87900000D03*
X114030000Y-90180000D03*
X116220000Y-94260000D03*
%TO.N,AC_OUT_NEUTRAL*%
X113550000Y-107950000D03*
X113710000Y-110050000D03*
X116060000Y-113030000D03*
X116170000Y-111500000D03*
X116050000Y-110020000D03*
X116160000Y-108010000D03*
X114760000Y-108740000D03*
D35*
%TO.N,Net-(ACS1-VIOUT)*%
X131360000Y-97740000D03*
D34*
%TO.N,AC_IN_NEUTRAL_HAL*%
X125860000Y-109580000D03*
X109010000Y-116440000D03*
X127960000Y-109590000D03*
X127050000Y-108110000D03*
X122690000Y-112780000D03*
X119770000Y-115510000D03*
X113620000Y-116640000D03*
X109800000Y-118050000D03*
X124330000Y-111040000D03*
X107190000Y-117800000D03*
X130390000Y-106260000D03*
X126110000Y-111140000D03*
X124490000Y-112640000D03*
X115680000Y-116600000D03*
X114550000Y-117900000D03*
X128970000Y-107450000D03*
X123040000Y-114300000D03*
X116840000Y-118180000D03*
X121400000Y-115820000D03*
X111180000Y-116640000D03*
X121410000Y-114050000D03*
X128710000Y-105910000D03*
X118070000Y-116680000D03*
X112350000Y-118110000D03*
X119760000Y-117510000D03*
%TD*%
D36*
%TO.N,3V3*%
X147220000Y-121470000D02*
X147220000Y-121730000D01*
X143910000Y-119600000D02*
X145350000Y-119600000D01*
X128560000Y-115380000D02*
X139690000Y-115380000D01*
X127900000Y-116040000D02*
X128560000Y-115380000D01*
X139690000Y-115380000D02*
X143910000Y-119600000D01*
X145350000Y-119600000D02*
X147220000Y-121470000D01*
X127900000Y-116282500D02*
X127900000Y-116040000D01*
D37*
X145852500Y-120102500D02*
X144620000Y-121335000D01*
%TO.N,GND*%
X147100000Y-116940000D02*
X147490000Y-117330000D01*
X147100000Y-106714974D02*
X147100000Y-116940000D01*
X140740026Y-100355000D02*
X147100000Y-106714974D01*
X135786750Y-100355000D02*
X140740026Y-100355000D01*
D36*
%TO.N,Net-(RQ1-E)*%
X131222500Y-116282500D02*
X131730000Y-116790000D01*
X129800000Y-116282500D02*
X131222500Y-116282500D01*
X131730000Y-116790000D02*
X131850000Y-116790000D01*
%TO.N,RELAY_EN_PAD_2B*%
X131020000Y-126970000D02*
X131020000Y-126040000D01*
X129863146Y-128126854D02*
X131020000Y-126970000D01*
X123996854Y-128126854D02*
X129863146Y-128126854D01*
X126385000Y-119395000D02*
X122480000Y-123300000D01*
X122480000Y-126610000D02*
X123996854Y-128126854D01*
X130895000Y-119395000D02*
X126385000Y-119395000D01*
X131850000Y-118440000D02*
X130895000Y-119395000D01*
X122480000Y-123300000D02*
X122480000Y-126610000D01*
D38*
%TO.N,3V3*%
X144593146Y-128026854D02*
X147220000Y-125400000D01*
X147220000Y-125400000D02*
X147220000Y-121730000D01*
X139100000Y-127210000D02*
X139916854Y-128026854D01*
X139916854Y-128026854D02*
X144593146Y-128026854D01*
X139100000Y-126040000D02*
X139100000Y-127210000D01*
%TO.N,GND*%
X137080000Y-126273146D02*
X137080000Y-128600000D01*
D37*
%TO.N,ACS_HALL_PAD1B*%
X128600000Y-126670000D02*
X125610000Y-126670000D01*
X129000000Y-126270000D02*
X128600000Y-126670000D01*
X129000000Y-126040000D02*
X129000000Y-126270000D01*
D38*
%TO.N,GND*%
X146043146Y-128626854D02*
X136820000Y-128626854D01*
X146860000Y-127810000D02*
X146043146Y-128626854D01*
X119148290Y-128626854D02*
X116675344Y-126153908D01*
X137213146Y-128626854D02*
X119148290Y-128626854D01*
D39*
%TO.N,GND3*%
X153820000Y-101800000D02*
X153820000Y-105880000D01*
D38*
X155970000Y-99440000D02*
X155970000Y-100160000D01*
D39*
X156135000Y-106345000D02*
X156260000Y-106220000D01*
X153820000Y-98630000D02*
X153820000Y-101800000D01*
X152437500Y-95022500D02*
X152437500Y-97247500D01*
X154070000Y-93650000D02*
X153810000Y-93650000D01*
X157030000Y-110900000D02*
X157130000Y-110900000D01*
D38*
X156790000Y-99910000D02*
X156390000Y-100310000D01*
D39*
X151380000Y-106680000D02*
X150750000Y-107310000D01*
D38*
X156390000Y-100310000D02*
X153820000Y-100310000D01*
D39*
X150660000Y-107400000D02*
X150490000Y-107570000D01*
X152437500Y-97247500D02*
X153820000Y-98630000D01*
X151840000Y-106220000D02*
X151470000Y-106590000D01*
D38*
X156790000Y-99510000D02*
X156790000Y-99910000D01*
D39*
X154160000Y-106220000D02*
X154145000Y-106235000D01*
X153810000Y-93650000D02*
X152437500Y-95022500D01*
X156260000Y-106220000D02*
X151840000Y-106220000D01*
D37*
%TO.N,5V0*%
X129540000Y-97060000D02*
X127956750Y-98643250D01*
D39*
X158650000Y-107910000D02*
X158650000Y-104250000D01*
X156260000Y-109020000D02*
X157540000Y-109020000D01*
X155530000Y-110900000D02*
X155530000Y-109750000D01*
X153480000Y-109020000D02*
X153180000Y-109320000D01*
D37*
X154870000Y-118800000D02*
X154870000Y-113990000D01*
X129751750Y-98775000D02*
X130076750Y-99100000D01*
X127956750Y-98643250D02*
X127956750Y-98775000D01*
D39*
X158650000Y-104250000D02*
X158500000Y-104100000D01*
D37*
X127956750Y-98775000D02*
X129751750Y-98775000D01*
D39*
X157540000Y-109020000D02*
X158650000Y-107910000D01*
D37*
X148100000Y-115400000D02*
X148090000Y-115390000D01*
X154870000Y-115400000D02*
X148100000Y-115400000D01*
D39*
X156260000Y-109020000D02*
X153480000Y-109020000D01*
D37*
X154870000Y-113990000D02*
X137940000Y-97060000D01*
X127956750Y-98775000D02*
X127921750Y-98740000D01*
D39*
X155530000Y-109750000D02*
X156260000Y-109020000D01*
D37*
X137940000Y-97060000D02*
X129540000Y-97060000D01*
D36*
%TO.N,GND*%
X116203908Y-126153908D02*
X116675344Y-126153908D01*
D37*
X134040000Y-100355000D02*
X135786750Y-100355000D01*
X145500000Y-117330000D02*
X147490000Y-117330000D01*
X127705000Y-100355000D02*
X134040000Y-100355000D01*
X145030000Y-117800000D02*
X145500000Y-117330000D01*
D36*
X114002500Y-122440000D02*
X114002500Y-123952500D01*
X114002500Y-123952500D02*
X116203908Y-126153908D01*
D37*
X133906750Y-100221750D02*
X134040000Y-100355000D01*
X133906750Y-99040000D02*
X133906750Y-100221750D01*
%TO.N,3V3*%
X147220000Y-121730000D02*
X147200000Y-121730000D01*
%TO.N,AC_IN_NEUTRAL*%
X133906750Y-103990000D02*
X132636750Y-103990000D01*
X140526750Y-110610000D02*
X133906750Y-103990000D01*
X141500000Y-110610000D02*
X140526750Y-110610000D01*
D40*
X140570000Y-110580000D02*
X140540000Y-110550000D01*
D38*
%TO.N,Net-(U3-CS)*%
X155990000Y-96210000D02*
X154042500Y-96210000D01*
D39*
%TO.N,Net-(U3-DRAIN)*%
X156450000Y-93650000D02*
X157970000Y-95170000D01*
X157970000Y-95170000D02*
X157970000Y-96200000D01*
X156070000Y-93650000D02*
X156450000Y-93650000D01*
D36*
%TO.N,Net-(HLD1-K)*%
X122240946Y-120963901D02*
X124314847Y-118890000D01*
X128517500Y-118890000D02*
X128850000Y-118557500D01*
X116977500Y-122440000D02*
X120764847Y-122440000D01*
X120764847Y-122440000D02*
X122240946Y-120963901D01*
X124314847Y-118890000D02*
X128517500Y-118890000D01*
D39*
%TO.N,Net-(ACPWR3-K)*%
X155720000Y-101800000D02*
X155720000Y-103825000D01*
X155700000Y-101660000D02*
X155780000Y-101580000D01*
X155780000Y-101580000D02*
X156940000Y-101580000D01*
X158030000Y-100490000D02*
X158030000Y-100440000D01*
D38*
X158020000Y-99520000D02*
X158020000Y-100192500D01*
D39*
X156940000Y-101580000D02*
X158030000Y-100490000D01*
X155720000Y-103825000D02*
X155435000Y-104110000D01*
D37*
%TO.N,Net-(ACS1-FILTER)*%
X132616750Y-98260000D02*
X133156750Y-97720000D01*
X133156750Y-97720000D02*
X135276750Y-97720000D01*
X132616750Y-99100000D02*
X132616750Y-98260000D01*
X135786750Y-98230000D02*
X135786750Y-98805000D01*
X135276750Y-97720000D02*
X135786750Y-98230000D01*
%TO.N,Net-(ACS1-VIOUT)*%
X131360000Y-97620000D02*
X131390000Y-97590000D01*
X131360000Y-97740000D02*
X131346750Y-97753250D01*
X131346750Y-97753250D02*
X131346750Y-99100000D01*
X131360000Y-97740000D02*
X131360000Y-97620000D01*
D40*
%TO.N,AC_IN_NEUTRAL_HAL*%
X106759581Y-115505892D02*
X109133689Y-117880000D01*
X109133689Y-117880000D02*
X119270000Y-117880000D01*
X128042053Y-107137947D02*
X130150000Y-105030000D01*
X119270000Y-117880000D02*
X128042053Y-109107947D01*
X128042053Y-109107947D02*
X128042053Y-107137947D01*
%TD*%
%TA.AperFunction,Conductor*%
%TO.N,AC_IN_NEUTRAL_HAL*%
G36*
X130698062Y-103010272D02*
G01*
X130867977Y-103025401D01*
X130892116Y-103029995D01*
X131046827Y-103075716D01*
X131069580Y-103084979D01*
X131212231Y-103160317D01*
X131232716Y-103173891D01*
X131357696Y-103275880D01*
X131375103Y-103293228D01*
X131477512Y-103417865D01*
X131491157Y-103438309D01*
X131566969Y-103580695D01*
X131576314Y-103603430D01*
X131622550Y-103757970D01*
X131627227Y-103782099D01*
X131642927Y-103951960D01*
X131643189Y-103958111D01*
X131621399Y-107022987D01*
X131601238Y-107089884D01*
X131548110Y-107135263D01*
X131534423Y-107140450D01*
X131479645Y-107157585D01*
X131474461Y-107158964D01*
X131408763Y-107173426D01*
X131408757Y-107173427D01*
X131187772Y-107247886D01*
X131174946Y-107248391D01*
X131139873Y-107263771D01*
X131134770Y-107265745D01*
X131108509Y-107274593D01*
X131074597Y-107286020D01*
X131074594Y-107286021D01*
X131074586Y-107286024D01*
X130754575Y-107434076D01*
X130754562Y-107434083D01*
X130452441Y-107615862D01*
X130452425Y-107615873D01*
X130171711Y-107829265D01*
X130171701Y-107829273D01*
X129915700Y-108071770D01*
X129687425Y-108340515D01*
X129687418Y-108340525D01*
X129489541Y-108632370D01*
X129324360Y-108943936D01*
X129324358Y-108943939D01*
X129193842Y-109271510D01*
X129193840Y-109271516D01*
X129099511Y-109611260D01*
X129099509Y-109611268D01*
X129042461Y-109959249D01*
X129042460Y-109959253D01*
X129038559Y-110031196D01*
X129035635Y-110052061D01*
X129031672Y-110069432D01*
X129015666Y-110107992D01*
X128996447Y-110138470D01*
X128983813Y-110155185D01*
X126357500Y-113079379D01*
X126357501Y-113079380D01*
X126329394Y-113109409D01*
X126300087Y-113138245D01*
X125376253Y-114010601D01*
X124135884Y-115181852D01*
X124073627Y-115213567D01*
X124004107Y-115206588D01*
X123986073Y-115197491D01*
X123918771Y-115156346D01*
X123812797Y-115120501D01*
X123701531Y-115108934D01*
X123701530Y-115108934D01*
X123701529Y-115108934D01*
X123590450Y-115122211D01*
X123485040Y-115159680D01*
X123485038Y-115159681D01*
X123390503Y-115219490D01*
X123350853Y-115259313D01*
X123294466Y-115315840D01*
X123236897Y-115369919D01*
X123230042Y-115380426D01*
X119921569Y-118697178D01*
X119886609Y-118730004D01*
X119883563Y-118732683D01*
X119837065Y-118770943D01*
X119832175Y-118774579D01*
X119784128Y-118806766D01*
X119777085Y-118810842D01*
X119726139Y-118836022D01*
X119718625Y-118839141D01*
X119664846Y-118857433D01*
X119656993Y-118859542D01*
X119600267Y-118870849D01*
X119594232Y-118871746D01*
X119534309Y-118877659D01*
X119530253Y-118877926D01*
X119482284Y-118879500D01*
X110051961Y-118879500D01*
X110042791Y-118876807D01*
X109960537Y-118879500D01*
X109823600Y-118879500D01*
X109713649Y-118904596D01*
X109612033Y-118953532D01*
X109612030Y-118953533D01*
X109523852Y-119023855D01*
X109484656Y-119073003D01*
X109427467Y-119113142D01*
X109411903Y-119117304D01*
X109404206Y-119118835D01*
X109374601Y-119121100D01*
X105736151Y-118962093D01*
X105730257Y-118961552D01*
X105556191Y-118937179D01*
X105533204Y-118931686D01*
X105375349Y-118877615D01*
X105353821Y-118867860D01*
X105209095Y-118784822D01*
X105189809Y-118771160D01*
X105063464Y-118662169D01*
X105047122Y-118645096D01*
X104943751Y-118514114D01*
X104930946Y-118494255D01*
X104854301Y-118346031D01*
X104845497Y-118324100D01*
X104798372Y-118164042D01*
X104793887Y-118140838D01*
X104777634Y-117971065D01*
X104777354Y-117965192D01*
X104777354Y-114717603D01*
X104777644Y-114711610D01*
X104794366Y-114539364D01*
X104798973Y-114515862D01*
X104847413Y-114353745D01*
X104856456Y-114331564D01*
X104935177Y-114181789D01*
X104948309Y-114161775D01*
X105054382Y-114029925D01*
X105071118Y-114012814D01*
X105200561Y-113903840D01*
X105220273Y-113890267D01*
X105368271Y-113808222D01*
X105390238Y-113798690D01*
X105551242Y-113746651D01*
X105574635Y-113741522D01*
X105751616Y-113720351D01*
X105757582Y-113719930D01*
X107098353Y-113690061D01*
X107104860Y-113690259D01*
X107298231Y-113706371D01*
X107323846Y-113711258D01*
X107500136Y-113764621D01*
X107524165Y-113774762D01*
X107584741Y-113808228D01*
X107685380Y-113863828D01*
X107706762Y-113878777D01*
X107853199Y-114006059D01*
X107857892Y-114010593D01*
X108350360Y-114539372D01*
X109420086Y-115687973D01*
X109420089Y-115687976D01*
X109720000Y-116010000D01*
X110160034Y-116006409D01*
X110160035Y-116006410D01*
X110625603Y-116002611D01*
X118300000Y-115940000D01*
X118979148Y-115255954D01*
X122429428Y-111780793D01*
X122429439Y-111780780D01*
X122460000Y-111750000D01*
X125040160Y-108655935D01*
X129442103Y-103377230D01*
X129446651Y-103372340D01*
X129589915Y-103234098D01*
X129611058Y-103217708D01*
X129772050Y-103118725D01*
X129796211Y-103107259D01*
X129974693Y-103045138D01*
X130000767Y-103039122D01*
X130115893Y-103025401D01*
X130198447Y-103015562D01*
X130205125Y-103015129D01*
X130691925Y-103010032D01*
X130698062Y-103010272D01*
G37*
%TD.AperFunction*%
%TD*%
%TA.AperFunction,Conductor*%
%TO.N,AC_OUT_NEUTRAL*%
G36*
X117581220Y-107359321D02*
G01*
X117763737Y-107375917D01*
X117787930Y-107380576D01*
X117954643Y-107430278D01*
X117977441Y-107439629D01*
X118131035Y-107521315D01*
X118151534Y-107534991D01*
X118285935Y-107645431D01*
X118303326Y-107662890D01*
X118413241Y-107797735D01*
X118426834Y-107818285D01*
X118507915Y-107972204D01*
X118517174Y-107995034D01*
X118566216Y-108161944D01*
X118570779Y-108186159D01*
X118586652Y-108368724D01*
X118586880Y-108374891D01*
X118532696Y-112608046D01*
X118532324Y-112614080D01*
X118512568Y-112792497D01*
X118507589Y-112816116D01*
X118456376Y-112978646D01*
X118446915Y-113000852D01*
X118365186Y-113150379D01*
X118351603Y-113170332D01*
X118242454Y-113301192D01*
X118225262Y-113318136D01*
X118092829Y-113425370D01*
X118072681Y-113438662D01*
X117921975Y-113518211D01*
X117899633Y-113527347D01*
X117736380Y-113576190D01*
X117712691Y-113580825D01*
X117662646Y-113585630D01*
X117533998Y-113597984D01*
X117527977Y-113598267D01*
X116032601Y-113595658D01*
X113817487Y-113591792D01*
X113811313Y-113591474D01*
X113628718Y-113572890D01*
X113604536Y-113567960D01*
X113438130Y-113516342D01*
X113415406Y-113506722D01*
X113262515Y-113423167D01*
X113242145Y-113409236D01*
X113108830Y-113297057D01*
X113091622Y-113279368D01*
X112983165Y-113143011D01*
X112969803Y-113122267D01*
X112890499Y-112967131D01*
X112881508Y-112944147D01*
X112834499Y-112776380D01*
X112830238Y-112752071D01*
X112820030Y-112614080D01*
X112816697Y-112569027D01*
X112816550Y-112562861D01*
X112924965Y-108368553D01*
X112925405Y-108362616D01*
X112946894Y-108187125D01*
X112952033Y-108163914D01*
X113003850Y-108004275D01*
X113013316Y-107982488D01*
X113094652Y-107835659D01*
X113108106Y-107816073D01*
X113215969Y-107687462D01*
X113232897Y-107670819D01*
X113363332Y-107565148D01*
X113383134Y-107552036D01*
X113531325Y-107473205D01*
X113553271Y-107464110D01*
X113713777Y-107415011D01*
X113737065Y-107410269D01*
X113912913Y-107391763D01*
X113918827Y-107391426D01*
X117575066Y-107359070D01*
X117581220Y-107359321D01*
G37*
%TD.AperFunction*%
%TD*%
%TA.AperFunction,Conductor*%
%TO.N,GND*%
G36*
X154237539Y-117269685D02*
G01*
X154283294Y-117322489D01*
X154294500Y-117374000D01*
X154294500Y-118045781D01*
X154274815Y-118112820D01*
X154262650Y-118128753D01*
X154137466Y-118267784D01*
X154042821Y-118431715D01*
X154042818Y-118431722D01*
X153984327Y-118611740D01*
X153984326Y-118611744D01*
X153964540Y-118800000D01*
X153984326Y-118988256D01*
X153984327Y-118988259D01*
X154042818Y-119168277D01*
X154042821Y-119168284D01*
X154137467Y-119332216D01*
X154237432Y-119443238D01*
X154264129Y-119472888D01*
X154417265Y-119584148D01*
X154417270Y-119584151D01*
X154590192Y-119661142D01*
X154590197Y-119661144D01*
X154775354Y-119700500D01*
X154775355Y-119700500D01*
X154964644Y-119700500D01*
X154964646Y-119700500D01*
X155149803Y-119661144D01*
X155322730Y-119584151D01*
X155475871Y-119472888D01*
X155602533Y-119332216D01*
X155697179Y-119168284D01*
X155755674Y-118988256D01*
X155775460Y-118800000D01*
X155755674Y-118611744D01*
X155697179Y-118431716D01*
X155602533Y-118267784D01*
X155584693Y-118247971D01*
X155477350Y-118128753D01*
X155447120Y-118065761D01*
X155445500Y-118045781D01*
X155445500Y-117374000D01*
X155465185Y-117306961D01*
X155517989Y-117261206D01*
X155569500Y-117250000D01*
X158843805Y-117250000D01*
X158849886Y-117250299D01*
X158910921Y-117256310D01*
X159029795Y-117268018D01*
X159053623Y-117272757D01*
X159217855Y-117322576D01*
X159240307Y-117331877D01*
X159390724Y-117412276D01*
X159391652Y-117412772D01*
X159411864Y-117426277D01*
X159544520Y-117535145D01*
X159561708Y-117552333D01*
X159670576Y-117684989D01*
X159684081Y-117705201D01*
X159764975Y-117856543D01*
X159774278Y-117879001D01*
X159824094Y-118043224D01*
X159828836Y-118067064D01*
X159846055Y-118241890D01*
X159846354Y-118247971D01*
X159846354Y-120756854D01*
X159835366Y-121078511D01*
X159827746Y-121291880D01*
X159826651Y-121312291D01*
X159826415Y-121315308D01*
X159796429Y-121606997D01*
X159769238Y-121859914D01*
X159768782Y-121863518D01*
X159768372Y-121866263D01*
X159718725Y-122154217D01*
X159672275Y-122411672D01*
X159671497Y-122415343D01*
X159602649Y-122697862D01*
X159537351Y-122953698D01*
X159536372Y-122957122D01*
X159448774Y-123233121D01*
X159364938Y-123485009D01*
X159363787Y-123488175D01*
X159257809Y-123756917D01*
X159155915Y-124002909D01*
X159154625Y-124005811D01*
X159030732Y-124266324D01*
X158911268Y-124504980D01*
X158909869Y-124507614D01*
X158768621Y-124758826D01*
X158632211Y-124988729D01*
X158630734Y-124991096D01*
X158472777Y-125231923D01*
X158319366Y-125452877D01*
X158144580Y-125683367D01*
X157975747Y-125892875D01*
X157785696Y-126110834D01*
X157602284Y-126307834D01*
X157397834Y-126512284D01*
X157200834Y-126695696D01*
X156982875Y-126885747D01*
X156773367Y-127054580D01*
X156542877Y-127229366D01*
X156321923Y-127382777D01*
X156081096Y-127540734D01*
X156078729Y-127542211D01*
X155848826Y-127678621D01*
X155597614Y-127819869D01*
X155594980Y-127821268D01*
X155356324Y-127940732D01*
X155095811Y-128064625D01*
X155092909Y-128065915D01*
X154846917Y-128167809D01*
X154578175Y-128273787D01*
X154575009Y-128274938D01*
X154323121Y-128358774D01*
X154047122Y-128446372D01*
X154043698Y-128447351D01*
X153787862Y-128512649D01*
X153505343Y-128581497D01*
X153501672Y-128582275D01*
X153244217Y-128628725D01*
X152956263Y-128678372D01*
X152953518Y-128678782D01*
X152950357Y-128679181D01*
X152949891Y-128679240D01*
X152696997Y-128706429D01*
X152405308Y-128736415D01*
X152402291Y-128736651D01*
X152387443Y-128737447D01*
X152381876Y-128737746D01*
X152307504Y-128740402D01*
X152168511Y-128745366D01*
X151846854Y-128756354D01*
X147362043Y-128756354D01*
X147355952Y-128756054D01*
X147180839Y-128738779D01*
X147156963Y-128734022D01*
X146992509Y-128684052D01*
X146970025Y-128674723D01*
X146818497Y-128593580D01*
X146798274Y-128580040D01*
X146665526Y-128470855D01*
X146648333Y-128453619D01*
X146539480Y-128320605D01*
X146525985Y-128300341D01*
X146445218Y-128148617D01*
X146435949Y-128126123D01*
X146386382Y-127961535D01*
X146381685Y-127937649D01*
X146366307Y-127777728D01*
X146364354Y-127757420D01*
X146364071Y-127751332D01*
X146364330Y-127646080D01*
X146365193Y-127296512D01*
X146385042Y-127229528D01*
X146401502Y-127209153D01*
X147699048Y-125911606D01*
X147701740Y-125909072D01*
X147748183Y-125867929D01*
X147783427Y-125816867D01*
X147785634Y-125813869D01*
X147823878Y-125765056D01*
X147828037Y-125755813D01*
X147839061Y-125736268D01*
X147844818Y-125727930D01*
X147866810Y-125669939D01*
X147868232Y-125666503D01*
X147893695Y-125609931D01*
X147895522Y-125599959D01*
X147901546Y-125578347D01*
X147905140Y-125568872D01*
X147912613Y-125507324D01*
X147913177Y-125503619D01*
X147916535Y-125485289D01*
X147924358Y-125442606D01*
X147920613Y-125380696D01*
X147920500Y-125376951D01*
X147920500Y-122345391D01*
X147940185Y-122278352D01*
X147952352Y-122262417D01*
X147952533Y-122262216D01*
X148047179Y-122098284D01*
X148105674Y-121918256D01*
X148125460Y-121730000D01*
X148105674Y-121541744D01*
X148047179Y-121361716D01*
X147952533Y-121197784D01*
X147825871Y-121057112D01*
X147825870Y-121057111D01*
X147672734Y-120945851D01*
X147672731Y-120945849D01*
X147672730Y-120945849D01*
X147499803Y-120868856D01*
X147499801Y-120868855D01*
X147499800Y-120868855D01*
X147499793Y-120868852D01*
X147495448Y-120867929D01*
X147433969Y-120834732D01*
X147433557Y-120834322D01*
X146420188Y-119820953D01*
X146386703Y-119759630D01*
X146383869Y-119732966D01*
X146383950Y-119700500D01*
X146386638Y-118611740D01*
X146387530Y-118250565D01*
X146387843Y-118244495D01*
X146388106Y-118241890D01*
X146405949Y-118064911D01*
X146410734Y-118041132D01*
X146460803Y-117877261D01*
X146470125Y-117854872D01*
X146551162Y-117703880D01*
X146564664Y-117683740D01*
X146673558Y-117551428D01*
X146690725Y-117534303D01*
X146823310Y-117425732D01*
X146843484Y-117412280D01*
X146994668Y-117331620D01*
X147017086Y-117322351D01*
X147181082Y-117272687D01*
X147204868Y-117267962D01*
X147329211Y-117255735D01*
X147384508Y-117250298D01*
X147390579Y-117250000D01*
X154170500Y-117250000D01*
X154237539Y-117269685D01*
G37*
%TD.AperFunction*%
%TD*%
%TA.AperFunction,Conductor*%
%TO.N,AC_IN_NEUTRAL*%
G36*
X134319896Y-102772636D02*
G01*
X134464138Y-102780694D01*
X134484078Y-102781809D01*
X134505954Y-102785006D01*
X134657790Y-102821255D01*
X134678753Y-102828286D01*
X134821744Y-102890928D01*
X134841125Y-102901570D01*
X134977645Y-102993264D01*
X134982067Y-102996529D01*
X138988955Y-106241496D01*
X140325582Y-107323961D01*
X140330393Y-107328291D01*
X140466433Y-107464277D01*
X140482719Y-107484372D01*
X140582260Y-107637429D01*
X140594023Y-107660464D01*
X140663154Y-107839944D01*
X140665164Y-107846104D01*
X141995622Y-112784307D01*
X141997218Y-112792274D01*
X142016160Y-112934746D01*
X142016198Y-112967142D01*
X141999177Y-113097511D01*
X141990824Y-113128810D01*
X141940619Y-113250318D01*
X141924444Y-113278384D01*
X141844485Y-113382739D01*
X141821592Y-113405660D01*
X141717325Y-113485748D01*
X141689276Y-113501956D01*
X141567832Y-113552301D01*
X141536544Y-113560691D01*
X141394034Y-113579468D01*
X141385927Y-113580000D01*
X140932327Y-113580000D01*
X140925219Y-113579591D01*
X140898039Y-113576456D01*
X140715344Y-113555386D01*
X140687678Y-113548919D01*
X140498920Y-113481200D01*
X140473455Y-113468606D01*
X140340693Y-113382739D01*
X140296054Y-113353867D01*
X140290307Y-113349664D01*
X138020401Y-111480331D01*
X138020382Y-111480315D01*
X138020000Y-111480000D01*
X138019792Y-111479829D01*
X138019563Y-111479640D01*
X135458403Y-109374701D01*
X135452179Y-109368821D01*
X135392475Y-109304064D01*
X135373017Y-109276032D01*
X135350549Y-109231664D01*
X135348269Y-109226613D01*
X135299606Y-109104481D01*
X135293242Y-109087480D01*
X135293246Y-109087489D01*
X135293362Y-109087754D01*
X135292729Y-109082833D01*
X135282318Y-109060774D01*
X135280799Y-109057277D01*
X135262851Y-109012232D01*
X135235644Y-108943945D01*
X135235639Y-108943937D01*
X135235637Y-108943930D01*
X135187575Y-108853276D01*
X135159946Y-108801160D01*
X135159944Y-108801157D01*
X135153705Y-108789390D01*
X135148220Y-108779042D01*
X135140362Y-108763516D01*
X135141091Y-108764859D01*
X135140074Y-108760134D01*
X135127444Y-108739587D01*
X135125494Y-108736178D01*
X135070467Y-108632385D01*
X134961400Y-108471523D01*
X134954038Y-108460254D01*
X134952653Y-108455666D01*
X134938344Y-108437282D01*
X134935954Y-108433993D01*
X134872581Y-108340524D01*
X134741068Y-108185694D01*
X134739068Y-108183267D01*
X134736979Y-108180731D01*
X134734698Y-108175387D01*
X134717355Y-108157559D01*
X134714541Y-108154464D01*
X134676690Y-108109903D01*
X134644299Y-108071770D01*
X134572052Y-108003334D01*
X134492012Y-107927515D01*
X134488346Y-107921213D01*
X134467130Y-107903741D01*
X134463906Y-107900892D01*
X134388303Y-107829277D01*
X134388298Y-107829273D01*
X134219614Y-107701042D01*
X134214940Y-107694702D01*
X134190706Y-107678869D01*
X134187096Y-107676322D01*
X134107573Y-107615871D01*
X133924145Y-107505507D01*
X133918418Y-107499279D01*
X133891343Y-107485578D01*
X133887381Y-107483387D01*
X133846927Y-107459047D01*
X133805437Y-107434083D01*
X133805424Y-107434076D01*
X133609103Y-107343248D01*
X133602302Y-107337296D01*
X133572677Y-107326204D01*
X133568383Y-107324410D01*
X133485406Y-107286021D01*
X133278243Y-107216219D01*
X133270373Y-107210712D01*
X133238576Y-107202660D01*
X133233998Y-107201311D01*
X133151240Y-107173426D01*
X132935462Y-107125930D01*
X132926550Y-107121035D01*
X132892956Y-107116377D01*
X132888151Y-107115516D01*
X132836417Y-107104129D01*
X132806865Y-107097624D01*
X132806862Y-107097623D01*
X132762914Y-107092843D01*
X132742616Y-107088901D01*
X132714182Y-107080869D01*
X132696573Y-107075894D01*
X132665427Y-107062251D01*
X132587477Y-107014416D01*
X132580531Y-107009465D01*
X132515204Y-106955776D01*
X132508834Y-106949737D01*
X132435478Y-106869614D01*
X132415731Y-106840739D01*
X132373541Y-106755215D01*
X132362647Y-106721976D01*
X132343712Y-106615019D01*
X132342796Y-106606289D01*
X132290644Y-105059115D01*
X132290183Y-105040000D01*
X132290087Y-105020877D01*
X132295611Y-103805657D01*
X132295921Y-103799735D01*
X132313595Y-103624198D01*
X132318218Y-103600934D01*
X132366419Y-103440546D01*
X132375386Y-103418589D01*
X132453253Y-103270306D01*
X132466238Y-103250460D01*
X132570910Y-103119726D01*
X132587433Y-103102716D01*
X132715101Y-102994295D01*
X132734555Y-102980749D01*
X132880525Y-102898627D01*
X132902207Y-102889031D01*
X133061145Y-102836210D01*
X133084262Y-102830917D01*
X133139669Y-102823715D01*
X133259210Y-102808178D01*
X133265131Y-102807695D01*
X134314360Y-102772574D01*
X134319896Y-102772636D01*
G37*
%TD.AperFunction*%
%TD*%
%TA.AperFunction,Conductor*%
%TO.N,AC_IN_LINE*%
G36*
X118048464Y-87130394D02*
G01*
X118189729Y-87146382D01*
X118216906Y-87152613D01*
X118341095Y-87196277D01*
X118366193Y-87208425D01*
X118477484Y-87278742D01*
X118499227Y-87296189D01*
X118591989Y-87389601D01*
X118609288Y-87411473D01*
X118678818Y-87523241D01*
X118690794Y-87548431D01*
X118733587Y-87672918D01*
X118739630Y-87700144D01*
X118754631Y-87841520D01*
X118754975Y-87848500D01*
X118752926Y-88141550D01*
X118750000Y-88560000D01*
X118750079Y-88568259D01*
X118800406Y-93852698D01*
X118800164Y-93858798D01*
X118784067Y-94039350D01*
X118779527Y-94063297D01*
X118731015Y-94228390D01*
X118721878Y-94250987D01*
X118642009Y-94403399D01*
X118628629Y-94423772D01*
X118520485Y-94557622D01*
X118503377Y-94574984D01*
X118371144Y-94685089D01*
X118350971Y-94698769D01*
X118199754Y-94780881D01*
X118177294Y-94790351D01*
X118012933Y-94841296D01*
X117989056Y-94846189D01*
X117808763Y-94864951D01*
X117802667Y-94865283D01*
X117437900Y-94867196D01*
X113646751Y-94887079D01*
X113640511Y-94886796D01*
X113538353Y-94876971D01*
X113455170Y-94868971D01*
X113430618Y-94864071D01*
X113261671Y-94812156D01*
X113238603Y-94802423D01*
X113083532Y-94717630D01*
X113062891Y-94703463D01*
X112928011Y-94589248D01*
X112910635Y-94571222D01*
X112795614Y-94424813D01*
X112791994Y-94419693D01*
X110492574Y-90790790D01*
X110489778Y-90785892D01*
X110412818Y-90635542D01*
X110404365Y-90614465D01*
X110358561Y-90460805D01*
X110354098Y-90438560D01*
X110336173Y-90270596D01*
X110335832Y-90264945D01*
X110311027Y-88568259D01*
X110304878Y-88147672D01*
X110305092Y-88141565D01*
X110320486Y-87959747D01*
X110324961Y-87935641D01*
X110373272Y-87769296D01*
X110382402Y-87746550D01*
X110462519Y-87592970D01*
X110475952Y-87572463D01*
X110584734Y-87437666D01*
X110601939Y-87420208D01*
X110735135Y-87309463D01*
X110755444Y-87295732D01*
X110907824Y-87213385D01*
X110930454Y-87203914D01*
X111096063Y-87153182D01*
X111120107Y-87148353D01*
X111301669Y-87130303D01*
X111307806Y-87130000D01*
X118041486Y-87130000D01*
X118048464Y-87130394D01*
G37*
%TD.AperFunction*%
%TD*%
M02*
