%TF.GenerationSoftware,KiCad,Pcbnew,7.0.7*%
%TF.CreationDate,2023-11-04T15:45:33+01:00*%
%TF.ProjectId,LK-EU01_Smart_Socket_Base,4c4b2d45-5530-4315-9f53-6d6172745f53,rev?*%
%TF.SameCoordinates,Original*%
%TF.FileFunction,Soldermask,Top*%
%TF.FilePolarity,Negative*%
%FSLAX46Y46*%
G04 Gerber Fmt 4.6, Leading zero omitted, Abs format (unit mm)*
G04 Created by KiCad (PCBNEW 7.0.7) date 2023-11-04 15:45:33*
%MOMM*%
%LPD*%
G01*
G04 APERTURE LIST*
G04 Aperture macros list*
%AMRoundRect*
0 Rectangle with rounded corners*
0 $1 Rounding radius*
0 $2 $3 $4 $5 $6 $7 $8 $9 X,Y pos of 4 corners*
0 Add a 4 corners polygon primitive as box body*
4,1,4,$2,$3,$4,$5,$6,$7,$8,$9,$2,$3,0*
0 Add four circle primitives for the rounded corners*
1,1,$1+$1,$2,$3*
1,1,$1+$1,$4,$5*
1,1,$1+$1,$6,$7*
1,1,$1+$1,$8,$9*
0 Add four rect primitives between the rounded corners*
20,1,$1+$1,$2,$3,$4,$5,0*
20,1,$1+$1,$4,$5,$6,$7,0*
20,1,$1+$1,$6,$7,$8,$9,0*
20,1,$1+$1,$8,$9,$2,$3,0*%
%AMRotRect*
0 Rectangle, with rotation*
0 The origin of the aperture is its center*
0 $1 length*
0 $2 width*
0 $3 Rotation angle, in degrees counterclockwise*
0 Add horizontal line*
21,1,$1,$2,0,0,$3*%
G04 Aperture macros list end*
%ADD10R,1.500000X6.000000*%
%ADD11R,1.000000X3.000000*%
%ADD12RoundRect,0.250001X0.462499X0.624999X-0.462499X0.624999X-0.462499X-0.624999X0.462499X-0.624999X0*%
%ADD13RoundRect,0.200000X0.275000X-0.200000X0.275000X0.200000X-0.275000X0.200000X-0.275000X-0.200000X0*%
%ADD14RoundRect,0.150000X-0.150000X0.587500X-0.150000X-0.587500X0.150000X-0.587500X0.150000X0.587500X0*%
%ADD15C,1.000000*%
%ADD16RoundRect,0.250000X1.075000X-0.375000X1.075000X0.375000X-1.075000X0.375000X-1.075000X-0.375000X0*%
%ADD17RoundRect,0.225000X0.250000X-0.225000X0.250000X0.225000X-0.250000X0.225000X-0.250000X-0.225000X0*%
%ADD18RoundRect,0.162500X0.162500X-0.187500X0.162500X0.187500X-0.162500X0.187500X-0.162500X-0.187500X0*%
%ADD19RoundRect,0.175000X0.500000X-0.175000X0.500000X0.175000X-0.500000X0.175000X-0.500000X-0.175000X0*%
%ADD20RoundRect,0.100000X0.100000X-0.250000X0.100000X0.250000X-0.100000X0.250000X-0.100000X-0.250000X0*%
%ADD21RoundRect,0.150000X0.150000X-0.825000X0.150000X0.825000X-0.150000X0.825000X-0.150000X-0.825000X0*%
%ADD22RoundRect,0.250001X-0.462499X-0.624999X0.462499X-0.624999X0.462499X0.624999X-0.462499X0.624999X0*%
%ADD23RoundRect,0.250000X0.250000X0.475000X-0.250000X0.475000X-0.250000X-0.475000X0.250000X-0.475000X0*%
%ADD24RoundRect,0.250000X0.262500X0.450000X-0.262500X0.450000X-0.262500X-0.450000X0.262500X-0.450000X0*%
%ADD25RoundRect,0.250001X-0.624999X0.462499X-0.624999X-0.462499X0.624999X-0.462499X0.624999X0.462499X0*%
%ADD26C,1.600000*%
%ADD27C,2.000000*%
%ADD28RotRect,2.000000X2.000000X315.000000*%
%ADD29C,2.286000*%
%ADD30C,2.010000*%
%ADD31C,1.200000*%
%ADD32R,1.200000X1.200000*%
%ADD33R,1.600000X1.600000*%
G04 APERTURE END LIST*
D10*
%TO.C,U1*%
X118050000Y-91790000D03*
D11*
X129040000Y-125970000D03*
D10*
X118050000Y-110700000D03*
D11*
X131060000Y-125970000D03*
D10*
X141630000Y-110690000D03*
D11*
X133080000Y-125970000D03*
X135100000Y-125970000D03*
X137120000Y-125970000D03*
X139140000Y-125970000D03*
X141160000Y-125970000D03*
X141160000Y-121400000D03*
X139140000Y-121400000D03*
X137120000Y-121400000D03*
X135100000Y-121400000D03*
X133080000Y-121400000D03*
X131060000Y-121400000D03*
X129040000Y-121400000D03*
%TD*%
D12*
%TO.C,HLD1*%
X114002500Y-122440000D03*
X116977500Y-122440000D03*
%TD*%
D13*
%TO.C,RR1*%
X131850000Y-116790000D03*
X131850000Y-118440000D03*
%TD*%
D14*
%TO.C,RQ1*%
X128850000Y-118357500D03*
X127900000Y-116482500D03*
X129800000Y-116482500D03*
%TD*%
D15*
%TO.C,TP3*%
X148090000Y-115390000D03*
%TD*%
%TO.C,TP1*%
X144410000Y-121280000D03*
%TD*%
D16*
%TO.C,HLL1*%
X156260000Y-106220000D03*
X156260000Y-109020000D03*
%TD*%
D17*
%TO.C,EC1*%
X127956750Y-98775000D03*
X127956750Y-100325000D03*
%TD*%
D18*
%TO.C,U3*%
X155990000Y-96210000D03*
D19*
X157970000Y-96200000D03*
D20*
X158040000Y-99510000D03*
X156790000Y-99510000D03*
X155980000Y-99510000D03*
%TD*%
D21*
%TO.C,ACS1*%
X130096750Y-99040000D03*
X131366750Y-99040000D03*
X132636750Y-99040000D03*
X133906750Y-99040000D03*
X133906750Y-103990000D03*
X132636750Y-103990000D03*
X131366750Y-103990000D03*
X130096750Y-103990000D03*
%TD*%
D22*
%TO.C,ACPWR3*%
X158500000Y-104100000D03*
X155525000Y-104100000D03*
%TD*%
D23*
%TO.C,AC3*%
X153820000Y-101800000D03*
X155720000Y-101800000D03*
%TD*%
D15*
%TO.C,TP2*%
X145030000Y-117800000D03*
%TD*%
D24*
%TO.C,BPR1*%
X152437500Y-96400000D03*
X154262500Y-96400000D03*
%TD*%
D17*
%TO.C,EC2*%
X135786750Y-98805000D03*
X135786750Y-100355000D03*
%TD*%
D25*
%TO.C,ACPWR2*%
X153160000Y-109210000D03*
X153160000Y-106235000D03*
%TD*%
D26*
%TO.C,HLV1*%
X111680000Y-88300000D03*
X106680000Y-89600000D03*
%TD*%
D27*
%TO.C,HLL2*%
X156388393Y-82480164D03*
X151350257Y-87408698D03*
X150602138Y-76764620D03*
D28*
X145553396Y-81710832D03*
%TD*%
D27*
%TO.C,HLC2*%
X117860000Y-81030000D03*
X107860000Y-81030000D03*
%TD*%
D29*
%TO.C,U2*%
X106759581Y-115505892D03*
X114009719Y-112122328D03*
X122240946Y-120963901D03*
X116675344Y-126153908D03*
%TD*%
D30*
%TO.C,PF1*%
X108570000Y-100070000D03*
X107370000Y-94970000D03*
%TD*%
D31*
%TO.C,C1*%
X157030000Y-110900000D03*
D32*
X155530000Y-110900000D03*
%TD*%
D26*
%TO.C,C2*%
X154070000Y-93650000D03*
D33*
X156070000Y-93650000D03*
%TD*%
M02*
