M48
; DRILL file {KiCad 7.0.7} date Sat Nov  4 15:45:38 2023
; FORMAT={-:-/ absolute / inch / decimal}
; #@! TF.CreationDate,2023-11-04T15:45:38+01:00
; #@! TF.GenerationSoftware,Kicad,Pcbnew,7.0.7
; #@! TF.FileFunction,Plated,1,2,PTH
FMAT,2
INCH
; #@! TA.AperFunction,Plated,PTH,ViaDrill
T1C0.0157
; #@! TA.AperFunction,Plated,PTH,ComponentDrill
T2C0.0197
; #@! TA.AperFunction,Plated,PTH,ComponentDrill
T3C0.0236
; #@! TA.AperFunction,Plated,PTH,ComponentDrill
T4C0.0315
; #@! TA.AperFunction,Plated,PTH,ComponentDrill
T5C0.0394
; #@! TA.AperFunction,Plated,PTH,ComponentDrill
T6C0.0398
; #@! TA.AperFunction,Plated,PTH,ComponentDrill
T7C0.0512
%
G90
G05
T1
X4.2201Y-4.6378
X4.2917Y-4.5843
X4.3228Y-4.6476
X4.3772Y-4.5921
X4.3874Y-3.5614
X4.4228Y-3.626
X4.4232Y-4.65
X4.4559Y-3.6909
X4.4657Y-3.4606
X4.4705Y-4.25
X4.4732Y-4.5921
X4.4768Y-4.3327
X4.4894Y-3.5504
X4.4933Y-3.6079
X4.5043Y-3.713
X4.5098Y-4.6417
X4.5181Y-4.2811
X4.5406Y-3.6606
X4.5429Y-3.5161
X4.5449Y-3.4583
X4.5543Y-4.5906
X4.5606Y-3.5854
X4.5689Y-4.3315
X4.5693Y-4.45
X4.5732Y-4.2524
X4.5736Y-4.3898
X4.5756Y-3.711
X4.6Y-4.6528
X4.6319Y-3.4583
X4.6484Y-4.5937
X4.715Y-4.6264
X4.7154Y-4.5476
X4.7795Y-4.5598
X4.7799Y-4.4902
X4.8303Y-4.4402
X4.8441Y-4.5
X4.8949Y-4.3717
X4.9012Y-4.4346
X4.9453Y-4.987
X4.9551Y-4.3142
X4.965Y-4.3756
X5.002Y-4.2563
X5.0378Y-4.3146
X5.0673Y-4.1697
X5.0776Y-4.2303
X5.1335Y-4.1835
X5.1717Y-3.848
X5.2575Y-4.1862
X5.328Y-4.098
X5.3291Y-4.165
X5.3618Y-4.2717
X5.3787Y-4.1378
X5.3823Y-4.2055
X5.4193Y-4.3134
X5.4339Y-4.1776
X5.435Y-4.2484
X5.4831Y-4.2984
X5.4878Y-4.2244
X5.4894Y-4.374
X5.7811Y-4.6949
X5.7819Y-5.0319
X5.7961Y-4.7925
X5.8067Y-4.6193
X5.8933Y-4.6177
X5.9157Y-4.7476
X5.9248Y-4.235
X5.9598Y-4.1965
X5.9823Y-4.6177
X6.0583Y-4.6173
X6.0972Y-4.6772
X6.102Y-4.7606
X6.1626Y-4.9327
X6.2114Y-4.6161
X6.2189Y-4.7559
T3
X4.2Y-3.5276
X4.3969Y-3.4764
X6.1232Y-4.3661
X6.1823Y-4.3661
T4
X6.0657Y-3.687
X6.1445Y-3.687
T5
X4.2465Y-3.1902
X4.6402Y-3.1902
X5.7304Y-3.217
X5.9292Y-3.0222
X5.9587Y-3.4413
X6.157Y-3.2473
T6
X4.2272Y-3.739
X4.2744Y-3.9398
T7
X4.2031Y-4.5475
X4.4886Y-4.4143
X4.5935Y-4.9667
X4.8126Y-4.7624
T2
G00X4.6476Y-3.6866
M15
G01X4.6476Y-3.5409
M16
G05
G00X4.6476Y-4.4311
M15
G01X4.6476Y-4.2854
M16
G05
G00X5.576Y-4.4307
M15
G01X5.576Y-4.285
M16
G05
T0
M30
